  0
SECTION
  2
HEADER
  9
$ACADVER
  1
AC1032
  9
$ACADMAINTVER
 90
        4
  9
$DWGCODEPAGE
  3
ANSI_1251
  9
$LASTSAVEDBY
  1
yktma
  9
$REQUIREDVERSIONS
160
                 0
  9
$INSBASE
 10
0.0
 20
0.0
 30
0.0
  9
$EXTMIN
 10
71.62106432747478
 20
-160.0953056124965
 30
0.0
  9
$EXTMAX
 10
138.5346659685242
 20
-85.09600239488023
 30
0.0
  9
$LIMMIN
 10
0.0
 20
0.0
  9
$LIMMAX
 10
12.0
 20
9.0
  9
$ORTHOMODE
 70
     0
  9
$REGENMODE
 70
     1
  9
$FILLMODE
 70
     1
  9
$QTEXTMODE
 70
     0
  9
$MIRRTEXT
 70
     1
  9
$LTSCALE
 40
1.0
  9
$ATTMODE
 70
     1
  9
$TEXTSIZE
 40
0.2
  9
$TRACEWID
 40
0.05
  9
$TEXTSTYLE
  7
Standard
  9
$CLAYER
  8
0
  9
$CELTYPE
  6
ByLayer
  9
$CECOLOR
 62
   256
  9
$CELTSCALE
 40
1.0
  9
$DISPSILH
 70
     0
  9
$DIMSCALE
 40
1.0
  9
$DIMASZ
 40
0.18
  9
$DIMEXO
 40
0.0625
  9
$DIMDLI
 40
0.38
  9
$DIMRND
 40
0.0
  9
$DIMDLE
 40
0.0
  9
$DIMEXE
 40
0.18
  9
$DIMTP
 40
0.0
  9
$DIMTM
 40
0.0
  9
$DIMTXT
 40
0.18
  9
$DIMCEN
 40
0.09
  9
$DIMTSZ
 40
0.0
  9
$DIMTOL
 70
     0
  9
$DIMLIM
 70
     0
  9
$DIMTIH
 70
     1
  9
$DIMTOH
 70
     1
  9
$DIMSE1
 70
     0
  9
$DIMSE2
 70
     0
  9
$DIMTAD
 70
     0
  9
$DIMZIN
 70
     0
  9
$DIMBLK
  1

  9
$DIMASO
 70
     1
  9
$DIMSHO
 70
     1
  9
$DIMPOST
  1

  9
$DIMAPOST
  1

  9
$DIMALT
 70
     0
  9
$DIMALTD
 70
     2
  9
$DIMALTF
 40
25.4
  9
$DIMLFAC
 40
1.0
  9
$DIMTOFL
 70
     0
  9
$DIMTVP
 40
0.0
  9
$DIMTIX
 70
     0
  9
$DIMSOXD
 70
     0
  9
$DIMSAH
 70
     0
  9
$DIMBLK1
  1

  9
$DIMBLK2
  1

  9
$DIMSTYLE
  2
Standard
  9
$DIMCLRD
 70
     0
  9
$DIMCLRE
 70
     0
  9
$DIMCLRT
 70
     0
  9
$DIMTFAC
 40
1.0
  9
$DIMGAP
 40
0.09
  9
$DIMJUST
 70
     0
  9
$DIMSD1
 70
     0
  9
$DIMSD2
 70
     0
  9
$DIMTOLJ
 70
     1
  9
$DIMTZIN
 70
     0
  9
$DIMALTZ
 70
     0
  9
$DIMALTTZ
 70
     0
  9
$DIMUPT
 70
     0
  9
$DIMDEC
 70
     4
  9
$DIMTDEC
 70
     4
  9
$DIMALTU
 70
     2
  9
$DIMALTTD
 70
     2
  9
$DIMTXSTY
  7
Standard
  9
$DIMAUNIT
 70
     0
  9
$DIMADEC
 70
     0
  9
$DIMALTRND
 40
0.0
  9
$DIMAZIN
 70
     0
  9
$DIMDSEP
 70
    46
  9
$DIMATFIT
 70
     3
  9
$DIMFRAC
 70
     0
  9
$DIMLDRBLK
  1

  9
$DIMLUNIT
 70
     2
  9
$DIMLWD
 70
    -2
  9
$DIMLWE
 70
    -2
  9
$DIMTMOVE
 70
     0
  9
$DIMFXL
 40
1.0
  9
$DIMFXLON
 70
     0
  9
$DIMJOGANG
 40
0.7853981633974483
  9
$DIMTFILL
 70
     0
  9
$DIMTFILLCLR
 70
     0
  9
$DIMARCSYM
 70
     0
  9
$DIMLTYPE
  6

  9
$DIMLTEX1
  6

  9
$DIMLTEX2
  6

  9
$DIMTXTDIRECTION
 70
     0
  9
$LUNITS
 70
     2
  9
$LUPREC
 70
     4
  9
$SKETCHINC
 40
0.1
  9
$FILLETRAD
 40
0.5
  9
$AUNITS
 70
     0
  9
$AUPREC
 70
     0
  9
$MENU
  1
.
  9
$ELEVATION
 40
0.0
  9
$PELEVATION
 40
0.0
  9
$THICKNESS
 40
0.0
  9
$LIMCHECK
 70
     0
  9
$CHAMFERA
 40
0.5
  9
$CHAMFERB
 40
0.5
  9
$CHAMFERC
 40
1.0
  9
$CHAMFERD
 40
0.0
  9
$SKPOLY
 70
     0
  9
$TDCREATE
 40
2458564.610613426
  9
$TDUCREATE
 40
2458564.485619861
  9
$TDUPDATE
 40
2458619.170636574
  9
$TDUUPDATE
 40
2458619.045636575
  9
$TDINDWG
 40
0.0022685301
  9
$TDUSRTIMER
 40
0.0022685301
  9
$USRTIMER
 70
     1
  9
$ANGBASE
 50
0.0
  9
$ANGDIR
 70
     0
  9
$PDMODE
 70
     0
  9
$PDSIZE
 40
0.0
  9
$PLINEWID
 40
0.0
  9
$SPLFRAME
 70
     0
  9
$SPLINETYPE
 70
     6
  9
$SPLINESEGS
 70
     8
  9
$HANDSEED
  5
17E
  9
$SURFTAB1
 70
     6
  9
$SURFTAB2
 70
     6
  9
$SURFTYPE
 70
     6
  9
$SURFU
 70
     6
  9
$SURFV
 70
     6
  9
$UCSBASE
  2

  9
$UCSNAME
  2

  9
$UCSORG
 10
0.0
 20
0.0
 30
0.0
  9
$UCSXDIR
 10
1.0
 20
0.0
 30
0.0
  9
$UCSYDIR
 10
0.0
 20
1.0
 30
0.0
  9
$UCSORTHOREF
  2

  9
$UCSORTHOVIEW
 70
     0
  9
$UCSORGTOP
 10
0.0
 20
0.0
 30
0.0
  9
$UCSORGBOTTOM
 10
0.0
 20
0.0
 30
0.0
  9
$UCSORGLEFT
 10
0.0
 20
0.0
 30
0.0
  9
$UCSORGRIGHT
 10
0.0
 20
0.0
 30
0.0
  9
$UCSORGFRONT
 10
0.0
 20
0.0
 30
0.0
  9
$UCSORGBACK
 10
0.0
 20
0.0
 30
0.0
  9
$PUCSBASE
  2

  9
$PUCSNAME
  2

  9
$PUCSORG
 10
0.0
 20
0.0
 30
0.0
  9
$PUCSXDIR
 10
1.0
 20
0.0
 30
0.0
  9
$PUCSYDIR
 10
0.0
 20
1.0
 30
0.0
  9
$PUCSORTHOREF
  2

  9
$PUCSORTHOVIEW
 70
     0
  9
$PUCSORGTOP
 10
0.0
 20
0.0
 30
0.0
  9
$PUCSORGBOTTOM
 10
0.0
 20
0.0
 30
0.0
  9
$PUCSORGLEFT
 10
0.0
 20
0.0
 30
0.0
  9
$PUCSORGRIGHT
 10
0.0
 20
0.0
 30
0.0
  9
$PUCSORGFRONT
 10
0.0
 20
0.0
 30
0.0
  9
$PUCSORGBACK
 10
0.0
 20
0.0
 30
0.0
  9
$USERI1
 70
     0
  9
$USERI2
 70
     0
  9
$USERI3
 70
     0
  9
$USERI4
 70
     0
  9
$USERI5
 70
     0
  9
$USERR1
 40
0.0
  9
$USERR2
 40
0.0
  9
$USERR3
 40
0.0
  9
$USERR4
 40
0.0
  9
$USERR5
 40
0.0
  9
$WORLDVIEW
 70
     1
  9
$SHADEDGE
 70
     3
  9
$SHADEDIF
 70
    70
  9
$TILEMODE
 70
     1
  9
$MAXACTVP
 70
    64
  9
$PINSBASE
 10
0.0
 20
0.0
 30
0.0
  9
$PLIMCHECK
 70
     0
  9
$PEXTMIN
 10
1.049999952316284
 20
0.7999999523162842
 30
0.0
  9
$PEXTMAX
 10
9.449999570846559
 20
7.199999570846558
 30
0.0
  9
$PLIMMIN
 10
-0.2500002402958907
 20
-0.2499999962453767
  9
$PLIMMAX
 10
10.74999951940822
 20
8.249999763458733
  9
$UNITMODE
 70
     0
  9
$VISRETAIN
 70
     1
  9
$PLINEGEN
 70
     0
  9
$PSLTSCALE
 70
     1
  9
$TREEDEPTH
 70
  3020
  9
$CMLSTYLE
  2
Standard
  9
$CMLJUST
 70
     0
  9
$CMLSCALE
 40
1.0
  9
$PROXYGRAPHICS
 70
     1
  9
$MEASUREMENT
 70
     0
  9
$CELWEIGHT
370
    -1
  9
$ENDCAPS
280
     0
  9
$JOINSTYLE
280
     0
  9
$LWDISPLAY
290
     1
  9
$INSUNITS
 70
     1
  9
$HYPERLINKBASE
  1

  9
$STYLESHEET
  1

  9
$XEDIT
290
     1
  9
$CEPSNTYPE
380
     0
  9
$PSTYLEMODE
290
     1
  9
$FINGERPRINTGUID
  2
{4E862EBB-759C-4F8F-9B6F-E6A50C07627D}
  9
$VERSIONGUID
  2
{1E26A0EF-6DDB-7B4D-A117-09BBA28F293A}
  9
$EXTNAMES
290
     1
  9
$PSVPSCALE
 40
0.0
  9
$OLESTARTUP
290
     0
  9
$SORTENTS
280
   127
  9
$INDEXCTL
280
     0
  9
$HIDETEXT
280
     1
  9
$XCLIPFRAME
280
     2
  9
$HALOGAP
280
     0
  9
$OBSCOLOR
 70
   257
  9
$OBSLTYPE
280
     0
  9
$INTERSECTIONDISPLAY
280
     0
  9
$INTERSECTIONCOLOR
 70
   257
  9
$DIMASSOC
280
     2
  9
$PROJECTNAME
  1

  9
$CAMERADISPLAY
290
     0
  9
$LENSLENGTH
 40
50.0
  9
$CAMERAHEIGHT
 40
0.0
  9
$STEPSPERSEC
 40
2.0
  9
$STEPSIZE
 40
6.0
  9
$3DDWFPREC
 40
2.0
  9
$PSOLWIDTH
 40
0.25
  9
$PSOLHEIGHT
 40
4.0
  9
$LOFTANG1
 40
1.570796326794897
  9
$LOFTANG2
 40
1.570796326794897
  9
$LOFTMAG1
 40
0.0
  9
$LOFTMAG2
 40
0.0
  9
$LOFTPARAM
 70
     7
  9
$LOFTNORMALS
280
     1
  9
$LATITUDE
 40
37.795
  9
$LONGITUDE
 40
-122.394
  9
$NORTHDIRECTION
 40
0.0
  9
$TIMEZONE
 70
 -8000
  9
$LIGHTGLYPHDISPLAY
280
     1
  9
$TILEMODELIGHTSYNCH
280
     1
  9
$CMATERIAL
347
3C
  9
$SOLIDHIST
280
     1
  9
$SHOWHIST
280
     1
  9
$DWFFRAME
280
     2
  9
$DGNFRAME
280
     2
  9
$REALWORLDSCALE
290
     1
  9
$INTERFERECOLOR
 62
   256
  9
$INTERFEREOBJVS
345
33
  9
$INTERFEREVPVS
346
124
  9
$CSHADOW
280
     0
  9
$SHADOWPLANELOCATION
 40
0.0
  0
ENDSEC
  0
SECTION
  2
CLASSES
  0
CLASS
  1
ACDBDICTIONARYWDFLT
  2
AcDbDictionaryWithDefault
  3
ObjectDBX Classes
 90
        0
 91
        1
280
     0
281
     0
  0
CLASS
  1
VISUALSTYLE
  2
AcDbVisualStyle
  3
ObjectDBX Classes
 90
     4095
 91
       26
280
     0
281
     0
  0
CLASS
  1
MATERIAL
  2
AcDbMaterial
  3
ObjectDBX Classes
 90
     1153
 91
        3
280
     0
281
     0
  0
CLASS
  1
SUN
  2
AcDbSun
  3
SCENEOE
 90
     1153
 91
        3
280
     0
281
     0
  0
CLASS
  1
MLEADERSTYLE
  2
AcDbMLeaderStyle
  3
ACDB_MLEADERSTYLE_CLASS
 90
     4095
 91
        1
280
     0
281
     0
  0
CLASS
  1
TABLESTYLE
  2
AcDbTableStyle
  3
ObjectDBX Classes
 90
     4095
 91
        1
280
     0
281
     0
  0
CLASS
  1
SCALE
  2
AcDbScale
  3
ObjectDBX Classes
 90
     1153
 91
       17
280
     0
281
     0
  0
CLASS
  1
ACDBSECTIONVIEWSTYLE
  2
AcDbSectionViewStyle
  3
ObjectDBX Classes
 90
     1025
 91
        1
280
     0
281
     0
  0
CLASS
  1
ACDBDETAILVIEWSTYLE
  2
AcDbDetailViewStyle
  3
ObjectDBX Classes
 90
     1025
 91
        1
280
     0
281
     0
  0
CLASS
  1
DICTIONARYVAR
  2
AcDbDictionaryVar
  3
ObjectDBX Classes
 90
        0
 91
        5
280
     0
281
     0
  0
CLASS
  1
CELLSTYLEMAP
  2
AcDbCellStyleMap
  3
ObjectDBX Classes
 90
     1152
 91
        1
280
     0
281
     0
  0
ENDSEC
  0
SECTION
  2
TABLES
  0
TABLE
  2
VPORT
  5
8
330
0
100
AcDbSymbolTable
 70
     1
  0
VPORT
  5
29
330
8
100
AcDbSymbolTableRecord
100
AcDbViewportTableRecord
  2
*Active
 70
     0
 10
0.0
 20
0.0
 11
1.0
 21
1.0
 12
-6.554457870230265
 22
30.93590153405148
 13
0.0
 23
0.0
 14
0.5
 24
0.5
 15
0.5
 25
0.5
 16
0.0
 26
0.0
 36
1.0
 17
105.0007777515277
 27
-148.5000416295416
 37
0.0
 40
115.0748017006485
 41
2.117445838084378
 42
50.0
 43
0.0
 44
0.0
 50
0.0
 51
0.0
 71
     0
 72
   100
 73
     1
 74
     3
 75
     0
 76
     0
 77
     0
 78
     0
281
     0
 65
     1
110
0.0
120
0.0
130
0.0
111
1.0
121
0.0
131
0.0
112
0.0
122
1.0
132
0.0
 79
     0
146
0.0
348
2F
 60
     3
 61
     5
292
     1
282
     1
141
0.0
142
0.0
 63
   250
361
3F
1001
ACAD_NAV_VCDISPLAY
1070
     3
  0
ENDTAB
  0
TABLE
  2
LTYPE
  5
5
330
0
100
AcDbSymbolTable
 70
     1
  0
LTYPE
  5
14
330
5
100
AcDbSymbolTableRecord
100
AcDbLinetypeTableRecord
  2
ByBlock
 70
     0
  3

 72
    65
 73
     0
 40
0.0
  0
LTYPE
  5
15
330
5
100
AcDbSymbolTableRecord
100
AcDbLinetypeTableRecord
  2
ByLayer
 70
     0
  3

 72
    65
 73
     0
 40
0.0
  0
LTYPE
  5
16
330
5
100
AcDbSymbolTableRecord
100
AcDbLinetypeTableRecord
  2
Continuous
 70
     0
  3
Solid line
 72
    65
 73
     0
 40
0.0
  0
ENDTAB
  0
TABLE
  2
LAYER
  5
2
102
{ACAD_XDICTIONARY
360
14A
102
}
330
0
100
AcDbSymbolTable
 70
     3
  0
LAYER
  5
10
330
2
100
AcDbSymbolTableRecord
100
AcDbLayerTableRecord
  2
0
 70
     0
 62
     7
  6
Continuous
370
    -3
390
F
347
3E
348
0
  0
LAYER
  5
40
330
2
100
AcDbSymbolTableRecord
100
AcDbLayerTableRecord
  2
Layer 2
 70
     0
 62
     7
  6
Continuous
370
    -3
390
F
347
3E
348
0
  0
LAYER
  5
43
330
2
100
AcDbSymbolTableRecord
100
AcDbLayerTableRecord
  2
Layer 1
 70
     0
 62
     7
  6
Continuous
370
    -3
390
F
347
3E
348
0
  0
ENDTAB
  0
TABLE
  2
STYLE
  5
3
330
0
100
AcDbSymbolTable
 70
     1
  0
STYLE
  5
11
330
3
100
AcDbSymbolTableRecord
100
AcDbTextStyleTableRecord
  2
Standard
 70
     0
 40
0.0
 41
1.0
 50
0.0
 71
     0
 42
0.2
  3
txt
  4

  0
ENDTAB
  0
TABLE
  2
VIEW
  5
6
330
0
100
AcDbSymbolTable
 70
     3
  0
ENDTAB
  0
TABLE
  2
UCS
  5
7
330
0
100
AcDbSymbolTable
 70
     0
  0
ENDTAB
  0
TABLE
  2
APPID
  5
9
330
0
100
AcDbSymbolTable
 70
     3
  0
APPID
  5
12
330
9
100
AcDbSymbolTableRecord
100
AcDbRegAppTableRecord
  2
ACAD
 70
     0
  0
APPID
  5
150
330
9
100
AcDbSymbolTableRecord
100
AcDbRegAppTableRecord
  2
ACAD_NAV_VCDISPLAY
 70
     0
  0
APPID
  5
156
330
9
100
AcDbSymbolTableRecord
100
AcDbRegAppTableRecord
  2
ACAD_PSEXT
 70
     0
  0
ENDTAB
  0
TABLE
  2
DIMSTYLE
  5
A
330
0
100
AcDbSymbolTable
 70
     1
100
AcDbDimStyleTable
 71
     0
  0
DIMSTYLE
105
27
330
A
100
AcDbSymbolTableRecord
100
AcDbDimStyleTableRecord
  2
Standard
 70
     0
340
11
  0
ENDTAB
  0
TABLE
  2
BLOCK_RECORD
  5
1
330
0
100
AcDbSymbolTable
 70
    22
  0
BLOCK_RECORD
  5
1F
330
1
100
AcDbSymbolTableRecord
100
AcDbBlockTableRecord
  2
*Model_Space
340
22
 70
     0
280
     1
281
     0
  0
BLOCK_RECORD
  5
23
330
1
100
AcDbSymbolTableRecord
100
AcDbBlockTableRecord
  2
*Paper_Space
340
26
 70
     0
280
     1
281
     0
  0
BLOCK_RECORD
  5
1B
330
1
100
AcDbSymbolTableRecord
100
AcDbBlockTableRecord
  2
*Paper_Space0
340
1E
 70
     0
280
     1
281
     0
  0
BLOCK_RECORD
  5
5C
330
1
100
AcDbSymbolTableRecord
100
AcDbBlockTableRecord
  2
block 2
340
0
102
{BLKREFS
331
5D
102
}
 70
     0
280
     1
281
     0
  0
BLOCK_RECORD
  5
62
330
1
100
AcDbSymbolTableRecord
100
AcDbBlockTableRecord
  2
block 3
340
0
102
{BLKREFS
331
63
102
}
 70
     0
280
     1
281
     0
  0
BLOCK_RECORD
  5
68
330
1
100
AcDbSymbolTableRecord
100
AcDbBlockTableRecord
  2
block 4
340
0
102
{BLKREFS
331
69
102
}
 70
     0
280
     1
281
     0
  0
BLOCK_RECORD
  5
6E
330
1
100
AcDbSymbolTableRecord
100
AcDbBlockTableRecord
  2
block 5
340
0
102
{BLKREFS
331
6F
102
}
 70
     0
280
     1
281
     0
  0
BLOCK_RECORD
  5
72
330
1
100
AcDbSymbolTableRecord
100
AcDbBlockTableRecord
  2
block 6
340
0
102
{BLKREFS
331
73
102
}
 70
     0
280
     1
281
     0
  0
BLOCK_RECORD
  5
84
330
1
100
AcDbSymbolTableRecord
100
AcDbBlockTableRecord
  2
block 7
340
0
102
{BLKREFS
331
85
102
}
 70
     0
280
     1
281
     0
  0
BLOCK_RECORD
  5
96
330
1
100
AcDbSymbolTableRecord
100
AcDbBlockTableRecord
  2
block 8
340
0
102
{BLKREFS
331
97
102
}
 70
     0
280
     1
281
     0
  0
BLOCK_RECORD
  5
9A
330
1
100
AcDbSymbolTableRecord
100
AcDbBlockTableRecord
  2
block 9
340
0
102
{BLKREFS
331
9B
102
}
 70
     0
280
     1
281
     0
  0
BLOCK_RECORD
  5
AC
330
1
100
AcDbSymbolTableRecord
100
AcDbBlockTableRecord
  2
block 10
340
0
102
{BLKREFS
331
AD
102
}
 70
     0
280
     1
281
     0
  0
BLOCK_RECORD
  5
BE
330
1
100
AcDbSymbolTableRecord
100
AcDbBlockTableRecord
  2
block 11
340
0
102
{BLKREFS
331
BF
102
}
 70
     0
280
     1
281
     0
  0
BLOCK_RECORD
  5
C2
330
1
100
AcDbSymbolTableRecord
100
AcDbBlockTableRecord
  2
block 12
340
0
102
{BLKREFS
331
C3
102
}
 70
     0
280
     1
281
     0
  0
BLOCK_RECORD
  5
D4
330
1
100
AcDbSymbolTableRecord
100
AcDbBlockTableRecord
  2
block 13
340
0
102
{BLKREFS
331
D5
102
}
 70
     0
280
     1
281
     0
  0
BLOCK_RECORD
  5
E6
330
1
100
AcDbSymbolTableRecord
100
AcDbBlockTableRecord
  2
block 14
340
0
102
{BLKREFS
331
E7
102
}
 70
     0
280
     1
281
     0
  0
BLOCK_RECORD
  5
EA
330
1
100
AcDbSymbolTableRecord
100
AcDbBlockTableRecord
  2
block 15
340
0
102
{BLKREFS
331
EB
102
}
 70
     0
280
     1
281
     0
  0
BLOCK_RECORD
  5
F1
330
1
100
AcDbSymbolTableRecord
100
AcDbBlockTableRecord
  2
block 16
340
0
102
{BLKREFS
331
F2
102
}
 70
     0
280
     1
281
     0
  0
BLOCK_RECORD
  5
F8
330
1
100
AcDbSymbolTableRecord
100
AcDbBlockTableRecord
  2
block 17
340
0
102
{BLKREFS
331
F9
102
}
 70
     0
280
     1
281
     0
  0
BLOCK_RECORD
  5
FC
330
1
100
AcDbSymbolTableRecord
100
AcDbBlockTableRecord
  2
block 18
340
0
102
{BLKREFS
331
FD
102
}
 70
     0
280
     1
281
     0
  0
BLOCK_RECORD
  5
103
330
1
100
AcDbSymbolTableRecord
100
AcDbBlockTableRecord
  2
block 19
340
0
102
{BLKREFS
331
104
102
}
 70
     0
280
     1
281
     0
  0
BLOCK_RECORD
  5
10A
330
1
100
AcDbSymbolTableRecord
100
AcDbBlockTableRecord
  2
block 20
340
0
102
{BLKREFS
331
10B
102
}
 70
     0
280
     1
281
     0
  0
BLOCK_RECORD
  5
10E
330
1
100
AcDbSymbolTableRecord
100
AcDbBlockTableRecord
  2
block 21
340
0
102
{BLKREFS
331
10F
102
}
 70
     0
280
     1
281
     0
  0
BLOCK_RECORD
  5
115
330
1
100
AcDbSymbolTableRecord
100
AcDbBlockTableRecord
  2
block 22
340
0
102
{BLKREFS
331
116
102
}
 70
     0
280
     1
281
     0
  0
ENDTAB
  0
ENDSEC
  0
SECTION
  2
BLOCKS
  0
BLOCK
  5
20
330
1F
100
AcDbEntity
  8
0
100
AcDbBlockBegin
  2
*Model_Space
 70
     0
 10
0.0
 20
0.0
 30
0.0
  3
*Model_Space
  1

  0
ENDBLK
  5
21
330
1F
100
AcDbEntity
  8
0
100
AcDbBlockEnd
  0
BLOCK
  5
24
330
23
100
AcDbEntity
 67
     1
  8
0
100
AcDbBlockBegin
  2
*Paper_Space
 70
     0
 10
0.0
 20
0.0
 30
0.0
  3
*Paper_Space
  1

  0
ENDBLK
  5
25
330
23
100
AcDbEntity
 67
     1
  8
0
100
AcDbBlockEnd
  0
BLOCK
  5
1C
330
1B
100
AcDbEntity
 67
     1
  8
0
100
AcDbBlockBegin
  2
*Paper_Space0
 70
     0
 10
0.0
 20
0.0
 30
0.0
  3
*Paper_Space0
  1

  0
VIEWPORT
  5
153
102
{ACAD_XDICTIONARY
360
154
102
}
330
1B
100
AcDbEntity
 67
     1
  8
0
100
AcDbViewport
 10
5.249999639556165
 20
3.999999883606678
 30
0.0
 40
16.25302690654574
 41
8.992999745766949
 68
     1
 69
     1
 12
5.249999639556165
 22
3.999999883606678
 13
0.0
 23
0.0
 14
10.0
 24
10.0
 15
10.0
 25
10.0
 16
0.0
 26
0.0
 36
1.0
 17
0.0
 27
0.0
 37
0.0
 42
50.0
 43
0.0
 44
0.0
 45
8.992999745766949
 50
0.0
 51
0.0
 72
   100
 90
   819232
  1

281
     0
 71
     1
 74
     0
110
0.0
120
0.0
130
0.0
111
1.0
121
0.0
131
0.0
112
0.0
122
1.0
132
0.0
 79
     0
146
0.0
170
     0
 61
     5
348
2F
292
     1
282
     1
141
0.0
142
0.0
 63
   250
  0
VIEWPORT
  5
158
102
{ACAD_XDICTIONARY
360
159
102
}
330
1B
100
AcDbEntity
 67
     1
  8
0
100
AcDbViewport
 10
5.249999761581421
 20
3.999999761581421
 30
0.0
 40
8.399999618530275
 41
6.399999618530274
 68
     2
 69
     2
 12
0.0770873964717893
 22
25.9043876258532
 13
0.0
 23
0.0
 14
0.5
 24
0.5
 15
0.5
 25
0.5
 16
0.0
 26
0.0
 36
1.0
 17
105.0007777515277
 27
-148.5000416295416
 37
0.0
 42
50.0
 43
0.0
 44
0.0
 45
75.72045036393953
 50
0.0
 51
0.0
 72
   100
 90
   819296
  1

281
     0
 71
     1
 74
     0
110
0.0
120
0.0
130
0.0
111
1.0
121
0.0
131
0.0
112
0.0
122
1.0
132
0.0
 79
     0
146
0.0
170
     0
 61
     5
348
2F
292
     1
282
     1
141
0.0
142
0.0
 63
   250
361
15B
  0
ENDBLK
  5
1D
330
1B
100
AcDbEntity
 67
     1
  8
0
100
AcDbBlockEnd
  0
BLOCK
  5
5E
330
5C
100
AcDbEntity
  8
0
100
AcDbBlockBegin
  2
block 2
 70
     0
 10
0.0
 20
0.0
 30
0.0
  3
block 2
  1

  0
SPLINE
  5
60
330
5C
100
AcDbEntity
  8
Layer 1
 62
    18
420
        0
370
   100
100
AcDbSpline
210
0.0
220
0.0
230
1.0
 70
     8
 71
     3
 72
    26
 73
    22
 74
     0
 42
0.000000001
 43
0.0000000001
 40
0.0
 40
0.0
 40
0.0
 40
0.0
 40
1.0
 40
1.0
 40
1.0
 40
2.0
 40
2.0
 40
2.0
 40
3.0
 40
3.0
 40
3.0
 40
4.0
 40
4.0
 40
4.0
 40
5.0
 40
5.0
 40
5.0
 40
6.0
 40
6.0
 40
6.0
 40
7.0
 40
7.0
 40
7.0
 40
7.0
 10
115.8029846439573
 20
-104.0839703224289
 30
0.0
 10
117.3853425581811
 20
-96.89907249648785
 30
0.0
 10
117.7474151162954
 20
-93.38443692904272
 30
0.0
 10
115.5294780917478
 20
-91.49990274978355
 30
0.0
 10
113.2840538382337
 20
-89.59201325344187
 30
0.0
 10
110.2502071923835
 20
-91.44102026581105
 30
0.0
 10
110.2502071923835
 20
-91.44102026581105
 30
0.0
 10
110.2502071923835
 20
-91.44102026581105
 30
0.0
 10
110.5604334119541
 20
-85.8471843118777
 30
0.0
 10
105.0267245637312
 20
-85.8471843116178
 30
0.0
 10
105.0267245637312
 20
-85.8471843116178
 30
0.0
 10
105.1289943541636
 20
-85.84718431190081
 30
0.0
 10
105.1289943541636
 20
-85.84718431190081
 30
0.0
 10
99.59528550594171
 20
-85.84718431190081
 30
0.0
 10
99.90551172527169
 20
-91.4410202658489
 30
0.0
 10
99.90551172527169
 20
-91.4410202658489
 30
0.0
 10
99.90551172527169
 20
-91.4410202658489
 30
0.0
 10
96.8716650795007
 20
-89.59201325333694
 30
0.0
 10
94.62624082590449
 20
-91.49990274957469
 30
0.0
 10
92.408210747487
 20
-93.38451599456528
 30
0.0
 10
92.77040674536543
 20
-96.89936741289079
 30
0.0
 10
94.35293344358731
 20
-104.0848746710813
 30
0.0
  0
SPLINE
  5
61
330
5C
100
AcDbEntity
  8
Layer 1
 62
    18
420
        0
370
   100
100
AcDbSpline
210
0.0
220
0.0
230
1.0
 70
     8
 71
     3
 72
    26
 73
    22
 74
     0
 42
0.000000001
 43
0.0000000001
 40
0.0
 40
0.0
 40
0.0
 40
0.0
 40
1.0
 40
1.0
 40
1.0
 40
2.0
 40
2.0
 40
2.0
 40
3.0
 40
3.0
 40
3.0
 40
4.0
 40
4.0
 40
4.0
 40
5.0
 40
5.0
 40
5.0
 40
6.0
 40
6.0
 40
6.0
 40
7.0
 40
7.0
 40
7.0
 40
7.0
 10
115.8029846439573
 20
-141.1072719294365
 30
0.0
 10
117.3853425581811
 20
-148.2921697553775
 30
0.0
 10
117.7474151162954
 20
-151.8068053228224
 30
0.0
 10
115.5294780917478
 20
-153.6913395020818
 30
0.0
 10
113.2840538382337
 20
-155.5992289984235
 30
0.0
 10
110.2502071923835
 20
-153.7502219860547
 30
0.0
 10
110.2502071923835
 20
-153.7502219860547
 30
0.0
 10
110.2502071923835
 20
-153.7502219860547
 30
0.0
 10
110.5604334119541
 20
-159.344057939988
 30
0.0
 10
105.0267245637312
 20
-159.3440579402479
 30
0.0
 10
105.0267245637312
 20
-159.3440579402479
 30
0.0
 10
105.1289943541636
 20
-159.3440579399649
 30
0.0
 10
105.1289943541636
 20
-159.3440579399649
 30
0.0
 10
99.59528550594171
 20
-159.3440579399649
 30
0.0
 10
99.90551172527169
 20
-153.7502219860162
 30
0.0
 10
99.90551172527169
 20
-153.7502219860162
 30
0.0
 10
99.90551172527169
 20
-153.7502219860162
 30
0.0
 10
96.8716650795007
 20
-155.5992289985288
 30
0.0
 10
94.62624082590449
 20
-153.6913395022916
 30
0.0
 10
92.39236834016869
 20
-151.7932652988782
 30
0.0
 10
92.77571238997305
 20
-148.2415816139855
 30
0.0
 10
94.38702958139835
 20
-140.9518363535893
 30
0.0
  0
ENDBLK
  5
5F
330
5C
100
AcDbEntity
  8
0
100
AcDbBlockEnd
  0
BLOCK
  5
64
330
62
100
AcDbEntity
  8
0
100
AcDbBlockBegin
  2
block 3
 70
     0
 10
0.0
 20
0.0
 30
0.0
  3
block 3
  1

  0
SPLINE
  5
66
330
62
100
AcDbEntity
  8
Layer 1
 62
    18
420
        0
370
   100
100
AcDbSpline
210
0.0
220
0.0
230
1.0
 70
     8
 71
     3
 72
    26
 73
    22
 74
     0
 42
0.000000001
 43
0.0000000001
 40
0.0
 40
0.0
 40
0.0
 40
0.0
 40
1.0
 40
1.0
 40
1.0
 40
2.0
 40
2.0
 40
2.0
 40
3.0
 40
3.0
 40
3.0
 40
4.0
 40
4.0
 40
4.0
 40
5.0
 40
5.0
 40
5.0
 40
6.0
 40
6.0
 40
6.0
 40
7.0
 40
7.0
 40
7.0
 40
7.0
 10
126.7796828075089
 20
-122.5956788070031
 30
0.0
 10
133.58652181657
 20
-120.4489705604217
 30
0.0
 10
136.7289050699815
 20
-119.0153473557774
 30
0.0
 10
137.2527798279309
 20
-116.1960482796691
 30
0.0
 10
137.7910798276487
 20
-113.2991179182652
 30
0.0
 10
134.6780146778783
 20
-111.5868452251405
 30
0.0
 10
134.6780146778783
 20
-111.5868452251405
 30
0.0
 10
134.6780146778783
 20
-111.5868452251405
 30
0.0
 10
139.6851271642031
 20
-109.0736668518217
 30
0.0
 10
136.9327253595925
 20
-104.2730191952158
 30
0.0
 10
136.9327253595925
 20
-104.2730191952158
 30
0.0
 10
136.9835931522658
 20
-104.3617411074105
 30
0.0
 10
136.9835931522658
 20
-104.3617411074105
 30
0.0
 10
134.2311913474307
 20
-99.56109345093391
 30
0.0
 10
129.5326846189109
 20
-102.6125317198321
 30
0.0
 10
129.5326846189109
 20
-102.6125317198321
 30
0.0
 10
129.5326846189109
 20
-102.6125317198321
 30
0.0
 10
129.6277503718154
 20
-99.06091027252138
 30
0.0
 10
126.8557550558577
 20
-98.06190357744945
 30
0.0
 10
124.1176875727649
 20
-97.07512422345114
 30
0.0
 10
121.2487273653168
 20
-99.13738083909827
 30
0.0
 10
115.8026523512535
 20
-104.0838256039319
 30
0.0
  0
SPLINE
  5
67
330
62
100
AcDbEntity
  8
Layer 1
 62
    18
420
        0
370
   100
100
AcDbSpline
210
0.0
220
0.0
230
1.0
 70
     8
 71
     3
 72
    26
 73
    22
 74
     0
 42
0.000000001
 43
0.0000000001
 40
0.0
 40
0.0
 40
0.0
 40
0.0
 40
1.0
 40
1.0
 40
1.0
 40
2.0
 40
2.0
 40
2.0
 40
3.0
 40
3.0
 40
3.0
 40
4.0
 40
4.0
 40
4.0
 40
5.0
 40
5.0
 40
5.0
 40
6.0
 40
6.0
 40
6.0
 40
7.0
 40
7.0
 40
7.0
 40
7.0
 10
94.49752002676266
 20
-140.9760907709487
 30
0.0
 10
88.95752211160624
 20
-146.0173101275006
 30
0.0
 10
86.06213908577137
 20
-148.1248062805458
 30
0.0
 10
83.2999638618838
 20
-147.1293386744692
 30
0.0
 10
80.52796854587628
 20
-146.1303319795208
 30
0.0
 10
80.62303429861689
 20
-142.5787105322114
 30
0.0
 10
80.62303429861689
 20
-142.5787105322114
 30
0.0
 10
80.62303429861689
 20
-142.5787105322114
 30
0.0
 10
75.9245275702296
 20
-145.6301488013117
 30
0.0
 10
73.17212576516893
 20
-140.8295011449634
 30
0.0
 10
73.17212576516893
 20
-140.8295011449634
 30
0.0
 10
73.22299355833303
 20
-140.9182230568774
 30
0.0
 10
73.22299355833303
 20
-140.9182230568774
 30
0.0
 10
70.47059175349758
 20
-136.1175754004008
 30
0.0
 10
75.47770423971522
 20
-133.6043970268658
 30
0.0
 10
75.47770423971522
 20
-133.6043970268658
 30
0.0
 10
75.47770423971522
 20
-133.6043970268658
 30
0.0
 10
72.36463908986206
 20
-131.8921243338813
 30
0.0
 10
72.9029390894477
 20
-128.9951939724581
 30
0.0
 10
73.42681942425999
 20
-126.1758648830336
 30
0.0
 10
76.56926400639837
 20
-124.7422411679797
 30
0.0
 10
83.37625350070327
 20
-122.5954948850571
 30
0.0
  0
ENDBLK
  5
65
330
62
100
AcDbEntity
  8
0
100
AcDbBlockEnd
  0
BLOCK
  5
6A
330
68
100
AcDbEntity
  8
0
100
AcDbBlockBegin
  2
block 4
 70
     0
 10
0.0
 20
0.0
 30
0.0
  3
block 4
  1

  0
SPLINE
  5
6C
330
68
100
AcDbEntity
  8
Layer 1
 62
    18
420
        0
370
   100
100
AcDbSpline
210
0.0
220
0.0
230
1.0
 70
     8
 71
     3
 72
    26
 73
    22
 74
     0
 42
0.000000001
 43
0.0000000001
 40
0.0
 40
0.0
 40
0.0
 40
0.0
 40
1.0
 40
1.0
 40
1.0
 40
2.0
 40
2.0
 40
2.0
 40
3.0
 40
3.0
 40
3.0
 40
4.0
 40
4.0
 40
4.0
 40
5.0
 40
5.0
 40
5.0
 40
6.0
 40
6.0
 40
6.0
 40
7.0
 40
7.0
 40
7.0
 40
7.0
 10
126.7794654163975
 20
-122.5954948852393
 30
0.0
 10
133.5864549107906
 20
-124.7422411678658
 30
0.0
 10
136.7288994929893
 20
-126.175864882784
 30
0.0
 10
137.2527798279309
 20
-128.9951939721899
 30
0.0
 10
137.7910798276487
 20
-131.8921243335934
 30
0.0
 10
134.6780146778783
 20
-133.6043970267179
 30
0.0
 10
134.6780146778783
 20
-133.6043970267179
 30
0.0
 10
134.6780146778783
 20
-133.6043970267179
 30
0.0
 10
139.6851271642031
 20
-136.117575400037
 30
0.0
 10
136.9327253595925
 20
-140.9182230566435
 30
0.0
 10
136.9327253595925
 20
-140.9182230566435
 30
0.0
 10
136.9835931522658
 20
-140.8295011444482
 30
0.0
 10
136.9835931522658
 20
-140.8295011444482
 30
0.0
 10
134.2311913474307
 20
-145.6301488009251
 30
0.0
 10
129.5326846189109
 20
-142.5787105320269
 30
0.0
 10
129.5326846189109
 20
-142.5787105320269
 30
0.0
 10
129.5326846189109
 20
-142.5787105320269
 30
0.0
 10
129.6277503718154
 20
-146.1303319793373
 30
0.0
 10
126.8557550558577
 20
-147.1293386744092
 30
0.0
 10
124.1176929575638
 20
-148.1161160877659
 30
0.0
 10
121.248738649751
 20
-146.0538695241895
 30
0.0
 10
115.80268448266
 20
-141.1074458315495
 30
0.0
  0
SPLINE
  5
6D
330
68
100
AcDbEntity
  8
Layer 1
 62
    18
420
        0
370
   100
100
AcDbSpline
210
0.0
220
0.0
230
1.0
 70
     8
 71
     3
 72
    26
 73
    22
 74
     0
 42
0.000000001
 43
0.0000000001
 40
0.0
 40
0.0
 40
0.0
 40
0.0
 40
1.0
 40
1.0
 40
1.0
 40
2.0
 40
2.0
 40
2.0
 40
3.0
 40
3.0
 40
3.0
 40
4.0
 40
4.0
 40
4.0
 40
5.0
 40
5.0
 40
5.0
 40
6.0
 40
6.0
 40
6.0
 40
7.0
 40
7.0
 40
7.0
 40
7.0
 10
94.35371991780433
 20
-104.0844190191783
 30
0.0
 10
88.90722100275638
 20
-99.13754577677666
 30
0.0
 10
86.03814083591949
 20
-97.07508476380215
 30
0.0
 10
83.2999638618838
 20
-98.06190357738977
 30
0.0
 10
80.52796854587628
 20
-99.06091027233818
 30
0.0
 10
80.62303429861689
 20
-102.6125317196473
 30
0.0
 10
80.62303429861689
 20
-102.6125317196473
 30
0.0
 10
80.62303429861689
 20
-102.6125317196473
 30
0.0
 10
75.9245275702296
 20
-99.56109345054699
 30
0.0
 10
73.17212576516893
 20
-104.3617411068955
 30
0.0
 10
73.17212576516893
 20
-104.3617411068955
 30
0.0
 10
73.22299355833303
 20
-104.2730191949816
 30
0.0
 10
73.22299355833303
 20
-104.2730191949816
 30
0.0
 10
70.47059175349758
 20
-109.0736668514582
 30
0.0
 10
75.47770423971522
 20
-111.5868452249929
 30
0.0
 10
75.47770423971522
 20
-111.5868452249929
 30
0.0
 10
75.47770423971522
 20
-111.5868452249929
 30
0.0
 10
72.36463908986206
 20
-113.2991179179777
 30
0.0
 10
72.9029390894477
 20
-116.1960482794015
 30
0.0
 10
73.42681942425999
 20
-119.015377368825
 30
0.0
 10
76.56926400639837
 20
-120.4490010838793
 30
0.0
 10
83.37625350070327
 20
-122.5957473668019
 30
0.0
  0
ENDBLK
  5
6B
330
68
100
AcDbEntity
  8
0
100
AcDbBlockEnd
  0
BLOCK
  5
70
330
6E
100
AcDbEntity
  8
0
100
AcDbBlockBegin
  2
block 5
 70
     0
 10
0.0
 20
0.0
 30
0.0
  3
block 5
  1

  0
INSERT
  5
73
330
6E
100
AcDbEntity
  8
Layer 1
100
AcDbBlockReference
  2
block 6
 10
0.0
 20
0.0
 30
0.0
  0
INSERT
  5
85
330
6E
100
AcDbEntity
  8
Layer 1
100
AcDbBlockReference
  2
block 7
 10
0.0
 20
0.0
 30
0.0
  0
ENDBLK
  5
71
330
6E
100
AcDbEntity
  8
0
100
AcDbBlockEnd
  0
BLOCK
  5
74
330
72
100
AcDbEntity
  8
0
100
AcDbBlockBegin
  2
block 6
 70
     0
 10
0.0
 20
0.0
 30
0.0
  3
block 6
  1

  0
POLYLINE
  5
76
330
72
100
AcDbEntity
  8
Layer 1
 62
    18
420
        0
370
   100
100
AcDb2dPolyline
 66
     1
 10
0.0
 20
0.0
 30
0.0
  0
VERTEX
  5
77
330
76
100
AcDbEntity
  8
Layer 1
 62
    18
420
        0
370
   100
100
AcDbVertex
100
AcDb2dVertex
 10
109.3602522814162
 20
-92.39299225075054
 30
0.0
  0
VERTEX
  5
78
330
76
100
AcDbEntity
  8
Layer 1
 62
    18
420
        0
370
   100
100
AcDbVertex
100
AcDb2dVertex
 10
116.4950956865691
 20
-94.87221481517959
 30
0.0
  0
VERTEX
  5
79
330
76
100
AcDbEntity
  8
Layer 1
 62
    18
420
        0
370
   100
100
AcDbVertex
100
AcDb2dVertex
 10
105.2098649819127
 20
-104.5049668290538
 30
0.0
  0
VERTEX
  5
7A
330
76
100
AcDbEntity
  8
Layer 1
 62
    18
420
        0
370
   100
100
AcDbVertex
100
AcDb2dVertex
 10
93.70889501906455
 20
-95.08795407337094
 30
0.0
  0
VERTEX
  5
7B
330
76
100
AcDbEntity
  8
Layer 1
 62
    18
420
        0
370
   100
100
AcDbVertex
100
AcDb2dVertex
 10
100.7674630779992
 20
-92.46926759696847
 30
0.0
  0
VERTEX
  5
7C
330
76
100
AcDbEntity
  8
Layer 1
 62
    18
420
        0
370
   100
100
AcDbVertex
100
AcDb2dVertex
 10
104.9941257237207
 20
-86.38288824059124
 30
0.0
  0
VERTEX
  5
7D
330
76
100
AcDbEntity
  8
Layer 1
 62
    18
420
        0
370
   100
100
AcDbVertex
100
AcDb2dVertex
 10
109.3602522814162
 20
-92.39299225075054
 30
0.0
  0
SEQEND
  5
7E
330
76
100
AcDbEntity
  8
Layer 1
 62
    18
420
        0
370
   100
  0
POLYLINE
  5
7F
330
72
100
AcDbEntity
  8
Layer 1
 62
    18
420
        0
370
   100
100
AcDb2dPolyline
 66
     1
 10
0.0
 20
0.0
 30
0.0
  0
VERTEX
  5
80
330
7F
100
AcDbEntity
  8
Layer 1
 62
    18
420
        0
370
   100
100
AcDbVertex
100
AcDb2dVertex
 10
110.7765426328657
 20
-94.51108910068475
 30
0.0
  0
VERTEX
  5
81
330
7F
100
AcDbEntity
  8
Layer 1
 62
    18
420
        0
370
   100
100
AcDbVertex
100
AcDb2dVertex
 10
105.2098649819127
 20
-99.2626468451516
 30
0.0
  0
VERTEX
  5
82
330
7F
100
AcDbEntity
  8
Layer 1
 62
    18
420
        0
370
   100
100
AcDbVertex
100
AcDb2dVertex
 10
99.29093018302452
 20
-94.41621348507521
 30
0.0
  0
SEQEND
  5
83
330
7F
100
AcDbEntity
  8
Layer 1
 62
    18
420
        0
370
   100
  0
ENDBLK
  5
75
330
72
100
AcDbEntity
  8
0
100
AcDbBlockEnd
  0
BLOCK
  5
86
330
84
100
AcDbEntity
  8
0
100
AcDbBlockBegin
  2
block 7
 70
     0
 10
0.0
 20
0.0
 30
0.0
  3
block 7
  1

  0
POLYLINE
  5
88
330
84
100
AcDbEntity
  8
Layer 1
 62
    18
420
        0
370
   100
100
AcDb2dPolyline
 66
     1
 10
0.0
 20
0.0
 30
0.0
  0
VERTEX
  5
89
330
88
100
AcDbEntity
  8
Layer 1
 62
    18
420
        0
370
   100
100
AcDbVertex
100
AcDb2dVertex
 10
109.3602522814162
 20
-152.7871706629991
 30
0.0
  0
VERTEX
  5
8A
330
88
100
AcDbEntity
  8
Layer 1
 62
    18
420
        0
370
   100
100
AcDbVertex
100
AcDb2dVertex
 10
116.4950956865691
 20
-150.3079480985703
 30
0.0
  0
VERTEX
  5
8B
330
88
100
AcDbEntity
  8
Layer 1
 62
    18
420
        0
370
   100
100
AcDbVertex
100
AcDb2dVertex
 10
105.2098649819127
 20
-140.6751960846962
 30
0.0
  0
VERTEX
  5
8C
330
88
100
AcDbEntity
  8
Layer 1
 62
    18
420
        0
370
   100
100
AcDbVertex
100
AcDb2dVertex
 10
93.70889501906455
 20
-150.0922088403786
 30
0.0
  0
VERTEX
  5
8D
330
88
100
AcDbEntity
  8
Layer 1
 62
    18
420
        0
370
   100
100
AcDbVertex
100
AcDb2dVertex
 10
100.7674630779992
 20
-152.7108953167818
 30
0.0
  0
VERTEX
  5
8E
330
88
100
AcDbEntity
  8
Layer 1
 62
    18
420
        0
370
   100
100
AcDbVertex
100
AcDb2dVertex
 10
104.9941257237207
 20
-158.7972746731584
 30
0.0
  0
VERTEX
  5
8F
330
88
100
AcDbEntity
  8
Layer 1
 62
    18
420
        0
370
   100
100
AcDbVertex
100
AcDb2dVertex
 10
109.3602522814162
 20
-152.7871706629991
 30
0.0
  0
SEQEND
  5
90
330
88
100
AcDbEntity
  8
Layer 1
 62
    18
420
        0
370
   100
  0
POLYLINE
  5
91
330
84
100
AcDbEntity
  8
Layer 1
 62
    18
420
        0
370
   100
100
AcDb2dPolyline
 66
     1
 10
0.0
 20
0.0
 30
0.0
  0
VERTEX
  5
92
330
91
100
AcDbEntity
  8
Layer 1
 62
    18
420
        0
370
   100
100
AcDbVertex
100
AcDb2dVertex
 10
110.7765426328657
 20
-150.6690738130652
 30
0.0
  0
VERTEX
  5
93
330
91
100
AcDbEntity
  8
Layer 1
 62
    18
420
        0
370
   100
100
AcDbVertex
100
AcDb2dVertex
 10
105.2098649819127
 20
-145.917516068598
 30
0.0
  0
VERTEX
  5
94
330
91
100
AcDbEntity
  8
Layer 1
 62
    18
420
        0
370
   100
100
AcDbVertex
100
AcDb2dVertex
 10
99.29093018302452
 20
-150.7639494286744
 30
0.0
  0
SEQEND
  5
95
330
91
100
AcDbEntity
  8
Layer 1
 62
    18
420
        0
370
   100
  0
ENDBLK
  5
87
330
84
100
AcDbEntity
  8
0
100
AcDbBlockEnd
  0
BLOCK
  5
98
330
96
100
AcDbEntity
  8
0
100
AcDbBlockBegin
  2
block 8
 70
     0
 10
0.0
 20
0.0
 30
0.0
  3
block 8
  1

  0
INSERT
  5
9B
330
96
100
AcDbEntity
  8
Layer 1
100
AcDbBlockReference
  2
block 9
 10
0.0
 20
0.0
 30
0.0
  0
INSERT
  5
AD
330
96
100
AcDbEntity
  8
Layer 1
100
AcDbBlockReference
  2
block 10
 10
0.0
 20
0.0
 30
0.0
  0
ENDBLK
  5
99
330
96
100
AcDbEntity
  8
0
100
AcDbBlockEnd
  0
BLOCK
  5
9C
330
9A
100
AcDbEntity
  8
0
100
AcDbBlockBegin
  2
block 9
 70
     0
 10
0.0
 20
0.0
 30
0.0
  3
block 9
  1

  0
POLYLINE
  5
9E
330
9A
100
AcDbEntity
  8
Layer 1
 62
    18
420
        0
370
   100
100
AcDb2dPolyline
 66
     1
 10
0.0
 20
0.0
 30
0.0
  0
VERTEX
  5
9F
330
9E
100
AcDbEntity
  8
Layer 1
 62
    18
420
        0
370
   100
100
AcDbVertex
100
AcDb2dVertex
 10
133.4089651500668
 20
-110.8954464052041
 30
0.0
  0
VERTEX
  5
A0
330
9E
100
AcDbEntity
  8
Layer 1
 62
    18
420
        0
370
   100
100
AcDbVertex
100
AcDb2dVertex
 10
134.8121027912419
 20
-118.3172884743903
 30
0.0
  0
VERTEX
  5
A1
330
9E
100
AcDbEntity
  8
Layer 1
 62
    18
420
        0
370
   100
100
AcDbVertex
100
AcDb2dVertex
 10
120.8388168024227
 20
-113.3279376055102
 30
0.0
  0
VERTEX
  5
A2
330
9E
100
AcDbEntity
  8
Layer 1
 62
    18
420
        0
370
   100
100
AcDbVertex
100
AcDb2dVertex
 10
123.2777277606449
 20
-98.66491770288156
 30
0.0
  0
VERTEX
  5
A3
330
9E
100
AcDbEntity
  8
Layer 1
 62
    18
420
        0
370
   100
100
AcDbVertex
100
AcDb2dVertex
 10
129.0637013146463
 20
-103.4819097037774
 30
0.0
  0
VERTEX
  5
A4
330
9E
100
AcDbEntity
  8
Layer 1
 62
    18
420
        0
370
   100
100
AcDbVertex
100
AcDb2dVertex
 10
136.4465400308183
 20
-104.1162465870409
 30
0.0
  0
VERTEX
  5
A5
330
9E
100
AcDbEntity
  8
Layer 1
 62
    18
420
        0
370
   100
100
AcDbVertex
100
AcDb2dVertex
 10
133.4089651500668
 20
-110.8954464052041
 30
0.0
  0
SEQEND
  5
A6
330
9E
100
AcDbEntity
  8
Layer 1
 62
    18
420
        0
370
   100
  0
POLYLINE
  5
A7
330
9A
100
AcDbEntity
  8
Layer 1
 62
    18
420
        0
370
   100
100
AcDb2dPolyline
 66
     1
 10
0.0
 20
0.0
 30
0.0
  0
VERTEX
  5
A8
330
A7
100
AcDbEntity
  8
Layer 1
 62
    18
420
        0
370
   100
100
AcDbVertex
100
AcDb2dVertex
 10
132.2774852756375
 20
-113.1784194490813
 30
0.0
  0
VERTEX
  5
A9
330
A7
100
AcDbEntity
  8
Layer 1
 62
    18
420
        0
370
   100
100
AcDbVertex
100
AcDb2dVertex
 10
125.3848677598747
 20
-110.7173170842799
 30
0.0
  0
VERTEX
  5
AA
330
A7
100
AcDbEntity
  8
Layer 1
 62
    18
420
        0
370
   100
100
AcDbVertex
100
AcDb2dVertex
 10
126.6400449308993
 20
-103.1710441143635
 30
0.0
  0
SEQEND
  5
AB
330
A7
100
AcDbEntity
  8
Layer 1
 62
    18
420
        0
370
   100
  0
ENDBLK
  5
9D
330
9A
100
AcDbEntity
  8
0
100
AcDbBlockEnd
  0
BLOCK
  5
AE
330
AC
100
AcDbEntity
  8
0
100
AcDbBlockBegin
  2
block 10
 70
     0
 10
0.0
 20
0.0
 30
0.0
  3
block 10
  1

  0
POLYLINE
  5
B0
330
AC
100
AcDbEntity
  8
Layer 1
 62
    18
420
        0
370
   100
100
AcDb2dPolyline
 66
     1
 10
0.0
 20
0.0
 30
0.0
  0
VERTEX
  5
B1
330
B0
100
AcDbEntity
  8
Layer 1
 62
    18
420
        0
370
   100
100
AcDbVertex
100
AcDb2dVertex
 10
81.03615817937004
 20
-140.9711155764892
 30
0.0
  0
VERTEX
  5
B2
330
B0
100
AcDbEntity
  8
Layer 1
 62
    18
420
        0
370
   100
100
AcDbVertex
100
AcDb2dVertex
 10
86.73917531945692
 20
-145.9237038331387
 30
0.0
  0
VERTEX
  5
B3
330
B0
100
AcDbEntity
  8
Layer 1
 62
    18
420
        0
370
   100
100
AcDbVertex
100
AcDb2dVertex
 10
89.47260759661261
 20
-131.3403334612281
 30
0.0
  0
VERTEX
  5
B4
330
B0
100
AcDbEntity
  8
Layer 1
 62
    18
420
        0
370
   100
100
AcDbVertex
100
AcDb2dVertex
 10
75.5789711385118
 20
-126.0564612734142
 30
0.0
  0
VERTEX
  5
B5
330
B0
100
AcDbEntity
  8
Layer 1
 62
    18
420
        0
370
   100
100
AcDbVertex
100
AcDb2dVertex
 10
76.82318371650485
 20
-133.4816102257972
 30
0.0
  0
VERTEX
  5
B6
330
B0
100
AcDbEntity
  8
Layer 1
 62
    18
420
        0
370
   100
100
AcDbVertex
100
AcDb2dVertex
 10
73.65001258000162
 20
-140.1778536300443
 30
0.0
  0
VERTEX
  5
B7
330
B0
100
AcDbEntity
  8
Layer 1
 62
    18
420
        0
370
   100
100
AcDbVertex
100
AcDb2dVertex
 10
81.03615817937004
 20
-140.9711155764892
 30
0.0
  0
SEQEND
  5
B8
330
B0
100
AcDbEntity
  8
Layer 1
 62
    18
420
        0
370
   100
  0
POLYLINE
  5
B9
330
AC
100
AcDbEntity
  8
Layer 1
 62
    18
420
        0
370
   100
100
AcDb2dPolyline
 66
     1
 10
0.0
 20
0.0
 30
0.0
  0
VERTEX
  5
BA
330
B9
100
AcDbEntity
  8
Layer 1
 62
    18
420
        0
370
   100
100
AcDbVertex
100
AcDb2dVertex
 10
83.57823361716359
 20
-141.144508465256
 30
0.0
  0
VERTEX
  5
BB
330
B9
100
AcDbEntity
  8
Layer 1
 62
    18
420
        0
370
   100
100
AcDbVertex
100
AcDb2dVertex
 10
84.9265566391606
 20
-133.9509539824581
 30
0.0
  0
VERTEX
  5
BC
330
B9
100
AcDbEntity
  8
Layer 1
 62
    18
420
        0
370
   100
100
AcDbVertex
100
AcDb2dVertex
 10
77.77624422372102
 20
-131.231627259029
 30
0.0
  0
SEQEND
  5
BD
330
B9
100
AcDbEntity
  8
Layer 1
 62
    18
420
        0
370
   100
  0
ENDBLK
  5
AF
330
AC
100
AcDbEntity
  8
0
100
AcDbBlockEnd
  0
BLOCK
  5
C0
330
BE
100
AcDbEntity
  8
0
100
AcDbBlockBegin
  2
block 11
 70
     0
 10
0.0
 20
0.0
 30
0.0
  3
block 11
  1

  0
INSERT
  5
C3
330
BE
100
AcDbEntity
  8
Layer 1
100
AcDbBlockReference
  2
block 12
 10
0.0
 20
0.0
 30
0.0
  0
INSERT
  5
D5
330
BE
100
AcDbEntity
  8
Layer 1
100
AcDbBlockReference
  2
block 13
 10
0.0
 20
0.0
 30
0.0
  0
ENDBLK
  5
C1
330
BE
100
AcDbEntity
  8
0
100
AcDbBlockEnd
  0
BLOCK
  5
C4
330
C2
100
AcDbEntity
  8
0
100
AcDbBlockBegin
  2
block 12
 70
     0
 10
0.0
 20
0.0
 30
0.0
  3
block 12
  1

  0
POLYLINE
  5
C6
330
C2
100
AcDbEntity
  8
Layer 1
 62
    18
420
        0
370
   100
100
AcDb2dPolyline
 66
     1
 10
0.0
 20
0.0
 30
0.0
  0
VERTEX
  5
C7
330
C6
100
AcDbEntity
  8
Layer 1
 62
    18
420
        0
370
   100
100
AcDbVertex
100
AcDb2dVertex
 10
133.4089651500668
 20
-133.6931751308171
 30
0.0
  0
VERTEX
  5
C8
330
C6
100
AcDbEntity
  8
Layer 1
 62
    18
420
        0
370
   100
100
AcDbVertex
100
AcDb2dVertex
 10
134.8121027912419
 20
-126.2713330616305
 30
0.0
  0
VERTEX
  5
C9
330
C6
100
AcDbEntity
  8
Layer 1
 62
    18
420
        0
370
   100
100
AcDbVertex
100
AcDb2dVertex
 10
120.8388168024227
 20
-131.2606839305106
 30
0.0
  0
VERTEX
  5
CA
330
C6
100
AcDbEntity
  8
Layer 1
 62
    18
420
        0
370
   100
100
AcDbVertex
100
AcDb2dVertex
 10
123.2777277606449
 20
-145.923703833139
 30
0.0
  0
VERTEX
  5
CB
330
C6
100
AcDbEntity
  8
Layer 1
 62
    18
420
        0
370
   100
100
AcDbVertex
100
AcDb2dVertex
 10
129.0637013146463
 20
-141.1067118322428
 30
0.0
  0
VERTEX
  5
CC
330
C6
100
AcDbEntity
  8
Layer 1
 62
    18
420
        0
370
   100
100
AcDbVertex
100
AcDb2dVertex
 10
136.4465400308183
 20
-140.4723749489796
 30
0.0
  0
VERTEX
  5
CD
330
C6
100
AcDbEntity
  8
Layer 1
 62
    18
420
        0
370
   100
100
AcDbVertex
100
AcDb2dVertex
 10
133.4089651500668
 20
-133.6931751308171
 30
0.0
  0
SEQEND
  5
CE
330
C6
100
AcDbEntity
  8
Layer 1
 62
    18
420
        0
370
   100
  0
POLYLINE
  5
CF
330
C2
100
AcDbEntity
  8
Layer 1
 62
    18
420
        0
370
   100
100
AcDb2dPolyline
 66
     1
 10
0.0
 20
0.0
 30
0.0
  0
VERTEX
  5
D0
330
CF
100
AcDbEntity
  8
Layer 1
 62
    18
420
        0
370
   100
100
AcDbVertex
100
AcDb2dVertex
 10
132.2774852756375
 20
-131.4102020869393
 30
0.0
  0
VERTEX
  5
D1
330
CF
100
AcDbEntity
  8
Layer 1
 62
    18
420
        0
370
   100
100
AcDbVertex
100
AcDb2dVertex
 10
125.3848677598747
 20
-133.8713044517406
 30
0.0
  0
VERTEX
  5
D2
330
CF
100
AcDbEntity
  8
Layer 1
 62
    18
420
        0
370
   100
100
AcDbVertex
100
AcDb2dVertex
 10
126.6400449308993
 20
-141.4175774216567
 30
0.0
  0
SEQEND
  5
D3
330
CF
100
AcDbEntity
  8
Layer 1
 62
    18
420
        0
370
   100
  0
ENDBLK
  5
C5
330
C2
100
AcDbEntity
  8
0
100
AcDbBlockEnd
  0
BLOCK
  5
D6
330
D4
100
AcDbEntity
  8
0
100
AcDbBlockBegin
  2
block 13
 70
     0
 10
0.0
 20
0.0
 30
0.0
  3
block 13
  1

  0
POLYLINE
  5
D8
330
D4
100
AcDbEntity
  8
Layer 1
 62
    18
420
        0
370
   100
100
AcDb2dPolyline
 66
     1
 10
0.0
 20
0.0
 30
0.0
  0
VERTEX
  5
D9
330
D8
100
AcDbEntity
  8
Layer 1
 62
    18
420
        0
370
   100
100
AcDbVertex
100
AcDb2dVertex
 10
81.03615817937004
 20
-103.617505959531
 30
0.0
  0
VERTEX
  5
DA
330
D8
100
AcDbEntity
  8
Layer 1
 62
    18
420
        0
370
   100
100
AcDbVertex
100
AcDb2dVertex
 10
86.73917531945692
 20
-98.66491770288156
 30
0.0
  0
VERTEX
  5
DB
330
D8
100
AcDbEntity
  8
Layer 1
 62
    18
420
        0
370
   100
100
AcDbVertex
100
AcDb2dVertex
 10
89.47260759661261
 20
-113.2482880747928
 30
0.0
  0
VERTEX
  5
DC
330
D8
100
AcDbEntity
  8
Layer 1
 62
    18
420
        0
370
   100
100
AcDbVertex
100
AcDb2dVertex
 10
75.5789711385118
 20
-118.5321602626063
 30
0.0
  0
VERTEX
  5
DD
330
D8
100
AcDbEntity
  8
Layer 1
 62
    18
420
        0
370
   100
100
AcDbVertex
100
AcDb2dVertex
 10
76.82318371650485
 20
-111.1070113102233
 30
0.0
  0
VERTEX
  5
DE
330
D8
100
AcDbEntity
  8
Layer 1
 62
    18
420
        0
370
   100
100
AcDbVertex
100
AcDb2dVertex
 10
73.65001258000162
 20
-104.4107679059763
 30
0.0
  0
VERTEX
  5
DF
330
D8
100
AcDbEntity
  8
Layer 1
 62
    18
420
        0
370
   100
100
AcDbVertex
100
AcDb2dVertex
 10
81.03615817937004
 20
-103.617505959531
 30
0.0
  0
SEQEND
  5
E0
330
D8
100
AcDbEntity
  8
Layer 1
 62
    18
420
        0
370
   100
  0
POLYLINE
  5
E1
330
D4
100
AcDbEntity
  8
Layer 1
 62
    18
420
        0
370
   100
100
AcDb2dPolyline
 66
     1
 10
0.0
 20
0.0
 30
0.0
  0
VERTEX
  5
E2
330
E1
100
AcDbEntity
  8
Layer 1
 62
    18
420
        0
370
   100
100
AcDbVertex
100
AcDb2dVertex
 10
83.57823361716359
 20
-103.4441130707642
 30
0.0
  0
VERTEX
  5
E3
330
E1
100
AcDbEntity
  8
Layer 1
 62
    18
420
        0
370
   100
100
AcDbVertex
100
AcDb2dVertex
 10
84.9265566391606
 20
-110.6376675535625
 30
0.0
  0
VERTEX
  5
E4
330
E1
100
AcDbEntity
  8
Layer 1
 62
    18
420
        0
370
   100
100
AcDbVertex
100
AcDb2dVertex
 10
77.77624422372102
 20
-113.3569942769915
 30
0.0
  0
SEQEND
  5
E5
330
E1
100
AcDbEntity
  8
Layer 1
 62
    18
420
        0
370
   100
  0
ENDBLK
  5
D7
330
D4
100
AcDbEntity
  8
0
100
AcDbBlockEnd
  0
BLOCK
  5
E8
330
E6
100
AcDbEntity
  8
0
100
AcDbBlockBegin
  2
block 14
 70
     0
 10
0.0
 20
0.0
 30
0.0
  3
block 14
  1

  0
INSERT
  5
EB
330
E6
100
AcDbEntity
  8
Layer 1
100
AcDbBlockReference
  2
block 15
 10
0.0
 20
0.0
 30
0.0
  0
INSERT
  5
F2
330
E6
100
AcDbEntity
  8
Layer 1
100
AcDbBlockReference
  2
block 16
 10
0.0
 20
0.0
 30
0.0
  0
ENDBLK
  5
E9
330
E6
100
AcDbEntity
  8
0
100
AcDbBlockEnd
  0
BLOCK
  5
EC
330
EA
100
AcDbEntity
  8
0
100
AcDbBlockBegin
  2
block 15
 70
     0
 10
0.0
 20
0.0
 30
0.0
  3
block 15
  1

  0
SPLINE
  5
EE
330
EA
100
AcDbEntity
  8
Layer 1
 62
    18
420
        0
370
   100
100
AcDbSpline
210
0.0
220
0.0
230
1.0
 70
     8
 71
     3
 72
    23
 73
    19
 74
     0
 42
0.000000001
 43
0.0000000001
 40
0.0
 40
0.0
 40
0.0
 40
0.0
 40
1.0
 40
1.0
 40
1.0
 40
2.0
 40
2.0
 40
2.0
 40
3.0
 40
3.0
 40
3.0
 40
4.0
 40
4.0
 40
4.0
 40
5.0
 40
5.0
 40
5.0
 40
6.0
 40
6.0
 40
6.0
 40
6.0
 10
126.8440752167315
 20
-124.1107111998488
 30
0.0
 10
125.3891794852403
 20
-125.2173535416089
 30
0.0
 10
123.4259846408081
 20
-124.2721967012607
 30
0.0
 10
123.4259846408081
 20
-122.777449072683
 30
0.0
 10
123.4259846408081
 20
-121.6563883512496
 30
0.0
 10
124.1011390822861
 20
-120.7475890741239
 30
0.0
 10
125.2679381742823
 20
-120.7475890741239
 30
0.0
 10
126.143037493281
 20
-120.7475890741239
 30
0.0
 10
126.852445657632
 20
-121.4291885319682
 30
0.0
 10
126.852445657632
 20
-122.2699840730434
 30
0.0
 10
126.852445657632
 20
-122.9005807288495
 30
0.0
 10
126.2273658007519
 20
-123.4117803222326
 30
0.0
 10
125.5710413115044
 20
-123.4117803222326
 30
0.0
 10
125.0787979445675
 20
-123.4117803222326
 30
0.0
 10
124.6797558521198
 20
-123.0283806271954
 30
0.0
 10
124.6797558521198
 20
-122.5554331353408
 30
0.0
 10
124.6797558521198
 20
-122.200722516449
 30
0.0
 10
124.9790374214554
 20
-121.9131727451713
 30
0.0
 10
125.3482199466576
 20
-121.9131727451713
 30
0.0
  0
SPLINE
  5
EF
330
EA
100
AcDbEntity
  8
Layer 1
 62
    18
420
        0
370
   100
100
AcDbSpline
210
0.0
220
0.0
230
1.0
 70
     8
 71
     3
 72
    20
 73
    16
 74
     0
 42
0.000000001
 43
0.0000000001
 40
0.0
 40
0.0
 40
0.0
 40
0.0
 40
1.0
 40
1.0
 40
1.0
 40
2.0
 40
2.0
 40
2.0
 40
3.0
 40
3.0
 40
3.0
 40
4.0
 40
4.0
 40
4.0
 40
5.0
 40
5.0
 40
5.0
 40
5.0
 10
120.032685460102
 20
-124.1309826869436
 30
0.0
 10
118.6675886269335
 20
-124.3174305920498
 30
0.0
 10
117.7351653308315
 20
-123.1632979771831
 30
0.0
 10
118.044646873037
 20
-122.1554060781916
 30
0.0
 10
118.2767580296927
 20
-121.3994871539465
 30
0.0
 10
119.0865333702648
 20
-120.9775649154485
 30
0.0
 10
119.853330718877
 20
-121.2130163822627
 30
0.0
 10
120.4284287303352
 20
-121.3896049823737
 30
0.0
 10
120.7288417352842
 20
-122.0727081166719
 30
0.0
 10
120.5547583677945
 20
-122.6396473098542
 30
0.0
 10
120.424195842175
 20
-123.0648517047429
 30
0.0
 10
119.968697213103
 20
-123.3021829638977
 30
0.0
 10
119.5373737045097
 20
-123.1697415138148
 30
0.0
 10
119.0380147444289
 20
-123.0164092157431
 30
0.0
 10
119.0276702437281
 20
-122.1982427086389
 30
0.0
 10
119.5366320618029
 20
-122.2444123389019
 30
0.0
  0
SPLINE
  5
F0
330
EA
100
AcDbEntity
  8
Layer 1
 62
    18
420
        0
370
   100
100
AcDbSpline
210
0.0
220
0.0
230
1.0
 70
     8
 71
     3
 72
    20
 73
    16
 74
     0
 42
0.000000001
 43
0.0000000001
 40
0.0
 40
0.0
 40
0.0
 40
0.0
 40
1.0
 40
1.0
 40
1.0
 40
2.0
 40
2.0
 40
2.0
 40
3.0
 40
3.0
 40
3.0
 40
4.0
 40
4.0
 40
4.0
 40
5.0
 40
5.0
 40
5.0
 40
5.0
 10
112.9154248849847
 20
-124.1652096822466
 30
0.0
 10
111.7657661074659
 20
-123.4059094250879
 30
0.0
 10
111.8249425556848
 20
-121.9233665272973
 30
0.0
 10
112.7218872671951
 20
-121.3691868727531
 30
0.0
 10
113.3945958008307
 20
-120.9535521318443
 30
0.0
 10
114.2817212270565
 20
-121.1697995727087
 30
0.0
 10
114.7033373648436
 20
-121.8521890505149
 30
0.0
 10
115.0195494681831
 20
-122.3639811588694
 30
0.0
 10
114.7953770778149
 20
-123.0757568293071
 30
0.0
 10
114.2908456775897
 20
-123.3874828849884
 30
0.0
 10
113.9124471274196
 20
-123.6212774267497
 30
0.0
 10
113.4134390751671
 20
-123.4996382412635
 30
0.0
 10
113.1762799976624
 20
-123.1157941599977
 30
0.0
 10
112.9017122823475
 20
-122.6714038649294
 30
0.0
 10
113.433069326706
 20
-122.0491795215833
 30
0.0
 10
113.7854758864392
 20
-122.4192921850708
 30
0.0
  0
ENDBLK
  5
ED
330
EA
100
AcDbEntity
  8
0
100
AcDbBlockEnd
  0
BLOCK
  5
F3
330
F1
100
AcDbEntity
  8
0
100
AcDbBlockBegin
  2
block 16
 70
     0
 10
0.0
 20
0.0
 30
0.0
  3
block 16
  1

  0
SPLINE
  5
F5
330
F1
100
AcDbEntity
  8
Layer 1
 62
    18
420
        0
370
   100
100
AcDbSpline
210
0.0
220
0.0
230
1.0
 70
     8
 71
     3
 72
    23
 73
    19
 74
     0
 42
0.000000001
 43
0.0000000001
 40
0.0
 40
0.0
 40
0.0
 40
0.0
 40
1.0
 40
1.0
 40
1.0
 40
2.0
 40
2.0
 40
2.0
 40
3.0
 40
3.0
 40
3.0
 40
4.0
 40
4.0
 40
4.0
 40
5.0
 40
5.0
 40
5.0
 40
6.0
 40
6.0
 40
6.0
 40
6.0
 10
83.19689295646588
 20
-124.110711199517
 30
0.0
 10
84.65178868790802
 20
-125.2173535413426
 30
0.0
 10
86.61498353238194
 20
-124.2721967010826
 30
0.0
 10
86.61498353244898
 20
-122.7774490725046
 30
0.0
 10
86.61498353250001
 20
-121.6563883510709
 30
0.0
 10
85.93982909106301
 20
-120.747589073915
 30
0.0
 10
84.77302999906678
 20
-120.7475890738627
 30
0.0
 10
83.89793068006785
 20
-120.7475890738233
 30
0.0
 10
83.18852251568603
 20
-121.4291885316364
 30
0.0
 10
83.18852251564784
 20
-122.269984072711
 30
0.0
 10
83.18852251561994
 20
-122.9005807285174
 30
0.0
 10
83.81360237247752
 20
-123.4117803219287
 30
0.0
 10
84.46992686172471
 20
-123.4117803219582
 30
0.0
 10
84.96217022866231
 20
-123.4117803219804
 30
0.0
 10
85.36121232112666
 20
-123.0283806269602
 30
0.0
 10
85.36121232114783
 20
-122.555433135106
 30
0.0
 10
85.36121232116355
 20
-122.2007225162154
 30
0.0
 10
85.06193075184111
 20
-121.9131727449233
 30
0.0
 10
84.69274822663793
 20
-121.9131727449069
 30
0.0
  0
SPLINE
  5
F6
330
F1
100
AcDbEntity
  8
Layer 1
 62
    18
420
        0
370
   100
100
AcDbSpline
210
0.0
220
0.0
230
1.0
 70
     8
 71
     3
 72
    20
 73
    16
 74
     0
 42
0.000000001
 43
0.0000000001
 40
0.0
 40
0.0
 40
0.0
 40
0.0
 40
1.0
 40
1.0
 40
1.0
 40
2.0
 40
2.0
 40
2.0
 40
3.0
 40
3.0
 40
3.0
 40
4.0
 40
4.0
 40
4.0
 40
5.0
 40
5.0
 40
5.0
 40
5.0
 10
90.00828271309506
 20
-124.1309826869173
 30
0.0
 10
91.37337954625555
 20
-124.3174305920855
 30
0.0
 10
92.3058028424092
 20
-123.1632979772605
 30
0.0
 10
91.99632130024857
 20
-122.1554060782548
 30
0.0
 10
91.76421014362729
 20
-121.3994871539991
 30
0.0
 10
90.95443480307341
 20
-120.9775649154652
 30
0.0
 10
90.1876374544509
 20
-121.2130163822451
 30
0.0
 10
89.61253944298407
 20
-121.3896049823304
 30
0.0
 10
89.31212643800455
 20
-122.0727081166147
 30
0.0
 10
89.48620980546964
 20
-122.6396473098048
 30
0.0
 10
89.61677233106952
 20
-123.0648517046993
 30
0.0
 10
90.07227096013092
 20
-123.3021829638746
 30
0.0
 10
90.50359446873098
 20
-123.1697415138112
 30
0.0
 10
91.00295342881755
 20
-123.016409215762
 30
0.0
 10
91.01329792955526
 20
-122.1982427086579
 30
0.0
 10
90.50433611147848
 20
-122.244412338898
 30
0.0
  0
SPLINE
  5
F7
330
F1
100
AcDbEntity
  8
Layer 1
 62
    18
420
        0
370
   100
100
AcDbSpline
210
0.0
220
0.0
230
1.0
 70
     8
 71
     3
 72
    20
 73
    16
 74
     0
 42
0.000000001
 43
0.0000000001
 40
0.0
 40
0.0
 40
0.0
 40
0.0
 40
1.0
 40
1.0
 40
1.0
 40
2.0
 40
2.0
 40
2.0
 40
3.0
 40
3.0
 40
3.0
 40
4.0
 40
4.0
 40
4.0
 40
5.0
 40
5.0
 40
5.0
 40
5.0
 10
97.12554328821042
 20
-124.1652096825398
 30
0.0
 10
98.27520206576416
 20
-123.4059094254334
 30
0.0
 10
98.21602561761201
 20
-121.9233665276403
 30
0.0
 10
97.31908090612613
 20
-121.3691868730553
 30
0.0
 10
96.64637237250881
 20
-120.9535521321161
 30
0.0
 10
95.75924694627273
 20
-121.1697995729406
 30
0.0
 10
95.33763080845579
 20
-121.8521890507279
 30
0.0
 10
95.02141870509321
 20
-122.3639811590684
 30
0.0
 10
95.24559109542929
 20
-123.0757568295163
 30
0.0
 10
95.75012249564073
 20
-123.3874828852197
 30
0.0
 10
96.12852104580021
 20
-123.6212774269986
 30
0.0
 10
96.62752909805789
 20
-123.4996382415346
 30
0.0
 10
96.86468817557987
 20
-123.1157941602798
 30
0.0
 10
97.13925589091532
 20
-122.6714038652236
 30
0.0
 10
96.60789884658472
 20
-122.0491795218538
 30
0.0
 10
96.25549228683491
 20
-122.4192921853256
 30
0.0
  0
ENDBLK
  5
F4
330
F1
100
AcDbEntity
  8
0
100
AcDbBlockEnd
  0
BLOCK
  5
FA
330
F8
100
AcDbEntity
  8
0
100
AcDbBlockBegin
  2
block 17
 70
     0
 10
0.0
 20
0.0
 30
0.0
  3
block 17
  1

  0
INSERT
  5
FD
330
F8
100
AcDbEntity
  8
Layer 1
100
AcDbBlockReference
  2
block 18
 10
0.0
 20
0.0
 30
0.0
  0
INSERT
  5
104
330
F8
100
AcDbEntity
  8
Layer 1
100
AcDbBlockReference
  2
block 19
 10
0.0
 20
0.0
 30
0.0
  0
ENDBLK
  5
FB
330
F8
100
AcDbEntity
  8
0
100
AcDbBlockEnd
  0
BLOCK
  5
FE
330
FC
100
AcDbEntity
  8
0
100
AcDbBlockBegin
  2
block 18
 70
     0
 10
0.0
 20
0.0
 30
0.0
  3
block 18
  1

  0
SPLINE
  5
100
330
FC
100
AcDbEntity
  8
Layer 1
 62
    18
420
        0
370
   100
100
AcDbSpline
210
0.0
220
0.0
230
1.0
 70
     8
 71
     3
 72
    23
 73
    19
 74
     0
 42
0.000000001
 43
0.0000000001
 40
0.0
 40
0.0
 40
0.0
 40
0.0
 40
1.0
 40
1.0
 40
1.0
 40
2.0
 40
2.0
 40
2.0
 40
3.0
 40
3.0
 40
3.0
 40
4.0
 40
4.0
 40
4.0
 40
5.0
 40
5.0
 40
5.0
 40
6.0
 40
6.0
 40
6.0
 40
6.0
 10
114.5629225347625
 20
-142.4449372127371
 30
0.0
 10
112.8827549805213
 20
-141.7249262046524
 30
0.0
 10
112.7369342638012
 20
-139.5509455771779
 30
0.0
 10
114.037313653751
 20
-138.8138676197457
 30
0.0
 10
115.012598196213
 20
-138.2610591516715
 30
0.0
 10
116.1361492720894
 20
-138.4002806509088
 30
0.0
 10
116.7115118784709
 20
-139.4153560137555
 30
0.0
 10
117.1430338332584
 20
-140.1766625358935
 30
0.0
 10
116.8998832441771
 20
-141.1299282677915
 30
0.0
 10
116.1684198373314
 20
-141.5445346188467
 30
0.0
 10
115.6198222821951
 20
-141.8554893821383
 30
0.0
 10
114.8668617301869
 20
-141.5637698955228
 30
0.0
 10
114.5432202640967
 20
-140.9927900039213
 30
0.0
 10
114.3004891645287
 20
-140.5645550852194
 30
0.0
 10
114.4372613708873
 20
-140.0283431110262
 30
0.0
 10
114.8487095372386
 20
-139.7951270385572
 30
0.0
 10
115.1572956620023
 20
-139.620214984206
 30
0.0
 10
115.5550334691155
 20
-139.7387854927612
 30
0.0
 10
115.7370817937909
 20
-140.0599616817879
 30
0.0
  0
SPLINE
  5
101
330
FC
100
AcDbEntity
  8
Layer 1
 62
    18
420
        0
370
   100
100
AcDbSpline
210
0.0
220
0.0
230
1.0
 70
     8
 71
     3
 72
    20
 73
    16
 74
     0
 42
0.000000001
 43
0.0000000001
 40
0.0
 40
0.0
 40
0.0
 40
0.0
 40
1.0
 40
1.0
 40
1.0
 40
2.0
 40
2.0
 40
2.0
 40
3.0
 40
3.0
 40
3.0
 40
4.0
 40
4.0
 40
4.0
 40
5.0
 40
5.0
 40
5.0
 40
5.0
 10
111.1865091679702
 20
-136.5292568523352
 30
0.0
 10
110.3511602604242
 20
-135.4336089216983
 30
0.0
 10
110.8954271263052
 20
-134.0533158823343
 30
0.0
 10
111.9248677130101
 20
-133.8255506886271
 30
0.0
 10
112.6969481530399
 20
-133.6547267933463
 30
0.0
 10
113.4633160102025
 20
-134.1511487761857
 30
0.0
 10
113.6365982310594
 20
-134.9343402208524
 30
0.0
 10
113.7665598967017
 20
-135.5217338043515
 30
0.0
 10
113.3204207490432
 20
-136.119929195973
 30
0.0
 10
112.7413604190224
 20
-136.2480471174335
 30
0.0
 10
112.3070651715056
 20
-136.3441355585291
 30
0.0
 10
111.8759832518509
 20
-136.0648981931818
 30
0.0
 10
111.7785120026187
 20
-135.6243530055572
 30
0.0
 10
111.6656659817463
 20
-135.1143177712672
 30
0.0
 10
112.3723419046529
 20
-134.7018707055423
 30
0.0
 10
112.5831510711095
 20
-135.167416903416
 30
0.0
  0
SPLINE
  5
102
330
FC
100
AcDbEntity
  8
Layer 1
 62
    18
420
        0
370
   100
100
AcDbSpline
210
0.0
220
0.0
230
1.0
 70
     8
 71
     3
 72
    20
 73
    16
 74
     0
 42
0.000000001
 43
0.0000000001
 40
0.0
 40
0.0
 40
0.0
 40
0.0
 40
1.0
 40
1.0
 40
1.0
 40
2.0
 40
2.0
 40
2.0
 40
3.0
 40
3.0
 40
3.0
 40
4.0
 40
4.0
 40
4.0
 40
5.0
 40
5.0
 40
5.0
 40
5.0
 10
107.6471264217832
 20
-130.3543609538342
 30
0.0
 10
107.740781202724
 20
-128.9797770286939
 30
0.0
 10
109.0597235090322
 20
-128.3001988592055
 30
0.0
 10
109.9841350622402
 20
-128.807237502025
 30
0.0
 10
110.6774437271492
 20
-129.1875164841411
 30
0.0
 10
110.9267680109245
 20
-130.065919511833
 30
0.0
 10
110.5410164364281
 20
-130.7692055772691
 30
0.0
 10
110.2517027555563
 20
-131.2966701263468
 30
0.0
 10
109.5219401395426
 20
-131.4526329100475
 30
0.0
 10
109.0019586408633
 20
-131.1674236734617
 30
0.0
 10
108.611972516851
 20
-130.9535167460214
 30
0.0
 10
108.4717276072292
 20
-130.4594150429453
 30
0.0
 10
108.6887128678818
 20
-130.0638166311372
 30
0.0
 10
108.9399246195123
 20
-129.6058179188167
 30
0.0
 10
109.7432570710756
 20
-129.7612541253633
 30
0.0
 10
109.5950475886934
 20
-130.2503427843486
 30
0.0
  0
ENDBLK
  5
FF
330
FC
100
AcDbEntity
  8
0
100
AcDbBlockEnd
  0
BLOCK
  5
105
330
103
100
AcDbEntity
  8
0
100
AcDbBlockBegin
  2
block 19
 70
     0
 10
0.0
 20
0.0
 30
0.0
  3
block 19
  1

  0
SPLINE
  5
107
330
103
100
AcDbEntity
  8
Layer 1
 62
    18
420
        0
370
   100
100
AcDbSpline
210
0.0
220
0.0
230
1.0
 70
     8
 71
     3
 72
    23
 73
    19
 74
     0
 42
0.000000001
 43
0.0000000001
 40
0.0
 40
0.0
 40
0.0
 40
0.0
 40
1.0
 40
1.0
 40
1.0
 40
2.0
 40
2.0
 40
2.0
 40
3.0
 40
3.0
 40
3.0
 40
4.0
 40
4.0
 40
4.0
 40
5.0
 40
5.0
 40
5.0
 40
6.0
 40
6.0
 40
6.0
 40
6.0
 10
93.0399742239242
 20
-104.4733792348273
 30
0.0
 10
92.79465968898952
 20
-106.2847874276542
 30
0.0
 10
94.58498875202852
 20
-107.5266317399978
 30
0.0
 10
95.88536814201104
 20
-106.7895537826241
 30
0.0
 10
96.86065268449906
 20
-106.2367453145934
 30
0.0
 10
97.31835027831973
 20
-105.2012441998855
 30
0.0
 10
96.74298767198342
 20
-104.1861688370122
 30
0.0
 10
96.31146571722997
 20
-103.4248623148555
 30
0.0
 10
95.36867980408571
 20
-103.1438062945345
 30
0.0
 10
94.63721639722011
 20
-103.5584126455563
 30
0.0
 10
94.08861884207157
 20
-103.8693674088235
 30
0.0
 10
93.95212701736635
 20
-104.6652441791478
 30
0.0
 10
94.27576848342985
 20
-105.2362240707634
 30
0.0
 10
94.51849958297865
 20
-105.664458989477
 30
0.0
 10
95.04881665912206
 20
-105.8225530009078
 30
0.0
 10
95.46026482548395
 20
-105.5893369284575
 30
0.0
 10
95.76885095025593
 20
-105.4144248741201
 30
0.0
 10
95.87143010504204
 20
-105.01226589348
 30
0.0
 10
95.68938178038077
 20
-104.6910897044443
 30
0.0
  0
SPLINE
  5
108
330
103
100
AcDbEntity
  8
Layer 1
 62
    18
420
        0
370
   100
100
AcDbSpline
210
0.0
220
0.0
230
1.0
 70
     8
 71
     3
 72
    20
 73
    16
 74
     0
 42
0.000000001
 43
0.0000000001
 40
0.0
 40
0.0
 40
0.0
 40
0.0
 40
1.0
 40
1.0
 40
1.0
 40
2.0
 40
2.0
 40
2.0
 40
3.0
 40
3.0
 40
3.0
 40
4.0
 40
4.0
 40
4.0
 40
5.0
 40
5.0
 40
5.0
 40
5.0
 10
96.38111658748258
 20
-110.4090518215142
 30
0.0
 10
96.89205887479728
 20
-111.6885791421605
 30
0.0
 10
98.35590392953744
 20
-111.9306389519697
 30
0.0
 10
99.08012640636794
 20
-111.1643970129766
 30
0.0
 10
99.62329326399192
 20
-110.58971555873
 30
0.0
 10
99.59104128384442
 20
-109.677183758016
 30
0.0
 10
99.0080895924941
 20
-109.1262001896444
 30
0.0
 10
98.57087582398108
 20
-108.712962513366
 30
0.0
 10
97.82846217507202
 20
-108.788459795066
 30
0.0
 10
97.42108703185587
 20
-109.2194708857496
 30
0.0
 10
97.1155556744415
 20
-109.5427292037636
 30
0.0
 10
97.13369741327499
 20
-110.0560283416651
 30
0.0
 10
97.46160773965906
 20
-110.3659565988744
 30
0.0
 10
97.84124148630251
 20
-110.7247718480671
 30
0.0
 10
98.55811940359949
 20
-110.3303235070468
 30
0.0
 10
98.26697823396992
 20
-109.9103109044225
 30
0.0
  0
SPLINE
  5
109
330
103
100
AcDbEntity
  8
Layer 1
 62
    18
420
        0
370
   100
100
AcDbSpline
210
0.0
220
0.0
230
1.0
 70
     8
 71
     3
 72
    20
 73
    16
 74
     0
 42
0.000000001
 43
0.0000000001
 40
0.0
 40
0.0
 40
0.0
 40
0.0
 40
1.0
 40
1.0
 40
1.0
 40
2.0
 40
2.0
 40
2.0
 40
3.0
 40
3.0
 40
3.0
 40
4.0
 40
4.0
 40
4.0
 40
5.0
 40
5.0
 40
5.0
 40
5.0
 10
99.86094669932491
 20
-116.6177032027754
 30
0.0
 10
101.0884225043037
 20
-117.2434470269077
 30
0.0
 10
102.3490035799656
 20
-116.4609058794295
 30
0.0
 10
102.3888267742902
 20
-115.4073219870831
 30
0.0
 10
102.4186941700335
 20
-114.6171340678205
 30
0.0
 10
101.7931141092554
 20
-113.9519994460371
 30
0.0
 10
100.9915546007412
 20
-113.9217022287942
 30
0.0
 10
100.3903849693557
 20
-113.8989793158615
 30
0.0
 10
99.88170653428069
 20
-114.4449867474232
 30
0.0
 10
99.859305987473
 20
-115.0376276868679
 30
0.0
 10
99.84250557736679
 20
-115.4821083914539
 30
0.0
 10
100.1943943615554
 20
-115.8562466162067
 30
0.0
 10
100.6452715850936
 20
-115.8732888009059
 30
0.0
 10
101.1672685942633
 20
-115.8930191598118
 30
0.0
 10
101.4465640011661
 20
-115.1239304017841
 30
0.0
 10
100.9508027284166
 20
-114.9998557167841
 30
0.0
  0
ENDBLK
  5
106
330
103
100
AcDbEntity
  8
0
100
AcDbBlockEnd
  0
BLOCK
  5
10C
330
10A
100
AcDbEntity
  8
0
100
AcDbBlockBegin
  2
block 20
 70
     0
 10
0.0
 20
0.0
 30
0.0
  3
block 20
  1

  0
INSERT
  5
10F
330
10A
100
AcDbEntity
  8
Layer 1
100
AcDbBlockReference
  2
block 21
 10
0.0
 20
0.0
 30
0.0
  0
INSERT
  5
116
330
10A
100
AcDbEntity
  8
Layer 1
100
AcDbBlockReference
  2
block 22
 10
0.0
 20
0.0
 30
0.0
  0
ENDBLK
  5
10D
330
10A
100
AcDbEntity
  8
0
100
AcDbBlockEnd
  0
BLOCK
  5
110
330
10E
100
AcDbEntity
  8
0
100
AcDbBlockBegin
  2
block 21
 70
     0
 10
0.0
 20
0.0
 30
0.0
  3
block 21
  1

  0
SPLINE
  5
112
330
10E
100
AcDbEntity
  8
Layer 1
 62
    18
420
        0
370
   100
100
AcDbSpline
210
0.0
220
0.0
230
1.0
 70
     8
 71
     3
 72
    23
 73
    19
 74
     0
 42
0.000000001
 43
0.0000000001
 40
0.0
 40
0.0
 40
0.0
 40
0.0
 40
1.0
 40
1.0
 40
1.0
 40
2.0
 40
2.0
 40
2.0
 40
3.0
 40
3.0
 40
3.0
 40
4.0
 40
4.0
 40
4.0
 40
5.0
 40
5.0
 40
5.0
 40
6.0
 40
6.0
 40
6.0
 40
6.0
 10
95.37934613132415
 20
-142.4449372123069
 30
0.0
 10
97.05951368559777
 20
-141.7249262042969
 30
0.0
 10
97.20533440241638
 20
-139.5509455768291
 30
0.0
 10
95.90495501249868
 20
-138.8138676193386
 30
0.0
 10
94.92967047006171
 20
-138.2610591512204
 30
0.0
 10
93.80611939417921
 20
-138.4002806504073
 30
0.0
 10
93.23075678775206
 20
-139.4153560132283
 30
0.0
 10
92.79923483292995
 20
-140.1766625353474
 30
0.0
 10
93.04238542196886
 20
-141.129928267256
 30
0.0
 10
93.77384882879628
 20
-141.544534618344
 30
0.0
 10
94.32244638391823
 20
-141.8554893816606
 30
0.0
 10
95.07540693593924
 20
-141.5637698950787
 30
0.0
 10
95.39904840205535
 20
-140.9927900034914
 30
0.0
 10
95.64177950164202
 20
-140.5645550848003
 30
0.0
 10
95.50500729530813
 20
-140.0283431106014
 30
0.0
 10
95.09355912896706
 20
-139.7951270381138
 30
0.0
 10
94.78497300421176
 20
-139.6202149837488
 30
0.0
 10
94.38723519709276
 20
-139.7387854922859
 30
0.0
 10
94.20518687240322
 20
-140.0599616813047
 30
0.0
  0
SPLINE
  5
113
330
10E
100
AcDbEntity
  8
Layer 1
 62
    18
420
        0
370
   100
100
AcDbSpline
210
0.0
220
0.0
230
1.0
 70
     8
 71
     3
 72
    20
 73
    16
 74
     0
 42
0.000000001
 43
0.0000000001
 40
0.0
 40
0.0
 40
0.0
 40
0.0
 40
1.0
 40
1.0
 40
1.0
 40
2.0
 40
2.0
 40
2.0
 40
3.0
 40
3.0
 40
3.0
 40
4.0
 40
4.0
 40
4.0
 40
5.0
 40
5.0
 40
5.0
 40
5.0
 10
98.75575949838243
 20
-136.5292568520561
 30
0.0
 10
99.5911084059772
 20
-135.4336089214564
 30
0.0
 10
99.04684154015814
 20
-134.0533158820681
 30
0.0
 10
98.01740095346417
 20
-133.8255506883149
 30
0.0
 10
97.24532051344143
 20
-133.6547267929995
 30
0.0
 10
96.47895265625699
 20
-134.1511487758042
 30
0.0
 10
96.30567043536473
 20
-134.9343402204629
 30
0.0
 10
96.17570876969521
 20
-135.5217338039568
 30
0.0
 10
96.62184791732741
 20
-136.1199291955983
 30
0.0
 10
97.20090824734239
 20
-136.2480471170847
 30
0.0
 10
97.63520349485537
 20
-136.3441355581999
 30
0.0
 10
98.06628541452228
 20
-136.0648981928719
 30
0.0
 10
98.16375666377435
 20
-135.6243530052514
 30
0.0
 10
98.27660268466985
 20
-135.1143177709663
 30
0.0
 10
97.56992676178185
 20
-134.7018707052096
 30
0.0
 10
97.35911759530413
 20
-135.1674169030743
 30
0.0
  0
SPLINE
  5
114
330
10E
100
AcDbEntity
  8
Layer 1
 62
    18
420
        0
370
   100
100
AcDbSpline
210
0.0
220
0.0
230
1.0
 70
     8
 71
     3
 72
    20
 73
    16
 74
     0
 42
0.000000001
 43
0.0000000001
 40
0.0
 40
0.0
 40
0.0
 40
0.0
 40
1.0
 40
1.0
 40
1.0
 40
2.0
 40
2.0
 40
2.0
 40
3.0
 40
3.0
 40
3.0
 40
4.0
 40
4.0
 40
4.0
 40
5.0
 40
5.0
 40
5.0
 40
5.0
 10
102.2951422448457
 20
-130.3543609537139
 30
0.0
 10
102.2014874639672
 20
-128.9797770285694
 30
0.0
 10
100.88254515769
 20
-128.3001988590219
 30
0.0
 10
99.95813360445799
 20
-128.8072375018001
 30
0.0
 10
99.26482493953294
 20
-129.187516483885
 30
0.0
 10
99.01550065571811
 20
-130.0659195115657
 30
0.0
 10
99.40125223018313
 20
-130.7692055770192
 30
0.0
 10
99.69056591103157
 20
-131.2966701261097
 30
0.0
 10
100.4203285270378
 20
-131.4526329098431
 30
0.0
 10
100.94031002573
 20
-131.1674236732807
 30
0.0
 10
101.3302961497515
 20
-130.9535167458581
 30
0.0
 10
101.4705410593962
 20
-130.4594150427878
 30
0.0
 10
101.2535557987609
 20
-130.0638166309704
 30
0.0
 10
101.002344047151
 20
-129.6058179186383
 30
0.0
 10
100.1990115955805
 20
-129.7612541251489
 30
0.0
 10
100.3472210779413
 20
-130.2503427841417
 30
0.0
  0
ENDBLK
  5
111
330
10E
100
AcDbEntity
  8
0
100
AcDbBlockEnd
  0
BLOCK
  5
117
330
115
100
AcDbEntity
  8
0
100
AcDbBlockBegin
  2
block 22
 70
     0
 10
0.0
 20
0.0
 30
0.0
  3
block 22
  1

  0
SPLINE
  5
119
330
115
100
AcDbEntity
  8
Layer 1
 62
    18
420
        0
370
   100
100
AcDbSpline
210
0.0
220
0.0
230
1.0
 70
     8
 71
     3
 72
    23
 73
    19
 74
     0
 42
0.000000001
 43
0.0000000001
 40
0.0
 40
0.0
 40
0.0
 40
0.0
 40
1.0
 40
1.0
 40
1.0
 40
2.0
 40
2.0
 40
2.0
 40
3.0
 40
3.0
 40
3.0
 40
4.0
 40
4.0
 40
4.0
 40
5.0
 40
5.0
 40
5.0
 40
6.0
 40
6.0
 40
6.0
 40
6.0
 10
116.9022944438681
 20
-104.4733792353628
 30
0.0
 10
117.1476089787209
 20
-106.2847874282006
 30
0.0
 10
115.3572799156255
 20
-107.5266317404643
 30
0.0
 10
114.0569005256757
 20
-106.7895537830319
 30
0.0
 10
113.0816159832137
 20
-106.2367453149579
 30
0.0
 10
112.6239183894392
 20
-105.2012442002291
 30
0.0
 10
113.1992809958208
 20
-104.1861688373815
 30
0.0
 10
113.6308029506089
 20
-103.4248623152441
 30
0.0
 10
114.5735888637653
 20
-103.1438062949654
 30
0.0
 10
115.3050522706123
 20
-103.5584126460209
 30
0.0
 10
115.8536498257474
 20
-103.8693674093122
 30
0.0
 10
115.9901416504166
 20
-104.6652441796423
 30
0.0
 10
115.6665001843271
 20
-105.2362240712441
 30
0.0
 10
115.4237690847597
 20
-105.6644589899464
 30
0.0
 10
114.893452008609
 20
-105.8225530013532
 30
0.0
 10
114.4820038422576
 20
-105.5893369288845
 30
0.0
 10
114.1734177174934
 20
-105.414424874533
 30
0.0
 10
114.0708385627252
 20
-105.0122658938885
 30
0.0
 10
114.2528868874012
 20
-104.6910897048614
 30
0.0
  0
SPLINE
  5
11A
330
115
100
AcDbEntity
  8
Layer 1
 62
    18
420
        0
370
   100
100
AcDbSpline
210
0.0
220
0.0
230
1.0
 70
     8
 71
     3
 72
    20
 73
    16
 74
     0
 42
0.000000001
 43
0.0000000001
 40
0.0
 40
0.0
 40
0.0
 40
0.0
 40
1.0
 40
1.0
 40
1.0
 40
2.0
 40
2.0
 40
2.0
 40
3.0
 40
3.0
 40
3.0
 40
4.0
 40
4.0
 40
4.0
 40
5.0
 40
5.0
 40
5.0
 40
5.0
 10
113.5611520800431
 20
-110.4090518218995
 30
0.0
 10
113.0502097926706
 20
-111.688579142523
 30
0.0
 10
111.5863647379189
 20
-111.9306389522664
 30
0.0
 10
110.8621422611224
 20
-111.1643970132409
 30
0.0
 10
110.3189754035244
 20
-110.58971555897
 30
0.0
 10
110.3512273837133
 20
-109.6771837582576
 30
0.0
 10
110.9341790750887
 20
-109.1262001899116
 30
0.0
 10
111.3713928436206
 20
-108.7129625136534
 30
0.0
 10
112.1138064925265
 20
-108.7884597953866
 30
0.0
 10
112.5211816357227
 20
-109.2194708860885
 30
0.0
 10
112.826712993122
 20
-109.5427292041158
 30
0.0
 10
112.8085712542661
 20
-110.056028342017
 30
0.0
 10
112.4806609278679
 20
-110.3659565992113
 30
0.0
 10
112.1010271812087
 20
-110.724771848387
 30
0.0
 10
111.3841492639287
 20
-110.3303235073349
 30
0.0
 10
111.6752904335766
 20
-109.9103109047235
 30
0.0
  0
SPLINE
  5
11B
330
115
100
AcDbEntity
  8
Layer 1
 62
    18
420
        0
370
   100
100
AcDbSpline
210
0.0
220
0.0
230
1.0
 70
     8
 71
     3
 72
    20
 73
    16
 74
     0
 42
0.000000001
 43
0.0000000001
 40
0.0
 40
0.0
 40
0.0
 40
0.0
 40
1.0
 40
1.0
 40
1.0
 40
2.0
 40
2.0
 40
2.0
 40
3.0
 40
3.0
 40
3.0
 40
4.0
 40
4.0
 40
4.0
 40
5.0
 40
5.0
 40
5.0
 40
5.0
 10
110.0813219679216
 20
-116.6177032030045
 30
0.0
 10
108.8538461629146
 20
-117.2434470270816
 30
0.0
 10
107.5932650872879
 20
-116.4609058795469
 30
0.0
 10
107.5534418930103
 20
-115.4073219871992
 30
0.0
 10
107.5235744973022
 20
-114.6171340679351
 30
0.0
 10
108.1491545581105
 20
-113.9519994461802
 30
0.0
 10
108.9507140666266
 20
-113.9217022289726
 30
0.0
 10
109.551883698013
 20
-113.8989793160672
 30
0.0
 10
110.0605621330637
 20
-114.4449867476517
 30
0.0
 10
110.0829626798441
 20
-115.0376276870973
 30
0.0
 10
110.0997630899301
 20
-115.4821083916842
 30
0.0
 10
109.7478743057251
 20
-115.856246616421
 30
0.0
 10
109.2969970821866
 20
-115.8732888011
 30
0.0
 10
108.7750000730156
 20
-115.8930191599828
 30
0.0
 10
108.4957046661468
 20
-115.1239304019423
 30
0.0
 10
108.9914659389024
 20
-114.9998557169647
 30
0.0
  0
ENDBLK
  5
118
330
115
100
AcDbEntity
  8
0
100
AcDbBlockEnd
  0
ENDSEC
  0
SECTION
  2
ENTITIES
  0
POLYLINE
  5
44
330
1F
100
AcDbEntity
  8
Layer 1
 62
    18
420
        0
370
   100
100
AcDb2dPolyline
 66
     1
 10
0.0
 20
0.0
 30
0.0
  0
VERTEX
  5
45
330
44
100
AcDbEntity
  8
Layer 1
 62
    18
420
        0
370
   100
100
AcDbVertex
100
AcDb2dVertex
 10
105.1273091331041
 20
-85.65252412454862
 30
0.0
  0
VERTEX
  5
46
330
44
100
AcDbEntity
  8
Layer 1
 62
    18
420
        0
370
   100
100
AcDbVertex
100
AcDb2dVertex
 10
105.1273091331041
 20
-159.5281537074769
 30
0.0
  0
SEQEND
  5
47
330
44
100
AcDbEntity
  8
Layer 1
 62
    18
420
        0
370
   100
  0
POLYLINE
  5
48
330
1F
100
AcDbEntity
  8
Layer 1
 62
    18
420
        0
370
   100
100
AcDb2dPolyline
 66
     1
 10
0.0
 20
0.0
 30
0.0
  0
VERTEX
  5
49
330
48
100
AcDbEntity
  8
Layer 1
 62
    18
420
        0
370
   100
100
AcDbVertex
100
AcDb2dVertex
 10
94.48018364207479
 20
-141.0059557076747
 30
0.0
  0
VERTEX
  5
4A
330
48
100
AcDbEntity
  8
Layer 1
 62
    18
420
        0
370
   100
100
AcDbVertex
100
AcDb2dVertex
 10
115.8692971977548
 20
-104.1224958938467
 30
0.0
  0
SEQEND
  5
4B
330
48
100
AcDbEntity
  8
Layer 1
 62
    18
420
        0
370
   100
  0
POLYLINE
  5
4C
330
1F
100
AcDbEntity
  8
Layer 1
 62
    18
420
        0
370
   100
100
AcDb2dPolyline
 66
     1
 10
0.0
 20
0.0
 30
0.0
  0
VERTEX
  5
4D
330
4C
100
AcDbEntity
  8
Layer 1
 62
    18
420
        0
370
   100
100
AcDbVertex
100
AcDb2dVertex
 10
73.35050957464833
 20
-140.6714734493223
 30
0.0
  0
VERTEX
  5
4E
330
4C
100
AcDbEntity
  8
Layer 1
 62
    18
420
        0
370
   100
100
AcDbVertex
100
AcDb2dVertex
 10
136.9041086915605
 20
-104.159716366445
 30
0.0
  0
SEQEND
  5
4F
330
4C
100
AcDbEntity
  8
Layer 1
 62
    18
420
        0
370
   100
  0
POLYLINE
  5
50
330
1F
100
AcDbEntity
  8
Layer 1
 62
    18
420
        0
370
   100
100
AcDb2dPolyline
 66
     1
 10
0.0
 20
0.0
 30
0.0
  0
VERTEX
  5
51
330
50
100
AcDbEntity
  8
Layer 1
 62
    18
420
        0
370
   100
100
AcDbVertex
100
AcDb2dVertex
 10
82.9360835468784
 20
-122.4155949068876
 30
0.0
  0
VERTEX
  5
52
330
50
100
AcDbEntity
  8
Layer 1
 62
    18
420
        0
370
   100
100
AcDbVertex
100
AcDb2dVertex
 10
127.3471689698302
 20
-122.4155949088813
 30
0.0
  0
SEQEND
  5
53
330
50
100
AcDbEntity
  8
Layer 1
 62
    18
420
        0
370
   100
  0
POLYLINE
  5
54
330
1F
100
AcDbEntity
  8
Layer 1
 62
    18
420
        0
370
   100
100
AcDb2dPolyline
 66
     1
 10
0.0
 20
0.0
 30
0.0
  0
VERTEX
  5
55
330
54
100
AcDbEntity
  8
Layer 1
 62
    18
420
        0
370
   100
100
AcDbVertex
100
AcDb2dVertex
 10
115.9213289358013
 20
-141.0370732085132
 30
0.0
  0
VERTEX
  5
56
330
54
100
AcDbEntity
  8
Layer 1
 62
    18
420
        0
370
   100
100
AcDbVertex
100
AcDb2dVertex
 10
94.26203699912571
 20
-103.6711944924991
 30
0.0
  0
SEQEND
  5
57
330
54
100
AcDbEntity
  8
Layer 1
 62
    18
420
        0
370
   100
  0
POLYLINE
  5
58
330
1F
100
AcDbEntity
  8
Layer 1
 62
    18
420
        0
370
   100
100
AcDb2dPolyline
 66
     1
 10
0.0
 20
0.0
 30
0.0
  0
VERTEX
  5
59
330
58
100
AcDbEntity
  8
Layer 1
 62
    18
420
        0
370
   100
100
AcDbVertex
100
AcDb2dVertex
 10
136.6064094431354
 20
-140.6706624791044
 30
0.0
  0
VERTEX
  5
5A
330
58
100
AcDbEntity
  8
Layer 1
 62
    18
420
        0
370
   100
100
AcDbVertex
100
AcDb2dVertex
 10
73.64820882307309
 20
-104.160527336662
 30
0.0
  0
SEQEND
  5
5B
330
58
100
AcDbEntity
  8
Layer 1
 62
    18
420
        0
370
   100
  0
INSERT
  5
5D
330
1F
100
AcDbEntity
  8
Layer 1
100
AcDbBlockReference
  2
block 2
 10
0.0
 20
0.0
 30
0.0
  0
INSERT
  5
63
330
1F
100
AcDbEntity
  8
Layer 1
100
AcDbBlockReference
  2
block 3
 10
0.0
 20
0.0
 30
0.0
  0
INSERT
  5
69
330
1F
100
AcDbEntity
  8
Layer 1
100
AcDbBlockReference
  2
block 4
 10
0.0
 20
0.0
 30
0.0
  0
INSERT
  5
6F
330
1F
100
AcDbEntity
  8
Layer 1
100
AcDbBlockReference
  2
block 5
 10
0.0
 20
0.0
 30
0.0
  0
INSERT
  5
97
330
1F
100
AcDbEntity
  8
Layer 1
100
AcDbBlockReference
  2
block 8
 10
0.0
 20
0.0
 30
0.0
  0
INSERT
  5
BF
330
1F
100
AcDbEntity
  8
Layer 1
100
AcDbBlockReference
  2
block 11
 10
0.0
 20
0.0
 30
0.0
  0
INSERT
  5
E7
330
1F
100
AcDbEntity
  8
Layer 1
100
AcDbBlockReference
  2
block 14
 10
0.0
 20
0.0
 30
0.0
  0
INSERT
  5
F9
330
1F
100
AcDbEntity
  8
Layer 1
100
AcDbBlockReference
  2
block 17
 10
0.0
 20
0.0
 30
0.0
  0
INSERT
  5
10B
330
1F
100
AcDbEntity
  8
Layer 1
100
AcDbBlockReference
  2
block 20
 10
0.0
 20
0.0
 30
0.0
  0
VIEWPORT
  5
166
102
{ACAD_XDICTIONARY
360
167
102
}
330
23
100
AcDbEntity
 67
     1
  8
0
100
AcDbViewport
 10
5.249999639556165
 20
3.999999883606678
 30
0.0
 40
16.25302690654574
 41
8.992999745766949
 68
     1
 69
     1
 12
5.249999639556165
 22
3.999999883606678
 13
0.0
 23
0.0
 14
10.0
 24
10.0
 15
10.0
 25
10.0
 16
0.0
 26
0.0
 36
1.0
 17
0.0
 27
0.0
 37
0.0
 42
50.0
 43
0.0
 44
0.0
 45
8.992999745766949
 50
0.0
 51
0.0
 72
   100
 90
   819232
  1

281
     0
 71
     1
 74
     0
110
0.0
120
0.0
130
0.0
111
1.0
121
0.0
131
0.0
112
0.0
122
1.0
132
0.0
 79
     0
146
0.0
170
     0
 61
     5
348
2F
292
     1
282
     1
141
0.0
142
0.0
 63
   250
  0
VIEWPORT
  5
16A
102
{ACAD_XDICTIONARY
360
16B
102
}
330
23
100
AcDbEntity
 67
     1
  8
0
100
AcDbViewport
 10
5.249999761581421
 20
3.999999761581421
 30
0.0
 40
8.399999618530275
 41
6.399999618530274
 68
     2
 69
     2
 12
0.0770873964717822
 22
25.9043876258532
 13
0.0
 23
0.0
 14
0.5
 24
0.5
 15
0.5
 25
0.5
 16
0.0
 26
0.0
 36
1.0
 17
105.0007777515277
 27
-148.5000416295416
 37
0.0
 42
50.0
 43
0.0
 44
0.0
 45
75.72045036393953
 50
0.0
 51
0.0
 72
   100
 90
   819296
  1

281
     0
 71
     1
 74
     0
110
0.0
120
0.0
130
0.0
111
1.0
121
0.0
131
0.0
112
0.0
122
1.0
132
0.0
 79
     0
146
0.0
170
     0
 61
     5
348
2F
292
     1
282
     1
141
0.0
142
0.0
 63
   250
361
16D
  0
ENDSEC
  0
SECTION
  2
OBJECTS
  0
DICTIONARY
  5
C
330
0
100
AcDbDictionary
281
     1
  3
ACAD_CIP_PREVIOUS_PRODUCT_INFO
350
146
  3
ACAD_COLOR
350
11E
  3
ACAD_DETAILVIEWSTYLE
350
142
  3
ACAD_GROUP
350
D
  3
ACAD_LAYOUT
350
1A
  3
ACAD_MATERIAL
350
3B
  3
ACAD_MLEADERSTYLE
350
11D
  3
ACAD_MLINESTYLE
350
17
  3
ACAD_PLOTSETTINGS
350
19
  3
ACAD_PLOTSTYLENAME
350
E
  3
ACAD_SCALELIST
350
11F
  3
ACAD_SECTIONVIEWSTYLE
350
140
  3
ACAD_TABLESTYLE
350
11C
  3
ACAD_VISUALSTYLE
350
2A
  3
ACDB_RECOMPOSE_DATA
350
17D
  3
AcDbVariableDictionary
350
175
  0
SUN
  5
3F
330
29
100
AcDbSun
 90
        1
290
     1
 63
     7
421
 16777215
 40
1.0
291
     1
 91
  2455826
 92
 54000000
292
     0
 70
     0
 71
   256
280
     1
  0
DICTIONARY
  5
14A
330
2
100
AcDbDictionary
280
     1
281
     1
  3
ACAD_LAYERSTATES
360
14B
  0
DICTIONARY
  5
154
330
153
100
AcDbDictionary
280
     1
281
     1
  3
ASDK_XREC_ANNOTATION_SCALE_INFO
360
155
  0
DICTIONARY
  5
159
330
158
100
AcDbDictionary
280
     1
281
     1
  3
ASDK_XREC_ANNOTATION_SCALE_INFO
360
15A
  0
SUN
  5
15B
330
158
100
AcDbSun
 90
        1
290
     1
 63
     7
421
 16777215
 40
1.0
291
     1
 91
  2455826
 92
 54000000
292
     0
 70
     0
 71
   256
280
     1
  0
DICTIONARY
  5
167
330
166
100
AcDbDictionary
280
     1
281
     1
  3
ASDK_XREC_ANNOTATION_SCALE_INFO
360
168
  0
DICTIONARY
  5
16B
330
16A
100
AcDbDictionary
280
     1
281
     1
  3
ASDK_XREC_ANNOTATION_SCALE_INFO
360
16C
  0
SUN
  5
16D
330
16A
100
AcDbSun
 90
        1
290
     1
 63
     7
421
 16777215
 40
1.0
291
     1
 91
  2455826
 92
 54000000
292
     0
 70
     0
 71
   256
280
     1
  0
XRECORD
  5
146
102
{ACAD_REACTORS
330
C
102
}
330
C
100
AcDbXrecord
280
     1
300
ACD
300
2018
300
ACD_F_S
  0
DICTIONARY
  5
11E
330
C
100
AcDbDictionary
281
     1
  0
DICTIONARY
  5
142
102
{ACAD_REACTORS
330
C
102
}
330
C
100
AcDbDictionary
281
     1
  3
Imperial24
350
143
  0
DICTIONARY
  5
D
102
{ACAD_REACTORS
330
C
102
}
330
C
100
AcDbDictionary
281
     1
  0
DICTIONARY
  5
1A
102
{ACAD_REACTORS
330
C
102
}
330
C
100
AcDbDictionary
281
     1
  3
Layout1
350
1E
  3
Layout2
350
26
  3
Model
350
22
  0
DICTIONARY
  5
3B
102
{ACAD_REACTORS
330
C
102
}
330
C
100
AcDbDictionary
281
     1
  3
ByBlock
350
3D
  3
ByLayer
350
3C
  3
Global
350
3E
  0
DICTIONARY
  5
11D
102
{ACAD_REACTORS
330
C
102
}
330
C
100
AcDbDictionary
281
     1
  3
Standard
350
120
  0
DICTIONARY
  5
17
102
{ACAD_REACTORS
330
C
102
}
330
C
100
AcDbDictionary
281
     1
  3
Standard
350
121
  0
DICTIONARY
  5
19
102
{ACAD_REACTORS
330
C
102
}
330
C
100
AcDbDictionary
281
     1
  0
ACDBDICTIONARYWDFLT
  5
E
102
{ACAD_REACTORS
330
C
102
}
330
C
100
AcDbDictionary
281
     1
  3
Normal
350
F
100
AcDbDictionaryWithDefault
340
F
  0
DICTIONARY
  5
11F
330
C
100
AcDbDictionary
281
     1
  3
A0
350
12F
  3
A1
350
130
  3
A2
350
131
  3
A3
350
132
  3
A4
350
133
  3
A5
350
134
  3
A6
350
135
  3
A7
350
136
  3
A8
350
137
  3
A9
350
138
  3
B0
350
139
  3
B1
350
13A
  3
B2
350
13B
  3
B3
350
13C
  3
B4
350
13D
  3
B5
350
13E
  3
B6
350
13F
  0
DICTIONARY
  5
140
102
{ACAD_REACTORS
330
C
102
}
330
C
100
AcDbDictionary
281
     1
  3
Imperial24
350
141
  0
DICTIONARY
  5
11C
102
{ACAD_REACTORS
330
C
102
}
330
C
100
AcDbDictionary
281
     1
  3
Standard
350
12E
  0
DICTIONARY
  5
2A
102
{ACAD_REACTORS
330
C
102
}
330
C
100
AcDbDictionary
281
     1
  3
2dWireframe
350
2F
  3
3D Hidden
350
31
  3
3dWireframe
350
30
  3
Basic
350
32
  3
Brighten
350
36
  3
ColorChange
350
3A
  3
Conceptual
350
34
  3
Dim
350
35
  3
EdgeColorOff
350
12D
  3
Facepattern
350
39
  3
Flat
350
2B
  3
FlatWithEdges
350
2C
  3
Gouraud
350
2D
  3
GouraudWithEdges
350
2E
  3
Hidden
350
125
  3
JitterOff
350
12B
  3
Linepattern
350
38
  3
OverhangOff
350
12C
  3
Realistic
350
33
  3
Shaded
350
12A
  3
Shaded with edges
350
129
  3
Shades of Gray
350
126
  3
Sketchy
350
127
  3
Thicken
350
37
  3
Wireframe
350
124
  3
X-Ray
350
128
  0
XRECORD
  5
17D
102
{ACAD_REACTORS
330
C
102
}
330
C
100
AcDbXrecord
280
     1
 90
        1
330
12E
  0
DICTIONARY
  5
175
102
{ACAD_REACTORS
330
C
102
}
330
C
100
AcDbDictionary
281
     1
  3
CANNOSCALE
350
17A
  3
CMLEADERSTYLE
350
177
  3
CTABLESTYLE
350
176
  3
CVIEWDETAILSTYLE
350
178
  3
CVIEWSECTIONSTYLE
350
179
  0
DICTIONARY
  5
14B
102
{ACAD_REACTORS
330
14A
102
}
330
14A
100
AcDbDictionary
281
     1
  0
XRECORD
  5
155
102
{ACAD_REACTORS
330
154
102
}
330
154
100
AcDbXrecord
280
     1
 90
        1
340
12F
  0
XRECORD
  5
15A
102
{ACAD_REACTORS
330
159
102
}
330
159
100
AcDbXrecord
280
     1
 90
        1
340
12F
  0
XRECORD
  5
168
102
{ACAD_REACTORS
330
167
102
}
330
167
100
AcDbXrecord
280
     1
 90
        1
340
12F
  0
XRECORD
  5
16C
102
{ACAD_REACTORS
330
16B
102
}
330
16B
100
AcDbXrecord
280
     1
 90
        1
340
12F
  0
ACDBDETAILVIEWSTYLE
  5
143
102
{ACAD_REACTORS
330
142
102
}
330
142
100
AcDbModelDocViewStyle
 70
     0
  3
Imperial24
290
     0
300
Imperial24
 90
        0
100
AcDbDetailViewStyle
 70
     0
 71
     0
 90
        3
 71
     1
340
11
 62
   256
 40
0.24
340
0
 62
   256
 40
0.24
300

 40
0.36
280
     3
 71
     2
340
16
 90
       25
 62
   256
 71
     3
340
11
 62
   256
 40
0.24
 90
        1
 40
0.75
 90
        1
300
%<\AcVar ViewType \f "%tc1">% %<\AcVar ViewDetailId>%\P %<\AcVar ViewScale \f "%sn">%
 71
     4
340
16
 90
       25
 62
   256
340
16
 90
       25
 62
   256
280
     0
  0
LAYOUT
  5
1E
102
{ACAD_REACTORS
330
1A
102
}
330
1A
100
AcDbPlotSettings
  1

  2

  4
Letter_(8.50_x_11.00_Inches)
  6

 40
6.349999904632568
 41
6.349999904632568
 42
6.350006103515625
 43
6.350006103515625
 44
215.8999938964844
 45
279.3999938964844
 46
0.0
 47
0.0
 48
0.0
 49
0.0
140
0.0
141
0.0
142
1.0
143
1.0
 70
   688
 72
     0
 73
     1
 74
     5
  7

 75
    16
147
1.0
 76
     0
 77
     2
 78
   300
148
0.0
149
0.0
100
AcDbLayout
  1
Layout1
 70
     1
 71
     1
 10
-0.2500002402958907
 20
-0.2499999962453767
 11
10.74999951940822
 21
8.249999763458733
 12
0.0
 22
0.0
 32
0.0
 14
1.049999952316284
 24
0.7999999523162842
 34
0.0
 15
9.449999570846559
 25
7.199999570846558
 35
0.0
146
0.0
 13
0.0
 23
0.0
 33
0.0
 16
1.0
 26
0.0
 36
0.0
 17
0.0
 27
1.0
 37
0.0
 76
     0
330
1B
331
153
1001
ACAD_PSEXT
1000

1000

1000

1000
   ,      .
1070
     0
  0
LAYOUT
  5
26
102
{ACAD_REACTORS
330
1A
102
}
330
1A
100
AcDbPlotSettings
  1

  2

  4
Letter_(8.50_x_11.00_Inches)
  6

 40
6.349999904632568
 41
6.349999904632568
 42
6.350006103515625
 43
6.350006103515625
 44
215.8999938964844
 45
279.3999938964844
 46
0.0
 47
0.0
 48
0.0
 49
0.0
140
0.0
141
0.0
142
1.0
143
1.0
 70
   688
 72
     0
 73
     1
 74
     5
  7

 75
    16
147
1.0
 76
     0
 77
     2
 78
   300
148
0.0
149
0.0
100
AcDbLayout
  1
Layout2
 70
     1
 71
     2
 10
-0.2500002402958907
 20
-0.2499999962453767
 11
10.74999951940822
 21
8.249999763458733
 12
0.0
 22
0.0
 32
0.0
 14
1.049999952316284
 24
0.7999999523162842
 34
0.0
 15
9.449999570846559
 25
7.199999570846558
 35
0.0
146
0.0
 13
0.0
 23
0.0
 33
0.0
 16
1.0
 26
0.0
 36
0.0
 17
0.0
 27
1.0
 37
0.0
 76
     0
330
23
331
166
1001
ACAD_PSEXT
1000

1000

1000

1000
   ,      .
1070
     0
  0
LAYOUT
  5
22
102
{ACAD_REACTORS
330
1A
102
}
330
1A
100
AcDbPlotSettings
  1

  2
none_device
  4

  6

 40
0.0
 41
0.0
 42
0.0
 43
0.0
 44
0.0
 45
0.0
 46
0.0
 47
0.0
 48
0.0
 49
0.0
140
0.0
141
0.0
142
1.0
143
1.0
 70
  1712
 72
     0
 73
     0
 74
     0
  7

 75
     0
147
1.0
 76
     0
 77
     2
 78
   300
148
0.0
149
0.0
100
AcDbLayout
  1
Model
 70
     1
 71
     0
 10
0.0
 20
0.0
 11
12.0
 21
9.0
 12
0.0
 22
0.0
 32
0.0
 14
1.000000000000000E+20
 24
1.000000000000000E+20
 34
1.000000000000000E+20
 15
-1.000000000000000E+20
 25
-1.000000000000000E+20
 35
-1.000000000000000E+20
146
0.0
 13
0.0
 23
0.0
 33
0.0
 16
1.0
 26
0.0
 36
0.0
 17
0.0
 27
1.0
 37
0.0
 76
     0
330
1F
331
29
  0
MATERIAL
  5
3D
102
{ACAD_REACTORS
330
3B
102
}
330
3B
100
AcDbMaterial
  1
ByBlock
  0
MATERIAL
  5
3C
102
{ACAD_REACTORS
330
3B
102
}
330
3B
100
AcDbMaterial
  1
ByLayer
  0
MATERIAL
  5
3E
102
{ACAD_REACTORS
330
3B
102
}
330
3B
100
AcDbMaterial
  1
Global
  0
MLEADERSTYLE
  5
120
102
{ACAD_REACTORS
330
11D
102
}
330
11D
100
AcDbMLeaderStyle
179
     2
170
     2
171
     1
172
     0
 90
        2
 40
0.0
 41
0.0
173
     1
 91
-1056964608
340
14
 92
       -2
290
     1
 42
2.0
291
     1
 43
8.0
  3
Standard
 44
4.0
300

342
11
174
     1
178
     1
175
     1
176
     0
 93
-1056964608
 45
4.0
292
     0
297
     0
 46
4.0
 94
-1056964608
 47
1.0
 49
1.0
140
1.0
293
     1
141
0.0
294
     1
177
     0
142
1.0
295
     0
296
     0
143
3.75
271
     0
272
     9
273
     9
298
     0
  0
MLINESTYLE
  5
121
102
{ACAD_REACTORS
330
17
102
}
330
17
100
AcDbMlineStyle
  2
STANDARD
 70
     0
  3

 62
   256
 51
90.0
 52
90.0
 71
     2
 49
0.5
 62
   256
  6
BYLAYER
 49
-0.5
 62
   256
  6
BYLAYER
  0
ACDBPLACEHOLDER
  5
F
102
{ACAD_REACTORS
330
E
102
}
330
E
  0
SCALE
  5
12F
102
{ACAD_REACTORS
330
11F
102
}
330
11F
100
AcDbScale
 70
     0
300
1:1
140
1.0
141
1.0
290
     1
  0
SCALE
  5
130
102
{ACAD_REACTORS
330
11F
102
}
330
11F
100
AcDbScale
 70
     0
300
1/128" = 1'-0"
140
0.0078125
141
12.0
290
     0
  0
SCALE
  5
131
102
{ACAD_REACTORS
330
11F
102
}
330
11F
100
AcDbScale
 70
     0
300
1/64" = 1'-0"
140
0.015625
141
12.0
290
     0
  0
SCALE
  5
132
102
{ACAD_REACTORS
330
11F
102
}
330
11F
100
AcDbScale
 70
     0
300
1/32" = 1'-0"
140
0.03125
141
12.0
290
     0
  0
SCALE
  5
133
102
{ACAD_REACTORS
330
11F
102
}
330
11F
100
AcDbScale
 70
     0
300
1/16" = 1'-0"
140
0.0625
141
12.0
290
     0
  0
SCALE
  5
134
102
{ACAD_REACTORS
330
11F
102
}
330
11F
100
AcDbScale
 70
     0
300
3/32" = 1'-0"
140
0.09375
141
12.0
290
     0
  0
SCALE
  5
135
102
{ACAD_REACTORS
330
11F
102
}
330
11F
100
AcDbScale
 70
     0
300
1/8" = 1'-0"
140
0.125
141
12.0
290
     0
  0
SCALE
  5
136
102
{ACAD_REACTORS
330
11F
102
}
330
11F
100
AcDbScale
 70
     0
300
3/16" = 1'-0"
140
0.1875
141
12.0
290
     0
  0
SCALE
  5
137
102
{ACAD_REACTORS
330
11F
102
}
330
11F
100
AcDbScale
 70
     0
300
1/4" = 1'-0"
140
0.25
141
12.0
290
     0
  0
SCALE
  5
138
102
{ACAD_REACTORS
330
11F
102
}
330
11F
100
AcDbScale
 70
     0
300
3/8" = 1'-0"
140
0.375
141
12.0
290
     0
  0
SCALE
  5
139
102
{ACAD_REACTORS
330
11F
102
}
330
11F
100
AcDbScale
 70
     0
300
1/2" = 1'-0"
140
0.5
141
12.0
290
     0
  0
SCALE
  5
13A
102
{ACAD_REACTORS
330
11F
102
}
330
11F
100
AcDbScale
 70
     0
300
3/4" = 1'-0"
140
0.75
141
12.0
290
     0
  0
SCALE
  5
13B
102
{ACAD_REACTORS
330
11F
102
}
330
11F
100
AcDbScale
 70
     0
300
1" = 1'-0"
140
1.0
141
12.0
290
     0
  0
SCALE
  5
13C
102
{ACAD_REACTORS
330
11F
102
}
330
11F
100
AcDbScale
 70
     0
300
1-1/2" = 1'-0"
140
1.5
141
12.0
290
     0
  0
SCALE
  5
13D
102
{ACAD_REACTORS
330
11F
102
}
330
11F
100
AcDbScale
 70
     0
300
3" = 1'-0"
140
3.0
141
12.0
290
     0
  0
SCALE
  5
13E
102
{ACAD_REACTORS
330
11F
102
}
330
11F
100
AcDbScale
 70
     0
300
6" = 1'-0"
140
6.0
141
12.0
290
     0
  0
SCALE
  5
13F
102
{ACAD_REACTORS
330
11F
102
}
330
11F
100
AcDbScale
 70
     0
300
1'-0" = 1'-0"
140
12.0
141
12.0
290
     0
  0
ACDBSECTIONVIEWSTYLE
  5
141
102
{ACAD_REACTORS
330
140
102
}
330
140
100
AcDbModelDocViewStyle
 70
     0
  3
Imperial24
290
     0
300
Imperial24
 90
        0
100
AcDbSectionViewStyle
 70
     0
 71
     0
 90
       78
 71
     1
340
11
 62
   256
 40
0.24
340
0
340
0
 62
   256
 40
0.24
300
I, O, Q, S, X, Z
 40
0.48
 90
        3
 40
0.18
 90
        1
 71
     2
340
16
 90
       25
 62
   256
340
16
 90
       50
 62
   256
 40
0.24
 40
0.0
 40
0.24
 71
     3
340
11
 62
   256
 40
0.24
 90
        1
 40
0.75
 90
        1
300
%<\AcVar ViewType \f "%tc1">% %<\AcVar ViewSectionStartId>%-%<\AcVar ViewSectionEndId>%\P %<\AcVar ViewScale \f "%sn">%
 71
     4
 62
   256
 62
   257
300
ANSI31
 40
1.0
 90
        0
290
     0
290
     0
 90
        6
 40
0.0
 40
1.570796326794896
 40
0.2617993877991494
 40
1.308996938995747
 40
-0.2617993877991494
 40
1.832595714594046
  0
TABLESTYLE
  5
12E
102
{ACAD_XDICTIONARY
360
17B
102
}
102
{ACAD_REACTORS
330
11C
102
}
330
11C
100
AcDbTableStyle
280
     0
  3
Standard
 70
     0
 71
     0
 40
0.06
 41
0.06
280
     0
281
     0
  7
Standard
140
0.18
170
     2
 62
     0
 63
     7
283
     0
 90
      512
 91
        0
  1

274
    -2
284
     1
 64
     0
275
    -2
285
     1
 65
     0
276
    -2
286
     1
 66
     0
277
    -2
287
     1
 67
     0
278
    -2
288
     1
 68
     0
279
    -2
289
     1
 69
     0
  7
Standard
140
0.25
170
     5
 62
     0
 63
     7
283
     0
 90
      512
 91
        0
  1

274
    -2
284
     1
 64
     0
275
    -2
285
     1
 65
     0
276
    -2
286
     1
 66
     0
277
    -2
287
     1
 67
     0
278
    -2
288
     1
 68
     0
279
    -2
289
     1
 69
     0
  7
Standard
140
0.18
170
     5
 62
     0
 63
     7
283
     0
 90
      512
 91
        0
  1

274
    -2
284
     1
 64
     0
275
    -2
285
     1
 65
     0
276
    -2
286
     1
 66
     0
277
    -2
287
     1
 67
     0
278
    -2
288
     1
 68
     0
279
    -2
289
     1
 69
     0
  0
VISUALSTYLE
  5
2F
102
{ACAD_REACTORS
330
2A
102
}
330
2A
100
AcDbVisualStyle
  2
2dWireframe
 70
     4
177
     3
291
     0
 70
    58
 90
        0
176
     1
 90
        2
176
     1
 90
        0
176
     1
 90
        0
176
     1
 40
0.6
176
     1
 40
30.0
176
     1
 62
     7
420
 16777215
176
     1
 90
        1
176
     1
 90
        4
176
     1
 62
     7
176
     1
 62
   257
176
     1
 90
        1
176
     1
 90
        1
176
     1
 40
1.0
176
     1
 90
        0
176
     1
 62
   257
176
     1
 40
1.0
176
     1
 90
        1
176
     1
 90
        6
176
     1
 90
        2
176
     1
 62
     7
176
     1
 90
        5
176
     1
 90
        0
176
     1
 90
        0
176
     1
290
     0
176
     1
 90
        1
176
     1
 40
0.0
176
     1
 90
        0
176
     1
290
     1
176
     1
290
     1
176
     1
290
     0
176
     1
290
     0
176
     1
290
     0
176
     1
290
     0
176
     1
290
     0
176
     1
290
     0
176
     1
290
     0
176
     1
 90
       50
176
     1
 40
0.0
176
     1
 40
1.0
176
     1
 90
        0
176
     1
 62
    18
420
        0
176
     1
 90
       50
176
     1
 90
        3
176
     1
 62
     5
420
      255
176
     1
290
     0
176
     1
 90
       50
176
     1
 90
       50
176
     1
 90
       50
176
     1
290
     0
176
     1
 90
       50
176
     1
 62
   256
176
     0
 40
1.0
176
     0
 90
        2
176
     1
  1
strokes_ogs.tif
176
     1
290
     0
176
     1
 40
1.0
176
     1
 40
1.0
176
     1
  0
VISUALSTYLE
  5
31
102
{ACAD_REACTORS
330
2A
102
}
330
2A
100
AcDbVisualStyle
  2
3D Hidden
 70
     6
177
     3
291
     0
 70
    58
 90
        1
176
     1
 90
        2
176
     1
 90
        2
176
     1
 90
        0
176
     1
 40
0.6
176
     1
 40
30.0
176
     1
 62
     7
420
 16777215
176
     1
 90
        2
176
     1
 90
        2
176
     1
 62
     7
176
     1
 62
   257
176
     1
 90
        2
176
     1
 90
        1
176
     1
 40
40.0
176
     1
 90
        0
176
     1
 62
   257
176
     1
 40
1.0
176
     1
 90
        1
176
     1
 90
        6
176
     1
 90
        2
176
     1
 62
     7
176
     1
 90
        3
176
     1
 90
        0
176
     1
 90
        0
176
     1
290
     0
176
     1
 90
        1
176
     1
 40
0.0
176
     1
 90
        0
176
     1
290
     0
176
     1
290
     1
176
     1
290
     1
176
     1
290
     0
176
     1
290
     0
176
     1
290
     0
176
     1
290
     0
176
     1
290
     0
176
     1
290
     0
176
     1
 90
       50
176
     1
 40
0.0
176
     1
 40
1.0
176
     1
 90
        0
176
     1
 62
    18
420
        0
176
     1
 90
       50
176
     1
 90
        3
176
     1
 62
     5
420
      255
176
     1
290
     0
176
     1
 90
       50
176
     1
 90
       50
176
     1
 90
       50
176
     1
290
     0
176
     1
 90
       50
176
     1
 62
   256
176
     0
 40
1.0
176
     0
 90
        2
176
     1
  1
strokes_ogs.tif
176
     1
290
     0
176
     1
 40
1.0
176
     1
 40
1.0
176
     1
  0
VISUALSTYLE
  5
30
102
{ACAD_REACTORS
330
2A
102
}
330
2A
100
AcDbVisualStyle
  2
3dWireframe
 70
     5
177
     3
291
     0
 70
    58
 90
        0
176
     1
 90
        2
176
     1
 90
        0
176
     1
 90
        0
176
     1
 40
0.6
176
     1
 40
30.0
176
     1
 62
     7
420
 16777215
176
     1
 90
        1
176
     1
 90
        4
176
     1
 62
     7
176
     1
 62
   257
176
     1
 90
        1
176
     1
 90
        1
176
     1
 40
1.0
176
     1
 90
        0
176
     1
 62
   257
176
     1
 40
1.0
176
     1
 90
        1
176
     1
 90
        6
176
     1
 90
        2
176
     1
 62
     7
176
     1
 90
        5
176
     1
 90
        0
176
     1
 90
        0
176
     1
290
     0
176
     1
 90
        1
176
     1
 40
0.0
176
     1
 90
        0
176
     1
290
     0
176
     1
290
     1
176
     1
290
     1
176
     1
290
     0
176
     1
290
     0
176
     1
290
     0
176
     1
290
     0
176
     1
290
     0
176
     1
290
     0
176
     1
 90
       50
176
     1
 40
0.0
176
     1
 40
1.0
176
     1
 90
        0
176
     1
 62
    18
420
        0
176
     1
 90
       50
176
     1
 90
        3
176
     1
 62
     5
420
      255
176
     1
290
     0
176
     1
 90
       50
176
     1
 90
       50
176
     1
 90
       50
176
     1
290
     0
176
     1
 90
       50
176
     1
 62
   256
176
     0
 40
1.0
176
     0
 90
        2
176
     1
  1
strokes_ogs.tif
176
     1
290
     0
176
     1
 40
1.0
176
     1
 40
1.0
176
     1
  0
VISUALSTYLE
  5
32
102
{ACAD_REACTORS
330
2A
102
}
330
2A
100
AcDbVisualStyle
  2
Basic
 70
     7
177
     3
291
     1
 70
    58
 90
        1
176
     1
 90
        0
176
     1
 90
        1
176
     1
 90
        0
176
     1
 40
0.6
176
     1
 40
30.0
176
     1
 62
     7
420
 16777215
176
     1
 90
        0
176
     1
 90
        4
176
     1
 62
     7
176
     1
 62
   257
176
     1
 90
        1
176
     1
 90
        1
176
     1
 40
1.0
176
     1
 90
        8
176
     1
 62
     7
176
     1
 40
1.0
176
     1
 90
        1
176
     1
 90
        6
176
     1
 90
        2
176
     1
 62
     7
176
     1
 90
        5
176
     1
 90
        0
176
     1
 90
        0
176
     1
290
     0
176
     1
 90
        1
176
     1
 40
0.0
176
     1
 90
        0
176
     1
290
     0
176
     1
290
     1
176
     1
290
     1
176
     1
290
     0
176
     1
290
     0
176
     1
290
     0
176
     1
290
     0
176
     1
290
     0
176
     1
290
     0
176
     1
 90
       50
176
     1
 40
0.0
176
     1
 40
1.0
176
     1
 90
        0
176
     1
 62
    18
420
        0
176
     1
 90
       50
176
     1
 90
        3
176
     1
 62
     5
420
      255
176
     1
290
     0
176
     1
 90
       50
176
     1
 90
       50
176
     1
 90
       50
176
     1
290
     0
176
     1
 90
       50
176
     1
 62
   256
176
     0
 40
1.0
176
     0
 90
        2
176
     1
  1
strokes_ogs.tif
176
     1
290
     0
176
     1
 40
1.0
176
     1
 40
1.0
176
     1
  0
VISUALSTYLE
  5
36
102
{ACAD_REACTORS
330
2A
102
}
330
2A
100
AcDbVisualStyle
  2
Brighten
 70
    12
177
     3
291
     1
 70
    58
 90
        2
176
     1
 90
        2
176
     1
 90
        0
176
     1
 90
        0
176
     1
 40
0.6
176
     1
 40
30.0
176
     1
 62
     7
420
 16777215
176
     1
 90
        1
176
     1
 90
        4
176
     1
 62
     7
176
     1
 62
   257
176
     1
 90
        1
176
     1
 90
        1
176
     1
 40
1.0
176
     1
 90
        8
176
     1
 62
     7
176
     1
 40
1.0
176
     1
 90
        1
176
     1
 90
        6
176
     1
 90
        2
176
     1
 62
     7
176
     1
 90
        5
176
     1
 90
        0
176
     1
 90
        0
176
     1
290
     0
176
     1
 90
        1
176
     1
 40
50.0
176
     1
 90
        0
176
     1
290
     0
176
     1
290
     1
176
     1
290
     1
176
     1
290
     0
176
     1
290
     0
176
     1
290
     0
176
     1
290
     0
176
     1
290
     0
176
     1
290
     0
176
     1
 90
       50
176
     1
 40
0.0
176
     1
 40
1.0
176
     1
 90
        0
176
     1
 62
    18
420
        0
176
     1
 90
       50
176
     1
 90
        3
176
     1
 62
     5
420
      255
176
     1
290
     0
176
     1
 90
       50
176
     1
 90
       50
176
     1
 90
       50
176
     1
290
     0
176
     1
 90
       50
176
     1
 62
   256
176
     0
 40
1.0
176
     0
 90
        2
176
     1
  1
strokes_ogs.tif
176
     1
290
     0
176
     1
 40
1.0
176
     1
 40
1.0
176
     1
  0
VISUALSTYLE
  5
3A
102
{ACAD_REACTORS
330
2A
102
}
330
2A
100
AcDbVisualStyle
  2
ColorChange
 70
    16
177
     3
291
     1
 70
    58
 90
        2
176
     1
 90
        2
176
     1
 90
        3
176
     1
 90
        0
176
     1
 40
0.6
176
     1
 40
30.0
176
     1
 62
     8
420
  8421504
176
     1
 90
        1
176
     1
 90
        4
176
     1
 62
     7
176
     1
 62
   257
176
     1
 90
        1
176
     1
 90
        1
176
     1
 40
1.0
176
     1
 90
        8
176
     1
 62
     8
420
  8421504
176
     1
 40
1.0
176
     1
 90
        1
176
     1
 90
        6
176
     1
 90
        2
176
     1
 62
     7
176
     1
 90
        5
176
     1
 90
        0
176
     1
 90
        0
176
     1
290
     0
176
     1
 90
        1
176
     1
 40
0.0
176
     1
 90
        0
176
     1
290
     0
176
     1
290
     1
176
     1
290
     1
176
     1
290
     0
176
     1
290
     0
176
     1
290
     0
176
     1
290
     0
176
     1
290
     0
176
     1
290
     0
176
     1
 90
       50
176
     1
 40
0.0
176
     1
 40
1.0
176
     1
 90
        0
176
     1
 62
    18
420
        0
176
     1
 90
       50
176
     1
 90
        3
176
     1
 62
     5
420
      255
176
     1
290
     0
176
     1
 90
       50
176
     1
 90
       50
176
     1
 90
       50
176
     1
290
     0
176
     1
 90
       50
176
     1
 62
   256
176
     0
 40
1.0
176
     0
 90
        2
176
     1
  1
strokes_ogs.tif
176
     1
290
     0
176
     1
 40
1.0
176
     1
 40
1.0
176
     1
  0
VISUALSTYLE
  5
34
102
{ACAD_REACTORS
330
2A
102
}
330
2A
100
AcDbVisualStyle
  2
Conceptual
 70
     9
177
     3
291
     0
 70
    58
 90
        3
176
     1
 90
        2
176
     1
 90
        0
176
     1
 90
        0
176
     1
 40
0.6
176
     1
 40
30.0
176
     1
 62
     7
420
 16777215
176
     1
 90
        2
176
     1
 90
        2
176
     1
 62
     7
176
     1
 62
   257
176
     1
 90
        1
176
     1
 90
        1
176
     1
 40
40.0
176
     1
 90
        8
176
     1
 62
     7
176
     1
 40
1.0
176
     1
 90
        1
176
     1
 90
        6
176
     1
 90
        2
176
     1
 62
     7
176
     1
 90
        3
176
     1
 90
        0
176
     1
 90
        0
176
     1
290
     0
176
     1
 90
        1
176
     1
 40
0.0
176
     1
 90
        0
176
     1
290
     0
176
     1
290
     1
176
     1
290
     1
176
     1
290
     0
176
     1
290
     0
176
     1
290
     0
176
     1
290
     0
176
     1
290
     0
176
     1
290
     0
176
     1
 90
       50
176
     1
 40
0.0
176
     1
 40
1.0
176
     1
 90
        0
176
     1
 62
    18
420
        0
176
     1
 90
       50
176
     1
 90
        3
176
     1
 62
     5
420
      255
176
     1
290
     0
176
     1
 90
       50
176
     1
 90
       50
176
     1
 90
       50
176
     1
290
     0
176
     1
 90
       50
176
     1
 62
   256
176
     0
 40
1.0
176
     0
 90
        2
176
     1
  1
strokes_ogs.tif
176
     1
290
     0
176
     1
 40
1.0
176
     1
 40
1.0
176
     1
  0
VISUALSTYLE
  5
35
102
{ACAD_REACTORS
330
2A
102
}
330
2A
100
AcDbVisualStyle
  2
Dim
 70
    11
177
     3
291
     1
 70
    58
 90
        2
176
     1
 90
        2
176
     1
 90
        0
176
     1
 90
        0
176
     1
 40
0.6
176
     1
 40
30.0
176
     1
 62
     7
420
 16777215
176
     1
 90
        1
176
     1
 90
        4
176
     1
 62
     7
176
     1
 62
   257
176
     1
 90
        1
176
     1
 90
        1
176
     1
 40
1.0
176
     1
 90
        8
176
     1
 62
     7
176
     1
 40
1.0
176
     1
 90
        1
176
     1
 90
        6
176
     1
 90
        2
176
     1
 62
     7
176
     1
 90
        5
176
     1
 90
        0
176
     1
 90
        0
176
     1
290
     0
176
     1
 90
        1
176
     1
 40
-50.0
176
     1
 90
        0
176
     1
290
     0
176
     1
290
     1
176
     1
290
     1
176
     1
290
     0
176
     1
290
     0
176
     1
290
     0
176
     1
290
     0
176
     1
290
     0
176
     1
290
     0
176
     1
 90
       50
176
     1
 40
0.0
176
     1
 40
1.0
176
     1
 90
        0
176
     1
 62
    18
420
        0
176
     1
 90
       50
176
     1
 90
        3
176
     1
 62
     5
420
      255
176
     1
290
     0
176
     1
 90
       50
176
     1
 90
       50
176
     1
 90
       50
176
     1
290
     0
176
     1
 90
       50
176
     1
 62
   256
176
     0
 40
1.0
176
     0
 90
        2
176
     1
  1
strokes_ogs.tif
176
     1
290
     0
176
     1
 40
1.0
176
     1
 40
1.0
176
     1
  0
VISUALSTYLE
  5
12D
102
{ACAD_REACTORS
330
2A
102
}
330
2A
100
AcDbVisualStyle
  2
EdgeColorOff
 70
    22
177
     3
291
     1
 70
    58
 90
        2
176
     0
 90
        2
176
     0
 90
        0
176
     0
 90
        0
176
     0
 40
0.6
176
     0
 40
30.0
176
     0
 62
     7
420
 16777215
176
     0
 90
        1
176
     0
 90
        4
176
     0
 62
     7
176
     0
 62
   257
176
     0
 90
        1
176
     0
 90
        1
176
     0
 40
1.0
176
     0
 90
        8
176
     2
 62
     7
176
     0
 40
1.0
176
     0
 90
        1
176
     0
 90
        6
176
     0
 90
        2
176
     0
 62
     7
176
     0
 90
        5
176
     0
 90
        0
176
     0
 90
        0
176
     0
290
     0
176
     0
 90
        1
176
     0
 40
0.0
176
     0
 90
        0
176
     0
290
     0
176
     1
290
     1
176
     1
290
     1
176
     1
290
     0
176
     1
290
     0
176
     1
290
     0
176
     1
290
     0
176
     1
290
     0
176
     1
290
     0
176
     1
 90
       50
176
     0
 40
0.0
176
     0
 40
1.0
176
     0
 90
        0
176
     0
 62
    18
420
        0
176
     0
 90
       50
176
     0
 90
        3
176
     0
 62
     5
420
      255
176
     0
290
     0
176
     1
 90
       50
176
     0
 90
       50
176
     0
 90
       50
176
     0
290
     0
176
     1
 90
       50
176
     0
 62
   256
176
     0
 40
1.0
176
     0
 90
        2
176
     0
  1
strokes_ogs.tif
176
     0
290
     0
176
     1
 40
1.0
176
     0
 40
1.0
176
     0
  0
VISUALSTYLE
  5
39
102
{ACAD_REACTORS
330
2A
102
}
330
2A
100
AcDbVisualStyle
  2
Facepattern
 70
    15
177
     3
291
     1
 70
    58
 90
        2
176
     1
 90
        2
176
     1
 90
        0
176
     1
 90
        0
176
     1
 40
0.6
176
     1
 40
30.0
176
     1
 62
     7
420
 16777215
176
     1
 90
        1
176
     1
 90
        4
176
     1
 62
     7
176
     1
 62
   257
176
     1
 90
        1
176
     1
 90
        1
176
     1
 40
1.0
176
     1
 90
        8
176
     1
 62
     7
176
     1
 40
1.0
176
     1
 90
        1
176
     1
 90
        6
176
     1
 90
        2
176
     1
 62
     7
176
     1
 90
        5
176
     1
 90
        0
176
     1
 90
        0
176
     1
290
     0
176
     1
 90
        1
176
     1
 40
0.0
176
     1
 90
        0
176
     1
290
     0
176
     1
290
     1
176
     1
290
     1
176
     1
290
     0
176
     1
290
     0
176
     1
290
     0
176
     1
290
     0
176
     1
290
     0
176
     1
290
     0
176
     1
 90
       50
176
     1
 40
0.0
176
     1
 40
1.0
176
     1
 90
        0
176
     1
 62
    18
420
        0
176
     1
 90
       50
176
     1
 90
        3
176
     1
 62
     5
420
      255
176
     1
290
     0
176
     1
 90
       50
176
     1
 90
       50
176
     1
 90
       50
176
     1
290
     0
176
     1
 90
       50
176
     1
 62
   256
176
     0
 40
1.0
176
     0
 90
        2
176
     1
  1
strokes_ogs.tif
176
     1
290
     0
176
     1
 40
1.0
176
     1
 40
1.0
176
     1
  0
VISUALSTYLE
  5
2B
102
{ACAD_REACTORS
330
2A
102
}
330
2A
100
AcDbVisualStyle
  2
Flat
 70
     0
177
     3
291
     1
 70
    58
 90
        2
176
     1
 90
        1
176
     1
 90
        1
176
     1
 90
        2
176
     1
 40
0.6
176
     1
 40
30.0
176
     1
 62
     7
420
 16777215
176
     1
 90
        0
176
     1
 90
        4
176
     1
 62
     7
176
     1
 62
   257
176
     1
 90
        1
176
     1
 90
        1
176
     1
 40
1.0
176
     1
 90
        8
176
     1
 62
     7
176
     1
 40
1.0
176
     1
 90
        1
176
     1
 90
        6
176
     1
 90
        2
176
     1
 62
     7
176
     1
 90
        5
176
     1
 90
        0
176
     1
 90
        0
176
     1
290
     0
176
     1
 90
       13
176
     1
 40
0.0
176
     1
 90
        0
176
     1
290
     0
176
     1
290
     1
176
     1
290
     1
176
     1
290
     0
176
     1
290
     0
176
     1
290
     0
176
     1
290
     0
176
     1
290
     0
176
     1
290
     0
176
     1
 90
       50
176
     1
 40
0.0
176
     1
 40
1.0
176
     1
 90
        0
176
     1
 62
    18
420
        0
176
     1
 90
       50
176
     1
 90
        3
176
     1
 62
     5
420
      255
176
     1
290
     0
176
     1
 90
       50
176
     1
 90
       50
176
     1
 90
       50
176
     1
290
     0
176
     1
 90
       50
176
     1
 62
   256
176
     0
 40
1.0
176
     0
 90
        2
176
     1
  1
strokes_ogs.tif
176
     1
290
     0
176
     1
 40
1.0
176
     1
 40
1.0
176
     1
  0
VISUALSTYLE
  5
2C
102
{ACAD_REACTORS
330
2A
102
}
330
2A
100
AcDbVisualStyle
  2
FlatWithEdges
 70
     1
177
     3
291
     1
 70
    58
 90
        2
176
     1
 90
        1
176
     1
 90
        1
176
     1
 90
        2
176
     1
 40
0.6
176
     1
 40
30.0
176
     1
 62
     7
420
 16777215
176
     1
 90
        1
176
     1
 90
        4
176
     1
 62
     7
176
     1
 62
   257
176
     1
 90
        1
176
     1
 90
        1
176
     1
 40
1.0
176
     1
 90
        0
176
     1
 62
   257
176
     1
 40
1.0
176
     1
 90
        1
176
     1
 90
        6
176
     1
 90
        2
176
     1
 62
     7
176
     1
 90
        5
176
     1
 90
        0
176
     1
 90
        0
176
     1
290
     0
176
     1
 90
       13
176
     1
 40
0.0
176
     1
 90
        0
176
     1
290
     0
176
     1
290
     1
176
     1
290
     1
176
     1
290
     0
176
     1
290
     0
176
     1
290
     0
176
     1
290
     0
176
     1
290
     0
176
     1
290
     0
176
     1
 90
       50
176
     1
 40
0.0
176
     1
 40
1.0
176
     1
 90
        0
176
     1
 62
    18
420
        0
176
     1
 90
       50
176
     1
 90
        3
176
     1
 62
     5
420
      255
176
     1
290
     0
176
     1
 90
       50
176
     1
 90
       50
176
     1
 90
       50
176
     1
290
     0
176
     1
 90
       50
176
     1
 62
   256
176
     0
 40
1.0
176
     0
 90
        2
176
     1
  1
strokes_ogs.tif
176
     1
290
     0
176
     1
 40
1.0
176
     1
 40
1.0
176
     1
  0
VISUALSTYLE
  5
2D
102
{ACAD_REACTORS
330
2A
102
}
330
2A
100
AcDbVisualStyle
  2
Gouraud
 70
     2
177
     3
291
     1
 70
    58
 90
        2
176
     1
 90
        2
176
     1
 90
        1
176
     1
 90
        2
176
     1
 40
0.6
176
     1
 40
30.0
176
     1
 62
     7
420
 16777215
176
     1
 90
        0
176
     1
 90
        4
176
     1
 62
     7
176
     1
 62
   257
176
     1
 90
        1
176
     1
 90
        1
176
     1
 40
1.0
176
     1
 90
        0
176
     1
 62
     7
176
     1
 40
1.0
176
     1
 90
        1
176
     1
 90
        6
176
     1
 90
        2
176
     1
 62
     7
176
     1
 90
        5
176
     1
 90
        0
176
     1
 90
        0
176
     1
290
     0
176
     1
 90
       13
176
     1
 40
0.0
176
     1
 90
        0
176
     1
290
     0
176
     1
290
     1
176
     1
290
     1
176
     1
290
     0
176
     1
290
     0
176
     1
290
     0
176
     1
290
     0
176
     1
290
     0
176
     1
290
     0
176
     1
 90
       50
176
     1
 40
0.0
176
     1
 40
1.0
176
     1
 90
        0
176
     1
 62
    18
420
        0
176
     1
 90
       50
176
     1
 90
        3
176
     1
 62
     5
420
      255
176
     1
290
     0
176
     1
 90
       50
176
     1
 90
       50
176
     1
 90
       50
176
     1
290
     0
176
     1
 90
       50
176
     1
 62
   256
176
     0
 40
1.0
176
     0
 90
        2
176
     1
  1
strokes_ogs.tif
176
     1
290
     0
176
     1
 40
1.0
176
     1
 40
1.0
176
     1
  0
VISUALSTYLE
  5
2E
102
{ACAD_REACTORS
330
2A
102
}
330
2A
100
AcDbVisualStyle
  2
GouraudWithEdges
 70
     3
177
     3
291
     1
 70
    58
 90
        2
176
     1
 90
        2
176
     1
 90
        1
176
     1
 90
        2
176
     1
 40
0.6
176
     1
 40
30.0
176
     1
 62
     7
420
 16777215
176
     1
 90
        1
176
     1
 90
        4
176
     1
 62
     7
176
     1
 62
   257
176
     1
 90
        1
176
     1
 90
        1
176
     1
 40
1.0
176
     1
 90
        0
176
     1
 62
   257
176
     1
 40
1.0
176
     1
 90
        1
176
     1
 90
        6
176
     1
 90
        2
176
     1
 62
     7
176
     1
 90
        5
176
     1
 90
        0
176
     1
 90
        0
176
     1
290
     0
176
     1
 90
       13
176
     1
 40
0.0
176
     1
 90
        0
176
     1
290
     0
176
     1
290
     1
176
     1
290
     1
176
     1
290
     0
176
     1
290
     0
176
     1
290
     0
176
     1
290
     0
176
     1
290
     0
176
     1
290
     0
176
     1
 90
       50
176
     1
 40
0.0
176
     1
 40
1.0
176
     1
 90
        0
176
     1
 62
    18
420
        0
176
     1
 90
       50
176
     1
 90
        3
176
     1
 62
     5
420
      255
176
     1
290
     0
176
     1
 90
       50
176
     1
 90
       50
176
     1
 90
       50
176
     1
290
     0
176
     1
 90
       50
176
     1
 62
   256
176
     0
 40
1.0
176
     0
 90
        2
176
     1
  1
strokes_ogs.tif
176
     1
290
     0
176
     1
 40
1.0
176
     1
 40
1.0
176
     1
  0
VISUALSTYLE
  5
125
102
{ACAD_REACTORS
330
2A
102
}
330
2A
100
AcDbVisualStyle
  2
Hidden
 70
     6
177
     3
291
     0
 70
    58
 90
        1
176
     1
 90
        2
176
     1
 90
        2
176
     1
 90
        0
176
     1
 40
0.6
176
     1
 40
30.0
176
     1
 62
     7
420
 16777215
176
     1
 90
        2
176
     1
 90
        2
176
     1
 62
     7
176
     1
 62
   257
176
     1
 90
        2
176
     1
 90
        1
176
     1
 40
40.0
176
     1
 90
        0
176
     1
 62
   257
176
     1
 40
1.0
176
     1
 90
        1
176
     1
 90
        6
176
     1
 90
        2
176
     1
 62
     7
176
     1
 90
        3
176
     1
 90
        0
176
     1
 90
        0
176
     1
290
     0
176
     1
 90
        1
176
     1
 40
0.0
176
     1
 90
        0
176
     1
290
     0
176
     1
290
     1
176
     1
290
     1
176
     1
290
     0
176
     1
290
     0
176
     1
290
     0
176
     1
290
     0
176
     1
290
     0
176
     1
290
     0
176
     1
 90
       50
176
     1
 40
0.0
176
     1
 40
1.0
176
     1
 90
        0
176
     1
 62
    18
420
        0
176
     1
 90
       50
176
     1
 90
        3
176
     1
 62
     5
420
      255
176
     1
290
     0
176
     1
 90
       50
176
     1
 90
       50
176
     1
 90
       50
176
     1
290
     0
176
     1
 90
       50
176
     1
 62
   256
176
     0
 40
1.0
176
     0
 90
        2
176
     1
  1
strokes_ogs.tif
176
     1
290
     0
176
     1
 40
1.0
176
     1
 40
1.0
176
     1
  0
VISUALSTYLE
  5
12B
102
{ACAD_REACTORS
330
2A
102
}
330
2A
100
AcDbVisualStyle
  2
JitterOff
 70
    20
177
     3
291
     1
 70
    58
 90
        2
176
     0
 90
        2
176
     0
 90
        0
176
     0
 90
        0
176
     0
 40
0.6
176
     0
 40
30.0
176
     0
 62
     7
420
 16777215
176
     0
 90
        1
176
     0
 90
        4
176
     0
 62
     7
176
     0
 62
   257
176
     0
 90
        1
176
     0
 90
        1
176
     0
 40
1.0
176
     0
 90
       10
176
     2
 62
     7
176
     0
 40
1.0
176
     0
 90
        1
176
     0
 90
        6
176
     0
 90
        2
176
     0
 62
     7
176
     0
 90
        5
176
     0
 90
        0
176
     0
 90
        0
176
     0
290
     0
176
     0
 90
        1
176
     0
 40
0.0
176
     0
 90
        0
176
     0
290
     0
176
     1
290
     1
176
     1
290
     1
176
     1
290
     0
176
     1
290
     0
176
     1
290
     0
176
     1
290
     0
176
     1
290
     0
176
     1
290
     0
176
     1
 90
       50
176
     0
 40
0.0
176
     0
 40
1.0
176
     0
 90
        0
176
     0
 62
    18
420
        0
176
     0
 90
       50
176
     0
 90
        3
176
     0
 62
     5
420
      255
176
     0
290
     0
176
     1
 90
       50
176
     0
 90
       50
176
     0
 90
       50
176
     0
290
     0
176
     1
 90
       50
176
     0
 62
   256
176
     0
 40
1.0
176
     0
 90
        2
176
     0
  1
strokes_ogs.tif
176
     0
290
     0
176
     1
 40
1.0
176
     0
 40
1.0
176
     0
  0
VISUALSTYLE
  5
38
102
{ACAD_REACTORS
330
2A
102
}
330
2A
100
AcDbVisualStyle
  2
Linepattern
 70
    14
177
     3
291
     1
 70
    58
 90
        2
176
     1
 90
        2
176
     1
 90
        0
176
     1
 90
        0
176
     1
 40
0.6
176
     1
 40
30.0
176
     1
 62
     7
420
 16777215
176
     1
 90
        1
176
     1
 90
        4
176
     1
 62
     7
176
     1
 62
   257
176
     1
 90
        7
176
     1
 90
        7
176
     1
 40
1.0
176
     1
 90
        8
176
     1
 62
     7
176
     1
 40
1.0
176
     1
 90
        1
176
     1
 90
        6
176
     1
 90
        2
176
     1
 62
     7
176
     1
 90
        5
176
     1
 90
        0
176
     1
 90
        0
176
     1
290
     0
176
     1
 90
        1
176
     1
 40
0.0
176
     1
 90
        0
176
     1
290
     0
176
     1
290
     1
176
     1
290
     1
176
     1
290
     0
176
     1
290
     0
176
     1
290
     0
176
     1
290
     0
176
     1
290
     0
176
     1
290
     0
176
     1
 90
       50
176
     1
 40
0.0
176
     1
 40
1.0
176
     1
 90
        0
176
     1
 62
    18
420
        0
176
     1
 90
       50
176
     1
 90
        3
176
     1
 62
     5
420
      255
176
     1
290
     0
176
     1
 90
       50
176
     1
 90
       50
176
     1
 90
       50
176
     1
290
     0
176
     1
 90
       50
176
     1
 62
   256
176
     0
 40
1.0
176
     0
 90
        2
176
     1
  1
strokes_ogs.tif
176
     1
290
     0
176
     1
 40
1.0
176
     1
 40
1.0
176
     1
  0
VISUALSTYLE
  5
12C
102
{ACAD_REACTORS
330
2A
102
}
330
2A
100
AcDbVisualStyle
  2
OverhangOff
 70
    21
177
     3
291
     1
 70
    58
 90
        2
176
     0
 90
        2
176
     0
 90
        0
176
     0
 90
        0
176
     0
 40
0.6
176
     0
 40
30.0
176
     0
 62
     7
420
 16777215
176
     0
 90
        1
176
     0
 90
        4
176
     0
 62
     7
176
     0
 62
   257
176
     0
 90
        1
176
     0
 90
        1
176
     0
 40
1.0
176
     0
 90
        9
176
     2
 62
     7
176
     0
 40
1.0
176
     0
 90
        1
176
     0
 90
        6
176
     0
 90
        2
176
     0
 62
     7
176
     0
 90
        5
176
     0
 90
        0
176
     0
 90
        0
176
     0
290
     0
176
     0
 90
        1
176
     0
 40
0.0
176
     0
 90
        0
176
     0
290
     0
176
     1
290
     1
176
     1
290
     1
176
     1
290
     0
176
     1
290
     0
176
     1
290
     0
176
     1
290
     0
176
     1
290
     0
176
     1
290
     0
176
     1
 90
       50
176
     0
 40
0.0
176
     0
 40
1.0
176
     0
 90
        0
176
     0
 62
    18
420
        0
176
     0
 90
       50
176
     0
 90
        3
176
     0
 62
     5
420
      255
176
     0
290
     0
176
     1
 90
       50
176
     0
 90
       50
176
     0
 90
       50
176
     0
290
     0
176
     1
 90
       50
176
     0
 62
   256
176
     0
 40
1.0
176
     0
 90
        2
176
     0
  1
strokes_ogs.tif
176
     0
290
     0
176
     1
 40
1.0
176
     0
 40
1.0
176
     0
  0
VISUALSTYLE
  5
33
102
{ACAD_REACTORS
330
2A
102
}
330
2A
100
AcDbVisualStyle
  2
Realistic
 70
     8
177
     3
291
     0
 70
    58
 90
        2
176
     1
 90
        2
176
     1
 90
        0
176
     1
 90
        0
176
     1
 40
0.6
176
     1
 40
30.0
176
     1
 62
     7
420
 16777215
176
     1
 90
        1
176
     1
 90
        0
176
     1
 62
     7
176
     1
 62
   257
176
     1
 90
        1
176
     1
 90
        1
176
     1
 40
1.0
176
     1
 90
        8
176
     1
 62
     8
420
  7895160
176
     1
 40
1.0
176
     1
 90
        1
176
     1
 90
        6
176
     1
 90
        2
176
     1
 62
     7
176
     1
 90
        5
176
     1
 90
        0
176
     1
 90
        0
176
     1
290
     0
176
     1
 90
       13
176
     1
 40
0.0
176
     1
 90
        0
176
     1
290
     0
176
     1
290
     1
176
     1
290
     1
176
     1
290
     0
176
     1
290
     0
176
     1
290
     0
176
     1
290
     0
176
     1
290
     0
176
     1
290
     0
176
     1
 90
       50
176
     1
 40
0.0
176
     1
 40
1.0
176
     1
 90
        0
176
     1
 62
    18
420
        0
176
     1
 90
       50
176
     1
 90
        3
176
     1
 62
     5
420
      255
176
     1
290
     0
176
     1
 90
       50
176
     1
 90
       50
176
     1
 90
       50
176
     1
290
     0
176
     1
 90
       50
176
     1
 62
   256
176
     0
 40
1.0
176
     0
 90
        2
176
     1
  1
strokes_ogs.tif
176
     1
290
     0
176
     1
 40
1.0
176
     1
 40
1.0
176
     1
  0
VISUALSTYLE
  5
12A
102
{ACAD_REACTORS
330
2A
102
}
330
2A
100
AcDbVisualStyle
  2
Shaded
 70
    27
177
     3
291
     0
 70
    58
 90
        2
176
     1
 90
        2
176
     1
 90
        1
176
     1
 90
        2
176
     1
 40
0.6
176
     1
 40
30.0
176
     1
 62
     7
420
 16777215
176
     1
 90
        0
176
     1
 90
        4
176
     1
 62
     7
176
     1
 62
   257
176
     1
 90
        1
176
     1
 90
        1
176
     1
 40
1.0
176
     1
 90
        8
176
     1
 62
   257
176
     1
 40
1.0
176
     1
 90
        1
176
     1
 90
        6
176
     1
 90
        2
176
     1
 62
     8
420
  7895160
176
     1
 90
        3
176
     1
 90
        0
176
     1
 90
        0
176
     1
290
     0
176
     1
 90
        5
176
     1
 40
0.0
176
     1
 90
        0
176
     1
290
     0
176
     1
290
     1
176
     1
290
     1
176
     1
290
     0
176
     1
290
     0
176
     1
290
     0
176
     1
290
     0
176
     1
290
     0
176
     1
290
     0
176
     1
 90
       50
176
     1
 40
0.0
176
     1
 40
1.0
176
     1
 90
        0
176
     1
 62
    18
420
        0
176
     1
 90
       50
176
     1
 90
        3
176
     1
 62
     5
420
      255
176
     1
290
     0
176
     1
 90
       50
176
     1
 90
       50
176
     1
 90
       50
176
     1
290
     0
176
     1
 90
       50
176
     1
 62
   256
176
     0
 40
1.0
176
     0
 90
        2
176
     1
  1
strokes_ogs.tif
176
     1
290
     0
176
     1
 40
1.0
176
     1
 40
1.0
176
     1
  0
VISUALSTYLE
  5
129
102
{ACAD_REACTORS
330
2A
102
}
330
2A
100
AcDbVisualStyle
  2
Shaded with edges
 70
    26
177
     3
291
     0
 70
    58
 90
        2
176
     1
 90
        2
176
     1
 90
        1
176
     1
 90
        2
176
     1
 40
0.6
176
     1
 40
30.0
176
     1
 62
     7
420
 16777215
176
     1
 90
        1
176
     1
 90
        2
176
     1
 62
     7
176
     1
 62
   257
176
     1
 90
        2
176
     1
 90
        1
176
     1
 40
1.0
176
     1
 90
        8
176
     1
 62
   257
176
     1
 40
1.0
176
     1
 90
        1
176
     1
 90
        6
176
     1
 90
        2
176
     1
 62
     7
176
     1
 90
        3
176
     1
 90
        0
176
     1
 90
        0
176
     1
290
     0
176
     1
 90
        5
176
     1
 40
0.0
176
     1
 90
        0
176
     1
290
     0
176
     1
290
     1
176
     1
290
     1
176
     1
290
     0
176
     1
290
     0
176
     1
290
     0
176
     1
290
     0
176
     1
290
     0
176
     1
290
     0
176
     1
 90
       50
176
     1
 40
0.0
176
     1
 40
1.0
176
     1
 90
        0
176
     1
 62
    18
420
        0
176
     1
 90
       50
176
     1
 90
        3
176
     1
 62
     5
420
      255
176
     1
290
     0
176
     1
 90
       50
176
     1
 90
       50
176
     1
 90
       50
176
     1
290
     0
176
     1
 90
       50
176
     1
 62
   256
176
     0
 40
1.0
176
     0
 90
        2
176
     1
  1
strokes_ogs.tif
176
     1
290
     0
176
     1
 40
1.0
176
     1
 40
1.0
176
     1
  0
VISUALSTYLE
  5
126
102
{ACAD_REACTORS
330
2A
102
}
330
2A
100
AcDbVisualStyle
  2
Shades of Gray
 70
    23
177
     3
291
     0
 70
    58
 90
        2
176
     1
 90
        2
176
     1
 90
        3
176
     1
 90
        0
176
     1
 40
0.6
176
     1
 40
30.0
176
     1
 62
     7
420
 16777215
176
     1
 90
        2
176
     1
 90
        2
176
     1
 62
     7
176
     1
 62
     7
176
     1
 90
        1
176
     1
 90
        1
176
     1
 40
40.0
176
     1
 90
        8
176
     1
 62
     7
176
     1
 40
1.0
176
     1
 90
        1
176
     1
 90
        6
176
     1
 90
        2
176
     1
 62
     7
176
     1
 90
        3
176
     1
 90
        0
176
     1
 90
        0
176
     1
290
     0
176
     1
 90
        1
176
     1
 40
0.0
176
     1
 90
        0
176
     1
290
     0
176
     1
290
     1
176
     1
290
     1
176
     1
290
     0
176
     1
290
     0
176
     1
290
     0
176
     1
290
     0
176
     1
290
     0
176
     1
290
     0
176
     1
 90
       50
176
     1
 40
0.0
176
     1
 40
1.0
176
     1
 90
        0
176
     1
 62
    18
420
        0
176
     1
 90
       50
176
     1
 90
        3
176
     1
 62
     5
420
      255
176
     1
290
     0
176
     1
 90
       50
176
     1
 90
       50
176
     1
 90
       50
176
     1
290
     0
176
     1
 90
       50
176
     1
 62
   256
176
     0
 40
1.0
176
     0
 90
        2
176
     1
  1
strokes_ogs.tif
176
     1
290
     0
176
     1
 40
1.0
176
     1
 40
1.0
176
     1
  0
VISUALSTYLE
  5
127
102
{ACAD_REACTORS
330
2A
102
}
330
2A
100
AcDbVisualStyle
  2
Sketchy
 70
    24
177
     3
291
     0
 70
    58
 90
        1
176
     1
 90
        2
176
     1
 90
        2
176
     1
 90
        0
176
     1
 40
0.6
176
     1
 40
30.0
176
     1
 62
     7
420
 16777215
176
     1
 90
        2
176
     1
 90
        2
176
     1
 62
     7
176
     1
 62
     7
176
     1
 90
        1
176
     1
 90
        1
176
     1
 40
40.0
176
     1
 90
       11
176
     1
 62
     7
176
     1
 40
1.0
176
     1
 90
        1
176
     1
 90
        6
176
     1
 90
        2
176
     1
 62
     7
176
     1
 90
        6
176
     1
 90
        0
176
     1
 90
        0
176
     1
290
     0
176
     1
 90
        1
176
     1
 40
0.0
176
     1
 90
        0
176
     1
290
     0
176
     1
290
     1
176
     1
290
     1
176
     1
290
     0
176
     1
290
     0
176
     1
290
     0
176
     1
290
     0
176
     1
290
     0
176
     1
290
     0
176
     1
 90
       50
176
     1
 40
0.0
176
     1
 40
1.0
176
     1
 90
        0
176
     1
 62
    18
420
        0
176
     1
 90
       50
176
     1
 90
        3
176
     1
 62
     5
420
      255
176
     1
290
     0
176
     1
 90
       50
176
     1
 90
       50
176
     1
 90
       50
176
     1
290
     0
176
     1
 90
       50
176
     1
 62
   256
176
     0
 40
1.0
176
     0
 90
        2
176
     1
  1
strokes_ogs.tif
176
     1
290
     0
176
     1
 40
1.0
176
     1
 40
1.0
176
     1
  0
VISUALSTYLE
  5
37
102
{ACAD_REACTORS
330
2A
102
}
330
2A
100
AcDbVisualStyle
  2
Thicken
 70
    13
177
     3
291
     1
 70
    58
 90
        2
176
     1
 90
        2
176
     1
 90
        0
176
     1
 90
        0
176
     1
 40
0.6
176
     1
 40
30.0
176
     1
 62
     7
420
 16777215
176
     1
 90
        1
176
     1
 90
        4
176
     1
 62
     7
176
     1
 62
   257
176
     1
 90
        1
176
     1
 90
        1
176
     1
 40
1.0
176
     1
 90
       12
176
     1
 62
     7
176
     1
 40
1.0
176
     1
 90
        1
176
     1
 90
        6
176
     1
 90
        2
176
     1
 62
     7
176
     1
 90
        5
176
     1
 90
        0
176
     1
 90
        0
176
     1
290
     0
176
     1
 90
        1
176
     1
 40
0.0
176
     1
 90
        0
176
     1
290
     0
176
     1
290
     1
176
     1
290
     1
176
     1
290
     0
176
     1
290
     0
176
     1
290
     0
176
     1
290
     0
176
     1
290
     0
176
     1
290
     0
176
     1
 90
       50
176
     1
 40
0.0
176
     1
 40
1.0
176
     1
 90
        0
176
     1
 62
    18
420
        0
176
     1
 90
       50
176
     1
 90
        3
176
     1
 62
     5
420
      255
176
     1
290
     0
176
     1
 90
       50
176
     1
 90
       50
176
     1
 90
       50
176
     1
290
     0
176
     1
 90
       50
176
     1
 62
   256
176
     0
 40
1.0
176
     0
 90
        2
176
     1
  1
strokes_ogs.tif
176
     1
290
     0
176
     1
 40
1.0
176
     1
 40
1.0
176
     1
  0
VISUALSTYLE
  5
124
102
{ACAD_REACTORS
330
2A
102
}
330
2A
100
AcDbVisualStyle
  2
Wireframe
 70
     5
177
     3
291
     0
 70
    58
 90
        0
176
     1
 90
        2
176
     1
 90
        0
176
     1
 90
        0
176
     1
 40
0.6
176
     1
 40
30.0
176
     1
 62
     7
420
 16777215
176
     1
 90
        1
176
     1
 90
        4
176
     1
 62
     7
176
     1
 62
   257
176
     1
 90
        1
176
     1
 90
        1
176
     1
 40
1.0
176
     1
 90
        0
176
     1
 62
   257
176
     1
 40
1.0
176
     1
 90
        1
176
     1
 90
        6
176
     1
 90
        2
176
     1
 62
     7
176
     1
 90
        3
176
     1
 90
        0
176
     1
 90
        0
176
     1
290
     0
176
     1
 90
        1
176
     1
 40
0.0
176
     1
 90
        0
176
     1
290
     0
176
     1
290
     1
176
     1
290
     1
176
     1
290
     0
176
     1
290
     0
176
     1
290
     0
176
     1
290
     0
176
     1
290
     0
176
     1
290
     0
176
     1
 90
       50
176
     1
 40
0.0
176
     1
 40
1.0
176
     1
 90
        0
176
     1
 62
    18
420
        0
176
     1
 90
       50
176
     1
 90
        3
176
     1
 62
     5
420
      255
176
     1
290
     0
176
     1
 90
       50
176
     1
 90
       50
176
     1
 90
       50
176
     1
290
     0
176
     1
 90
       50
176
     1
 62
   256
176
     0
 40
1.0
176
     0
 90
        2
176
     1
  1
strokes_ogs.tif
176
     1
290
     0
176
     1
 40
1.0
176
     1
 40
1.0
176
     1
  0
VISUALSTYLE
  5
128
102
{ACAD_REACTORS
330
2A
102
}
330
2A
100
AcDbVisualStyle
  2
X-Ray
 70
    25
177
     3
291
     0
 70
    58
 90
        2
176
     1
 90
        2
176
     1
 90
        1
176
     1
 90
        1
176
     1
 40
0.5
176
     1
 40
30.0
176
     1
 62
     7
420
 16777215
176
     1
 90
        1
176
     1
 90
        0
176
     1
 62
     7
176
     1
 62
   257
176
     1
 90
        1
176
     1
 90
        1
176
     1
 40
1.0
176
     1
 90
        8
176
     1
 62
     7
176
     1
 40
1.0
176
     1
 90
        1
176
     1
 90
        6
176
     1
 90
        2
176
     1
 62
     7
176
     1
 90
        3
176
     1
 90
        0
176
     1
 90
        0
176
     1
290
     0
176
     1
 90
       13
176
     1
 40
0.0
176
     1
 90
        0
176
     1
290
     0
176
     1
290
     1
176
     1
290
     1
176
     1
290
     0
176
     1
290
     0
176
     1
290
     0
176
     1
290
     0
176
     1
290
     0
176
     1
290
     0
176
     1
 90
       50
176
     1
 40
0.0
176
     1
 40
1.0
176
     1
 90
        0
176
     1
 62
    18
420
        0
176
     1
 90
       50
176
     1
 90
        3
176
     1
 62
     5
420
      255
176
     1
290
     0
176
     1
 90
       50
176
     1
 90
       50
176
     1
 90
       50
176
     1
290
     0
176
     1
 90
       50
176
     1
 62
   256
176
     0
 40
1.0
176
     0
 90
        2
176
     1
  1
strokes_ogs.tif
176
     1
290
     0
176
     1
 40
1.0
176
     1
 40
1.0
176
     1
  0
DICTIONARYVAR
  5
17A
102
{ACAD_REACTORS
330
175
102
}
330
175
100
DictionaryVariables
280
     0
  1
1:1
  0
DICTIONARYVAR
  5
177
102
{ACAD_REACTORS
330
175
102
}
330
175
100
DictionaryVariables
280
     0
  1
STANDARD
  0
DICTIONARYVAR
  5
176
102
{ACAD_REACTORS
330
175
102
}
330
175
100
DictionaryVariables
280
     0
  1
STANDARD
  0
DICTIONARYVAR
  5
178
102
{ACAD_REACTORS
330
175
102
}
330
175
100
DictionaryVariables
280
     0
  1
Imperial24
  0
DICTIONARYVAR
  5
179
102
{ACAD_REACTORS
330
175
102
}
330
175
100
DictionaryVariables
280
     0
  1
Imperial24
  0
DICTIONARY
  5
17B
330
12E
100
AcDbDictionary
280
     1
281
     1
  3
ACAD_ROUNDTRIP_2008_TABLESTYLE_CELLSTYLEMAP
360
17C
  0
CELLSTYLEMAP
  5
17C
102
{ACAD_REACTORS
330
17B
102
}
330
17B
100
AcDbCellStyleMap
 90
        3
300
CELLSTYLE
  1
TABLEFORMAT_BEGIN
 90
        5
170
     1
 91
        0
 92
    32768
 62
   257
 93
        1
300
CONTENTFORMAT
  1
CONTENTFORMAT_BEGIN
 90
        0
 91
        0
 92
      512
 93
        0
300

 40
0.0
140
1.0
 94
        5
 62
     0
340
11
144
0.25
309
CONTENTFORMAT_END
171
     0
 94
        0
309
TABLEFORMAT_END
  1
CELLSTYLE_BEGIN
 90
        1
 91
        1
300
_TITLE
309
CELLSTYLE_END
300
CELLSTYLE
  1
TABLEFORMAT_BEGIN
 90
        5
170
     1
 91
        0
 92
        0
 62
   257
 93
        1
300
CONTENTFORMAT
  1
CONTENTFORMAT_BEGIN
 90
        0
 91
        0
 92
      512
 93
        0
300

 40
0.0
140
1.0
 94
        5
 62
     0
340
11
144
0.18
309
CONTENTFORMAT_END
171
     0
 94
        0
309
TABLEFORMAT_END
  1
CELLSTYLE_BEGIN
 90
        2
 91
        1
300
_HEADER
309
CELLSTYLE_END
300
CELLSTYLE
  1
TABLEFORMAT_BEGIN
 90
        5
170
     1
 91
        0
 92
        0
 62
   257
 93
        1
300
CONTENTFORMAT
  1
CONTENTFORMAT_BEGIN
 90
        0
 91
        0
 92
      512
 93
        0
300

 40
0.0
140
1.0
 94
        2
 62
     0
340
11
144
0.18
309
CONTENTFORMAT_END
171
     0
 94
        0
309
TABLEFORMAT_END
  1
CELLSTYLE_BEGIN
 90
        3
 91
        2
300
_DATA
309
CELLSTYLE_END
  0
ENDSEC
  0
SECTION
  2
ACDSDATA
 70
     2
 71
     8
  0
ACDSSCHEMA
 90
        0
  1
AcDb_Thumbnail_Schema
  2
AcDbDs::ID
280
    10
 91
        8
  2
Thumbnail_Data
280
    15
 91
        0
101
ACDSRECORD
 95
        0
 90
        1
  2
AcDbDs::TreatedAsObjectData
280
     1
291
     1
101
ACDSRECORD
 95
        0
 90
        2
  2
AcDbDs::Legacy
280
     1
291
     1
101
ACDSRECORD
  1
AcDbDs::ID
 90
        3
  2
AcDs:Indexable
280
     1
291
     1
101
ACDSRECORD
  1
AcDbDs::ID
 90
        4
  2
AcDbDs::HandleAttribute
280
     7
282
     1
  0
ACDSSCHEMA
 90
        1
  1
AcDbDs::TreatedAsObjectDataSchema
  2
AcDbDs::TreatedAsObjectData
280
     1
 91
        0
  0
ACDSSCHEMA
 90
        2
  1
AcDbDs::LegacySchema
  2
AcDbDs::Legacy
280
     1
 91
        0
  0
ACDSSCHEMA
 90
        3
  1
AcDbDs::IndexedPropertySchema
  2
AcDs:Indexable
280
     1
 91
        0
  0
ACDSSCHEMA
 90
        4
  1
AcDbDs::HandleAttributeSchema
  2
AcDbDs::HandleAttribute
280
     7
 91
        1
284
     1
  0
ACDSRECORD
 90
        0
  2
AcDbDs::ID
280
    10
320
22
  2
Thumbnail_Data
280
    15
 94
     1469
310
89504E470D0A1A0A0000000D49484452000001000000008D08030000006FF554E600000300504C5445FFFFFFFFFFFFFFFFFF0000000000000000000000000000000000000000000000000000330000660000990000CC0000FF0033000033330033660033990033CC0033FF0066000066330066660066990066CC0066FF0099
310
000099330099660099990099CC0099FF00CC0000CC3300CC6600CC9900CCCC00CCFF00FF0000FF3300FF6600FF9900FFCC00FFFF3300003300333300663300993300CC3300FF3333003333333333663333993333CC3333FF3366003366333366663366993366CC3366FF3399003399333399663399993399CC3399FF33CC00
310
33CC3333CC6633CC9933CCCC33CCFF33FF0033FF3333FF6633FF9933FFCC33FFFF6600006600336600666600996600CC6600FF6633006633336633666633996633CC6633FF6666006666336666666666996666CC6666FF6699006699336699666699996699CC6699FF66CC0066CC3366CC6666CC9966CCCC66CCFF66FF0066
310
FF3366FF6666FF9966FFCC66FFFF9900009900339900669900999900CC9900FF9933009933339933669933999933CC9933FF9966009966339966669966999966CC9966FF9999009999339999669999999999CC9999FF99CC0099CC3399CC6699CC9999CCCC99CCFF99FF0099FF3399FF6699FF9999FFCC99FFFFCC0000CC00
310
33CC0066CC0099CC00CCCC00FFCC3300CC3333CC3366CC3399CC33CCCC33FFCC6600CC6633CC6666CC6699CC66CCCC66FFCC9900CC9933CC9966CC9999CC99CCCC99FFCCCC00CCCC33CCCC66CCCC99CCCCCCCCCCFFCCFF00CCFF33CCFF66CCFF99CCFFCCCCFFFFFF0000FF0033FF0066FF0099FF00CCFF00FFFF3300FF3333
310
FF3366FF3399FF33CCFF33FFFF6600FF6633FF6666FF6699FF66CCFF66FFFF9900FF9933FF9966FF9999FF99CCFF99FFFFCC00FFCC33FFCC66FFCC99FFCCCCFFCCFFFFFF00FFFF33FFFF66FFFF99FFFFCCFFFFFF0000000D0D0D1A1A1A2828283535354343435050505D5D5D6B6B6B787878868686939393A1A1A1AEAEAEBB
310
BBBBC9C9C9D6D6D6E4E4E4F1F1F1FFFFFF000000000000000000000000000000000000000000000000000000000000AD4AB4E4000002784944415478DAED9C4BB6C3200C433566FF2B64256FD8BEFC6DA0B16C69D89350744BC036A4C056DDAFA3BB47DAEB784383FDDD7DD4D90838BAD9BEBB7B46A42506F0BFBBD743223C
310
802E00A3FDAD0C60EBF8B035E49D031E4DFB480EA05702E019E1E1FD5B3A7878318CA11239005BECEB689F05406BED1C40E302806523C0D17C7C00F6473A1100D79CD63301E87643E1CB01D648E8F9F5F6C629003C8EED1D4D73F87F68CDDD32452E707F97B75D9A64082BFCD315452F62C05E144017003E0058B2A4FB6E0F
310
0A6074B0D8BF281280E1E7C5FD5DB108788BDEB024865193A1AF4BCCC1BD25327C2D1B5C14D66DC2A5C0FE51790D8C4300284D006FABB8FD7711208A0C99DE6DD6D7B200F81869EE54F7B38972C205C51F811008AAAF026B0A3C0A03E803411421B0605B842A197ABE13E2A80720453960524188756F704E49907B6F70B42A
310
AC7D0101A802A009400900987209D53260F6069A132258B4A679B6910800C076F0311D00980F4A32E483CB1C199B8F9F0DC3F593121404460600C00FA00B800340BB880AC85E98189C038BBE32F3ACEE0706028341C0CD9BA3B900DC46C6C084D0892B1BC61D80E4AFCE620BC0FA666505003D3100EC018C0D013200BBFBE7
310
10E50230A310C40C606CD227AD095E9B2D0520C71181E21B438108709C10C9E85F00F0FEF4A77372785FA5CDBF890091D47F7A3812D1ECFF7A1C20A8AAFB9F4F0064FE81C94BFF71D6185B13CE7B5CDE8CF01ADB17BFDB210383B6BD1D9EEDB8ECCFAD1CA5900008800008406900A8EE5F002000C5FD13FD49622002406D02
310
48A8DAEE1F62400155F72F001080E2FECF0900B509A0964A9B17800D02489224499224499224499224499224499224495218FD015EA2652ADB90EA7F0000000049454E44AE426082
  0
ACDSRECORD
 90
        0
  2
AcDbDs::ID
280
    10
320
1E
  2
Thumbnail_Data
280
    15
 94
     2777
310
89504E470D0A1A0A0000000D4948445200000100000000C508030000008CFEDCE700000300504C5445FFFFFFFFFFFFFFFFFF0000000000000000000000000000000000000000000000000000330000660000990000CC0000FF0033000033330033660033990033CC0033FF0066000066330066660066990066CC0066FF0099
310
000099330099660099990099CC0099FF00CC0000CC3300CC6600CC9900CCCC00CCFF00FF0000FF3300FF6600FF9900FFCC00FFFF3300003300333300663300993300CC3300FF3333003333333333663333993333CC3333FF3366003366333366663366993366CC3366FF3399003399333399663399993399CC3399FF33CC00
310
33CC3333CC6633CC9933CCCC33CCFF33FF0033FF3333FF6633FF9933FFCC33FFFF6600006600336600666600996600CC6600FF6633006633336633666633996633CC6633FF6666006666336666666666996666CC6666FF6699006699336699666699996699CC6699FF66CC0066CC3366CC6666CC9966CCCC66CCFF66FF0066
310
FF3366FF6666FF9966FFCC66FFFF9900009900339900669900999900CC9900FF9933009933339933669933999933CC9933FF9966009966339966669966999966CC9966FF9999009999339999669999999999CC9999FF99CC0099CC3399CC6699CC9999CCCC99CCFF99FF0099FF3399FF6699FF9999FFCC99FFFFCC0000CC00
310
33CC0066CC0099CC00CCCC00FFCC3300CC3333CC3366CC3399CC33CCCC33FFCC6600CC6633CC6666CC6699CC66CCCC66FFCC9900CC9933CC9966CC9999CC99CCCC99FFCCCC00CCCC33CCCC66CCCC99CCCCCCCCCCFFCCFF00CCFF33CCFF66CCFF99CCFFCCCCFFFFFF0000FF0033FF0066FF0099FF00CCFF00FFFF3300FF3333
310
FF3366FF3399FF33CCFF33FFFF6600FF6633FF6666FF6699FF66CCFF66FFFF9900FF9933FF9966FF9999FF99CCFF99FFFFCC00FFCC33FFCC66FFCC99FFCCCCFFCCFFFFFF00FFFF33FFFF66FFFF99FFFFCCFFFFFF0000000D0D0D1A1A1A2828283535354343435050505D5D5D6B6B6B787878868686939393A1A1A1AEAEAEBB
310
BBBBC9C9C9D6D6D6E4E4E4F1F1F1FFFFFF000000000000000000000000000000000000000000000000000000000000AD4AB4E4000007944944415478DAED9DC99AAC200C46B3E6FD9F906DF543DCDB53B5C09F01148C1A77559F56C9319019E9E3E1077DD0838F001000024000F80690AB039C9CE5E36A57D4009EF6EC0340
310
000800012000048000100002400008000120000480071E01C008205FFED80B60DE23B0DCE6514FDA2100E3830A003705D031599F03203F08400E00CB08C83F7A1280FC5400BFC3E4011C0FC21380DDD6DB1D00A472A060F0E9B600D0939E2F026E0008737EAA59E40C4001E2F7DBEACB63097801500E590070B42AF005A011
310
7280E53D25D602C873017093BC24316315700B804A00E09490809B02289679B806DC1A40F5A1D202CDA9379480728CA521D49E795500CD103250FFBC5E64AEBE0A00348FA581368BA270ED150008EA4E22B0FD4ED08E1701901875C71328C64F5824D208016B4CF03000786E37AE1098EFC0193840399E05A0B8F917A16132
310
3894D0D93500D44BD7EBD50A75E1231272915E287AE21D0023BC685943A7A325731F814500607057F480584B50889ED2C064580300DE277890F5F9403DD6B347881DFA012005F9B1752B0E488B1975115801A0D0D5A9B9772A9EA71220F8FC4704001378B90020A779A0214C5C7D00632CD0783E753E0061C1AB755FFA940F
310
62FD831F2B32A188C97002613A806C02401B731647497EBE494CC868388B361B00AFAD8833E9330E937C1F228011D3F00400240248C52D63C73F710084D5E32400CC9D704E5DAAEF185C97583752FDDB530024569343535F07A00940678860A504B4E17E39D4D302F8FF77495802C05F266F00B20E80240055E443594E1D4A
310
0030DFF825BF05408A28F5AB811300403D58784018C056CD41EF7AC81A5CA706D1E28425BCB604DEE3274E9D10534DE50A4046814E4E7D4100D9387EEA18FFFC424921DC0F4520B52E512700F20A207322C1E252D504F7C027F802C300487274A1A597A0047C9E9B52420084A09A3F00F2328DA35FBC9A14DDCC63DDE17100
310
A406436D6B007D5940490780D4A50F09B0F8EC5505149A3AA33FED0A8060FC925C2364D5B16ED60043F8BFBACBAD3DD8AC72928219CA15AE07A0FBACED5325C302A8FCDF5900D4879F85A95D044A923EFD07C201D32B45ADC3C759913252A4254E1A13DA0D00E265145A4AF4F6F90DA921E2030E3E00A4ED9D68D3F64FE357
310
003629034B12C5A9046431F49761AACCE8E630F650F204405C9ACAC797DADC6F528DDC315368ED2268DDF89098F4B832AEAB0018B4994D3E9E3B005D791A4BBB9421C8E5194087EFBCA369F00853980E8A09F656371FD434B9DF1B3C0E0013CD632F1D197EF96B5DB0D694CAB6B6DF4F9CFB6DF8D9048070C478F36B871549
310
1D0B402C80272A027F5286634BA0359CA8B73E682580B2AC338DEE7963BEF065BDAF85D5E2D53886217060D250C5F0DA72F9F27E1378AEA94300B8CBFA6E692500D3ED5BA7C11FC0D474DDFB04500D23C14119241D0A4E1A4570CE22080CBEB742487C27C0FB8ADF2C019F6CD8BD084EAD162F0745B9340984044A4661F27D
310
9B2CAC2F966E521C5B334EF1831A43880B23BB2A9696D2BAE0F7345B900FBB0CD9C28B6B85D73843AE6B85A7BBC3CE6A85BBB2555240C4F6582F512BCCDD5439D3074262870645E7029063BA9B14B1BDF66B78C6AC00A0E605DA72BA6D62E49D28611778A51CD10D0016819C1821B9AC802F45DD9318390E40D27283247C64
310
F37EAC194807E506274800931DC6A5714D6ED0D2389939C173B4081A52387FA9B04C7A061DE68E1D03B054727CF9FAA95E038A8E32D29B2A9D68015B8D105B12FFE7002B1965B7768074578A462CBC1C4D750E3BC5A7354E925229D0B879228171DF69250053A5A8562ADB09D7553C405BBE69D317071C7D6B5D48576A70B1
310
04E8EB3FDF30D1512BE84B027ACBE5FB1B260C6557FB01D07E2DC09AFDE5B96D07796156C3B64241C53A0360E919620124BEB5D66FCB4C5FCBD06F63246528013F0814007D9BCEAD04606F9B835D6355D72C0F604ADBDC2000C6F0B176CD317E340380464C816500D4D659D29AA733689D5CD73A7B180078DFACF162B51461
310
B8C42580E2BEDBF1272B00FE979A7CB22700D5B8F4FE19C9F4E35092EF29C0ED219232D8410302F8AA0548B3F710A1C3D5A0A20452A70490751719870080199029D78E206B16241430180E082C2F9666EC203D5B507C95CC00E86C00C4F7F628560E0CA53653452140E703205CE9A6F9BA9660B20E803C00286B4413B512D0
310
11DEE6A6112E17231700980D4433097E8BB12F92F66C9FB2100049BE9A14D2B26EA9C937993901A0EF1DCE6C9550015382C1476EAA4AC745854D3A21C3A2B7AE6D75E9D06D756701E0F6D16CDD39E6ECCDB72F34FED7250034B1DC766EB019055AB3B5F67400A828C4D3E6EAD30098B7D7E717CE25DBEBCF05C02440443541
310
F8050B7B5FD07CC63B462C76BF9A51C71B2ED0250018223D594D7B8A1B4FFA0760CC9FDCF6353B3C00A4F04E79D1523E4B02369B07204B30E7FB03902DC1A7006857B78701789A04F87BE5E6390098780F61C7E15600082FF34204E9A600B85ED1492B802300DE5EBD7D02005F2F5F3F0B80EDB82900F9AD49C361CF2B0150
310
4461CA7F7904400160D9F89D02A000B06AFC5E01F4963A0580FB01D8FB46E965002E7F18013CEE08000120000480001000024000782C000A00012000048000100002C03B22D41D56B9C5152101012000048000F0F0E3F100FE01E647E4C1EB1B6AEF0000000049454E44AE426082
  0
ACDSRECORD
 90
        0
  2
AcDbDs::ID
280
    10
320
26
  2
Thumbnail_Data
280
    15
 94
     2777
310
89504E470D0A1A0A0000000D4948445200000100000000C508030000008CFEDCE700000300504C5445FFFFFFFFFFFFFFFFFF0000000000000000000000000000000000000000000000000000330000660000990000CC0000FF0033000033330033660033990033CC0033FF0066000066330066660066990066CC0066FF0099
310
000099330099660099990099CC0099FF00CC0000CC3300CC6600CC9900CCCC00CCFF00FF0000FF3300FF6600FF9900FFCC00FFFF3300003300333300663300993300CC3300FF3333003333333333663333993333CC3333FF3366003366333366663366993366CC3366FF3399003399333399663399993399CC3399FF33CC00
310
33CC3333CC6633CC9933CCCC33CCFF33FF0033FF3333FF6633FF9933FFCC33FFFF6600006600336600666600996600CC6600FF6633006633336633666633996633CC6633FF6666006666336666666666996666CC6666FF6699006699336699666699996699CC6699FF66CC0066CC3366CC6666CC9966CCCC66CCFF66FF0066
310
FF3366FF6666FF9966FFCC66FFFF9900009900339900669900999900CC9900FF9933009933339933669933999933CC9933FF9966009966339966669966999966CC9966FF9999009999339999669999999999CC9999FF99CC0099CC3399CC6699CC9999CCCC99CCFF99FF0099FF3399FF6699FF9999FFCC99FFFFCC0000CC00
310
33CC0066CC0099CC00CCCC00FFCC3300CC3333CC3366CC3399CC33CCCC33FFCC6600CC6633CC6666CC6699CC66CCCC66FFCC9900CC9933CC9966CC9999CC99CCCC99FFCCCC00CCCC33CCCC66CCCC99CCCCCCCCCCFFCCFF00CCFF33CCFF66CCFF99CCFFCCCCFFFFFF0000FF0033FF0066FF0099FF00CCFF00FFFF3300FF3333
310
FF3366FF3399FF33CCFF33FFFF6600FF6633FF6666FF6699FF66CCFF66FFFF9900FF9933FF9966FF9999FF99CCFF99FFFFCC00FFCC33FFCC66FFCC99FFCCCCFFCCFFFFFF00FFFF33FFFF66FFFF99FFFFCCFFFFFF0000000D0D0D1A1A1A2828283535354343435050505D5D5D6B6B6B787878868686939393A1A1A1AEAEAEBB
310
BBBBC9C9C9D6D6D6E4E4E4F1F1F1FFFFFF000000000000000000000000000000000000000000000000000000000000AD4AB4E4000007944944415478DAED9DC99AAC200C46B3E6FD9F906DF543DCDB53B5C09F01148C1A77559F56C9319019E9E3E1077DD0838F001000024000F80690AB039C9CE5E36A57D4009EF6EC0340
310
000800012000048000100002400008000120000480071E01C008205FFED80B60DE23B0DCE6514FDA2100E3830A003705D031599F03203F08400E00CB08C83F7A1280FC5400BFC3E4011C0FC21380DDD6DB1D00A472A060F0E9B600D0939E2F026E0008737EAA59E40C4001E2F7DBEACB63097801500E590070B42AF005A011
310
7280E53D25D602C873017093BC24316315700B804A00E09490809B02289679B806DC1A40F5A1D202CDA9379480728CA521D49E795500CD103250FFBC5E64AEBE0A00348FA581368BA270ED150008EA4E22B0FD4ED08E1701901875C71328C64F5824D208016B4CF03000786E37AE1098EFC0193840399E05A0B8F917A16132
310
3894D0D93500D44BD7EBD50A75E1231272915E287AE21D0023BC685943A7A325731F814500607057F480584B50889ED2C064580300DE277890F5F9403DD6B347881DFA012005F9B1752B0E488B1975115801A0D0D5A9B9772A9EA71220F8FC4704001378B90020A779A0214C5C7D00632CD0783E753E0061C1AB755FFA940F
310
62FD831F2B32A188C97002613A806C02401B731647497EBE494CC868388B361B00AFAD8833E9330E937C1F228011D3F00400240248C52D63C73F710084D5E32400CC9D704E5DAAEF185C97583752FDDB530024569343535F07A00940678860A504B4E17E39D4D302F8FF77495802C05F266F00B20E80240055E443594E1D4A
310
0030DFF825BF05408A28F5AB811300403D58784018C056CD41EF7AC81A5CA706D1E28425BCB604DEE3274E9D10534DE50A4046814E4E7D4100D9387EEA18FFFC424921DC0F4520B52E512700F20A207322C1E252D504F7C027F802C300487274A1A597A0047C9E9B52420084A09A3F00F2328DA35FBC9A14DDCC63DDE17100
310
A406436D6B007D5940490780D4A50F09B0F8EC5505149A3AA33FED0A8060FC925C2364D5B16ED60043F8BFBACBAD3DD8AC72928219CA15AE07A0FBACED5325C302A8FCDF5900D4879F85A95D044A923EFD07C201D32B45ADC3C759913252A4254E1A13DA0D00E265145A4AF4F6F90DA921E2030E3E00A4ED9D68D3F64FE357
310
003629034B12C5A9046431F49761AACCE8E630F650F204405C9ACAC797DADC6F528DDC315368ED2268DDF89098F4B832AEAB0018B4994D3E9E3B005D791A4BBB9421C8E5194087EFBCA369F00853980E8A09F656371FD434B9DF1B3C0E0013CD632F1D197EF96B5DB0D694CAB6B6DF4F9CFB6DF8D9048070C478F36B871549
310
1D0B402C80272A027F5286634BA0359CA8B73E682580B2AC338DEE7963BEF065BDAF85D5E2D53886217060D250C5F0DA72F9F27E1378AEA94300B8CBFA6E692500D3ED5BA7C11FC0D474DDFB04500D23C14119241D0A4E1A4570CE22080CBEB742487C27C0FB8ADF2C019F6CD8BD084EAD162F0745B9340984044A4661F27D
310
9B2CAC2F966E521C5B334EF1831A43880B23BB2A9696D2BAE0F7345B900FBB0CD9C28B6B85D73843AE6B85A7BBC3CE6A85BBB2555240C4F6582F512BCCDD5439D3074262870645E7029063BA9B14B1BDF66B78C6AC00A0E605DA72BA6D62E49D28611778A51CD10D0016819C1821B9AC802F45DD9318390E40D27283247C64
310
F37EAC194807E506274800931DC6A5714D6ED0D2389939C173B4081A52387FA9B04C7A061DE68E1D03B054727CF9FAA95E038A8E32D29B2A9D68015B8D105B12FFE7002B1965B7768074578A462CBC1C4D750E3BC5A7354E925229D0B879228171DF69250053A5A8562ADB09D7553C405BBE69D317071C7D6B5D48576A70B1
310
04E8EB3FDF30D1512BE84B027ACBE5FB1B260C6557FB01D07E2DC09AFDE5B96D07796156C3B64241C53A0360E919620124BEB5D66FCB4C5FCBD06F63246528013F0814007D9BCEAD04606F9B835D6355D72C0F604ADBDC2000C6F0B176CD317E340380464C816500D4D659D29AA733689D5CD73A7B180078DFACF162B51461
310
B8C42580E2BEDBF1272B00FE979A7CB22700D5B8F4FE19C9F4E35092EF29C0ED219232D8410302F8AA0548B3F710A1C3D5A0A20452A70490751719870080199029D78E206B16241430180E082C2F9666EC203D5B507C95CC00E86C00C4F7F628560E0CA53653452140E703205CE9A6F9BA9660B20E803C00286B4413B512D0
310
11DEE6A6112E17231700980D4433097E8BB12F92F66C9FB2100049BE9A14D2B26EA9C937993901A0EF1DCE6C9550015382C1476EAA4AC745854D3A21C3A2B7AE6D75E9D06D756701E0F6D16CDD39E6ECCDB72F34FED7250034B1DC766EB019055AB3B5F67400A828C4D3E6EAD30098B7D7E717CE25DBEBCF05C02440443541
310
F8050B7B5FD07CC63B462C76BF9A51C71B2ED0250018223D594D7B8A1B4FFA0760CC9FDCF6353B3C00A4F04E79D1523E4B02369B07204B30E7FB03902DC1A7006857B78701789A04F87BE5E6390098780F61C7E15600082FF34204E9A600B85ED1492B802300DE5EBD7D02005F2F5F3F0B80EDB82900F9AD49C361CF2B0150
310
4461CA7F7904400160D9F89D02A000B06AFC5E01F4963A0580FB01D8FB46E965002E7F18013CEE08000120000480001000024000782C000A00012000048000100002C03B22D41D56B9C5152101012000048000F0F0E3F100FE01E647E4C1EB1B6AEF0000000049454E44AE426082
  0
ENDSEC
  0
EOF
